solid CATIA STL
  facet normal -1.000000e+000  0.000000e+000  0.000000e+000
    outer loop
      vertex -2.255000e+001 -7.562242e-001 -1.057414e+000
      vertex -2.255000e+001 -4.842916e+000 -1.243449e+000
      vertex -2.255000e+001 -9.873055e-001 -8.457115e-001
    endloop
  endfacet
  facet normal -1.000000e+000  -0.000000e+000  0.000000e+000
    outer loop
      vertex -2.255000e+001 -7.562242e-001 -1.057414e+000
      vertex -2.255000e+001 -4.811938e-001 -1.207664e+000
      vertex -2.255000e+001 -4.842916e+000 -1.243449e+000
    endloop
  endfacet
  facet normal -1.000000e+000  0.000000e+000  0.000000e+000
    outer loop
      vertex -2.255000e+001  1.299819e+000 -2.168046e-002
      vertex -2.255000e+001  1.267237e+000  2.900166e-001
      vertex -2.255000e+001  5.000000e+000  0.000000e+000
    endloop
  endfacet
  facet normal -9.999999e-001  0.000000e+000  -0.000000e+000
    outer loop
      vertex -2.255000e+001  4.406506e-001 -1.223040e+000
      vertex -2.255000e+001  7.205388e-001 -1.082046e+000
      vertex -2.255000e+001  4.842916e+000 -1.243449e+000
    endloop
  endfacet
  facet normal -1.000000e+000  0.000000e+000  0.000000e+000
    outer loop
      vertex -2.255000e+001 -4.648882e+000 -1.840623e+000
      vertex -2.255000e+001 -4.842916e+000 -1.243449e+000
      vertex -2.255000e+001 -4.811938e-001 -1.207664e+000
    endloop
  endfacet
  facet normal -1.000000e+000  0.000000e+000  -0.000000e+000
    outer loop
      vertex -2.255000e+001 -4.648882e+000 -1.840623e+000
      vertex -2.255000e+001 -4.811938e-001 -1.207664e+000
      vertex -2.255000e+001 -1.781983e-001 -1.287729e+000
    endloop
  endfacet
  facet normal -1.000000e+000  0.000000e+000  0.000000e+000
    outer loop
      vertex -2.255000e+001 -4.648882e+000 -1.840623e+000
      vertex -2.255000e+001 -1.781983e-001 -1.287729e+000
      vertex -2.255000e+001 -3.139526e-001 -4.990134e+000
    endloop
  endfacet
  facet normal -1.000000e+000  0.000000e+000  0.000000e+000
    outer loop
      vertex -2.255000e+001 -4.648882e+000 -1.840623e+000
      vertex -2.255000e+001 -3.139526e-001 -4.990134e+000
      vertex -2.255000e+001 -9.369066e-001 -4.911436e+000
    endloop
  endfacet
  facet normal -1.000000e+000  0.000000e+000  0.000000e+000
    outer loop
      vertex -2.255000e+001 -4.648882e+000 -1.840623e+000
      vertex -2.255000e+001 -9.369066e-001 -4.911436e+000
      vertex -2.255000e+001 -1.545085e+000 -4.755282e+000
    endloop
  endfacet
  facet normal -9.999999e-001  0.000000e+000  0.000000e+000
    outer loop
      vertex -2.255000e+001 -4.648882e+000 -1.840623e+000
      vertex -2.255000e+001 -1.545085e+000 -4.755282e+000
      vertex -2.255000e+001 -2.128896e+000 -4.524135e+000
    endloop
  endfacet
  facet normal -1.000000e+000  0.000000e+000  0.000000e+000
    outer loop
      vertex -2.255000e+001 -4.648882e+000 -1.840623e+000
      vertex -2.255000e+001 -2.128896e+000 -4.524135e+000
      vertex -2.255000e+001 -2.679134e+000 -4.221640e+000
    endloop
  endfacet
  facet normal -9.999999e-001  0.000000e+000  0.000000e+000
    outer loop
      vertex -2.255000e+001 -4.648882e+000 -1.840623e+000
      vertex -2.255000e+001 -2.679134e+000 -4.221640e+000
      vertex -2.255000e+001 -3.187120e+000 -3.852566e+000
    endloop
  endfacet
  facet normal -1.000000e+000  0.000000e+000  0.000000e+000
    outer loop
      vertex -2.255000e+001 -4.648882e+000 -1.840623e+000
      vertex -2.255000e+001 -3.187120e+000 -3.852566e+000
      vertex -2.255000e+001 -3.644843e+000 -3.422735e+000
    endloop
  endfacet
  facet normal -1.000000e+000  0.000000e+000  0.000000e+000
    outer loop
      vertex -2.255000e+001 -4.648882e+000 -1.840623e+000
      vertex -2.255000e+001 -3.644843e+000 -3.422735e+000
      vertex -2.255000e+001 -4.045085e+000 -2.938926e+000
    endloop
  endfacet
  facet normal -1.000000e+000  0.000000e+000  0.000000e+000
    outer loop
      vertex -2.255000e+001 -4.648882e+000 -1.840623e+000
      vertex -2.255000e+001 -4.045085e+000 -2.938926e+000
      vertex -2.255000e+001 -4.381534e+000 -2.408768e+000
    endloop
  endfacet
  facet normal -1.000000e+000  0.000000e+000  -0.000000e+000
    outer loop
      vertex -2.255000e+001  1.351535e-001 -1.292955e+000
      vertex -2.255000e+001  4.406506e-001 -1.223040e+000
      vertex -2.255000e+001  4.842916e+000 -1.243449e+000
    endloop
  endfacet
  facet normal -1.000000e+000  0.000000e+000  0.000000e+000
    outer loop
      vertex -2.255000e+001  1.351535e-001 -1.292955e+000
      vertex -2.255000e+001  4.842916e+000 -1.243449e+000
      vertex -2.255000e+001  4.648882e+000 -1.840623e+000
    endloop
  endfacet
  facet normal -1.000000e+000  -0.000000e+000  0.000000e+000
    outer loop
      vertex -2.255000e+001  1.351535e-001 -1.292955e+000
      vertex -2.255000e+001  4.648882e+000 -1.840623e+000
      vertex -2.255000e+001  4.381534e+000 -2.408768e+000
    endloop
  endfacet
  facet normal -1.000000e+000  -0.000000e+000  0.000000e+000
    outer loop
      vertex -2.255000e+001  1.351535e-001 -1.292955e+000
      vertex -2.255000e+001  4.381534e+000 -2.408768e+000
      vertex -2.255000e+001  4.045085e+000 -2.938926e+000
    endloop
  endfacet
  facet normal -1.000000e+000  -0.000000e+000  0.000000e+000
    outer loop
      vertex -2.255000e+001  1.351535e-001 -1.292955e+000
      vertex -2.255000e+001  4.045085e+000 -2.938926e+000
      vertex -2.255000e+001  3.644843e+000 -3.422735e+000
    endloop
  endfacet
  facet normal -1.000000e+000  -0.000000e+000  0.000000e+000
    outer loop
      vertex -2.255000e+001  1.351535e-001 -1.292955e+000
      vertex -2.255000e+001  3.644843e+000 -3.422735e+000
      vertex -2.255000e+001  3.187120e+000 -3.852566e+000
    endloop
  endfacet
  facet normal -1.000000e+000  -0.000000e+000  0.000000e+000
    outer loop
      vertex -2.255000e+001  1.351535e-001 -1.292955e+000
      vertex -2.255000e+001  3.187120e+000 -3.852566e+000
      vertex -2.255000e+001  2.679134e+000 -4.221640e+000
    endloop
  endfacet
  facet normal -1.000000e+000  -0.000000e+000  0.000000e+000
    outer loop
      vertex -2.255000e+001  1.351535e-001 -1.292955e+000
      vertex -2.255000e+001  2.679134e+000 -4.221640e+000
      vertex -2.255000e+001  2.128896e+000 -4.524135e+000
    endloop
  endfacet
  facet normal -1.000000e+000  -0.000000e+000  0.000000e+000
    outer loop
      vertex -2.255000e+001  1.351535e-001 -1.292955e+000
      vertex -2.255000e+001  2.128896e+000 -4.524135e+000
      vertex -2.255000e+001  1.545085e+000 -4.755282e+000
    endloop
  endfacet
  facet normal -1.000000e+000  -0.000000e+000  0.000000e+000
    outer loop
      vertex -2.255000e+001  1.351535e-001 -1.292955e+000
      vertex -2.255000e+001  1.545085e+000 -4.755282e+000
      vertex -2.255000e+001  9.369066e-001 -4.911436e+000
    endloop
  endfacet
  facet normal -9.999999e-001  -0.000000e+000  0.000000e+000
    outer loop
      vertex -2.255000e+001  1.351535e-001 -1.292955e+000
      vertex -2.255000e+001  9.369066e-001 -4.911436e+000
      vertex -2.255000e+001  3.139526e-001 -4.990134e+000
    endloop
  endfacet
  facet normal -1.000000e+000  0.000000e+000  0.000000e+000
    outer loop
      vertex -2.255000e+001  1.351535e-001 -1.292955e+000
      vertex -2.255000e+001  3.139526e-001 -4.990134e+000
      vertex -2.255000e+001 -3.139526e-001 -4.990134e+000
    endloop
  endfacet
  facet normal -1.000000e+000  0.000000e+000  0.000000e+000
    outer loop
      vertex -2.255000e+001  1.351535e-001 -1.292955e+000
      vertex -2.255000e+001 -3.139526e-001 -4.990134e+000
      vertex -2.255000e+001 -1.781983e-001 -1.287729e+000
    endloop
  endfacet
  facet normal -1.000000e+000  0.000000e+000  0.000000e+000
    outer loop
      vertex -2.255000e+001  1.781983e-001  1.287729e+000
      vertex -2.255000e+001 -1.351535e-001  1.292955e+000
      vertex -2.255000e+001 -3.139526e-001  4.990134e+000
    endloop
  endfacet
  facet normal -1.000000e+000  0.000000e+000  0.000000e+000
    outer loop
      vertex -2.255000e+001  1.781983e-001  1.287729e+000
      vertex -2.255000e+001 -3.139526e-001  4.990134e+000
      vertex -2.255000e+001  3.139526e-001  4.990134e+000
    endloop
  endfacet
  facet normal -1.000000e+000  0.000000e+000  -0.000000e+000
    outer loop
      vertex -2.255000e+001  1.781983e-001  1.287729e+000
      vertex -2.255000e+001  3.139526e-001  4.990134e+000
      vertex -2.255000e+001  9.369066e-001  4.911436e+000
    endloop
  endfacet
  facet normal -1.000000e+000  0.000000e+000  -0.000000e+000
    outer loop
      vertex -2.255000e+001  1.781983e-001  1.287729e+000
      vertex -2.255000e+001  9.369066e-001  4.911436e+000
      vertex -2.255000e+001  1.545085e+000  4.755282e+000
    endloop
  endfacet
  facet normal -1.000000e+000  0.000000e+000  -0.000000e+000
    outer loop
      vertex -2.255000e+001  1.781983e-001  1.287729e+000
      vertex -2.255000e+001  1.545085e+000  4.755282e+000
      vertex -2.255000e+001  2.128896e+000  4.524135e+000
    endloop
  endfacet
  facet normal -1.000000e+000  0.000000e+000  -0.000000e+000
    outer loop
      vertex -2.255000e+001  1.781983e-001  1.287729e+000
      vertex -2.255000e+001  2.128896e+000  4.524135e+000
      vertex -2.255000e+001  2.679134e+000  4.221640e+000
    endloop
  endfacet
  facet normal -1.000000e+000  0.000000e+000  -0.000000e+000
    outer loop
      vertex -2.255000e+001  1.781983e-001  1.287729e+000
      vertex -2.255000e+001  2.679134e+000  4.221640e+000
      vertex -2.255000e+001  3.187120e+000  3.852566e+000
    endloop
  endfacet
  facet normal -1.000000e+000  0.000000e+000  -0.000000e+000
    outer loop
      vertex -2.255000e+001  1.781983e-001  1.287729e+000
      vertex -2.255000e+001  3.187120e+000  3.852566e+000
      vertex -2.255000e+001  3.644843e+000  3.422735e+000
    endloop
  endfacet
  facet normal -1.000000e+000  0.000000e+000  -0.000000e+000
    outer loop
      vertex -2.255000e+001  1.781983e-001  1.287729e+000
      vertex -2.255000e+001  3.644843e+000  3.422735e+000
      vertex -2.255000e+001  4.045085e+000  2.938926e+000
    endloop
  endfacet
  facet normal -1.000000e+000  0.000000e+000  -0.000000e+000
    outer loop
      vertex -2.255000e+001  1.781983e-001  1.287729e+000
      vertex -2.255000e+001  4.045085e+000  2.938926e+000
      vertex -2.255000e+001  4.381534e+000  2.408768e+000
    endloop
  endfacet
  facet normal -1.000000e+000  0.000000e+000  -0.000000e+000
    outer loop
      vertex -2.255000e+001  1.781983e-001  1.287729e+000
      vertex -2.255000e+001  4.381534e+000  2.408768e+000
      vertex -2.255000e+001  4.648882e+000  1.840623e+000
    endloop
  endfacet
  facet normal -1.000000e+000  0.000000e+000  -0.000000e+000
    outer loop
      vertex -2.255000e+001  1.781983e-001  1.287729e+000
      vertex -2.255000e+001  4.648882e+000  1.840623e+000
      vertex -2.255000e+001  4.842916e+000  1.243449e+000
    endloop
  endfacet
  facet normal -1.000000e+000  -0.000000e+000  0.000000e+000
    outer loop
      vertex -2.255000e+001  1.781983e-001  1.287729e+000
      vertex -2.255000e+001  4.842916e+000  1.243449e+000
      vertex -2.255000e+001  4.811938e-001  1.207664e+000
    endloop
  endfacet
  facet normal -1.000000e+000  0.000000e+000  0.000000e+000
    outer loop
      vertex -2.255000e+001 -1.351535e-001  1.292955e+000
      vertex -2.255000e+001 -4.406506e-001  1.223040e+000
      vertex -2.255000e+001 -4.842916e+000  1.243449e+000
    endloop
  endfacet
  facet normal -1.000000e+000  0.000000e+000  0.000000e+000
    outer loop
      vertex -2.255000e+001 -1.351535e-001  1.292955e+000
      vertex -2.255000e+001 -4.842916e+000  1.243449e+000
      vertex -2.255000e+001 -4.648882e+000  1.840623e+000
    endloop
  endfacet
  facet normal -1.000000e+000  0.000000e+000  0.000000e+000
    outer loop
      vertex -2.255000e+001 -1.351535e-001  1.292955e+000
      vertex -2.255000e+001 -4.648882e+000  1.840623e+000
      vertex -2.255000e+001 -4.381534e+000  2.408768e+000
    endloop
  endfacet
  facet normal -1.000000e+000  0.000000e+000  0.000000e+000
    outer loop
      vertex -2.255000e+001 -1.351535e-001  1.292955e+000
      vertex -2.255000e+001 -4.381534e+000  2.408768e+000
      vertex -2.255000e+001 -4.045085e+000  2.938926e+000
    endloop
  endfacet
  facet normal -1.000000e+000  0.000000e+000  0.000000e+000
    outer loop
      vertex -2.255000e+001 -1.351535e-001  1.292955e+000
      vertex -2.255000e+001 -4.045085e+000  2.938926e+000
      vertex -2.255000e+001 -3.644843e+000  3.422735e+000
    endloop
  endfacet
  facet normal -1.000000e+000  0.000000e+000  0.000000e+000
    outer loop
      vertex -2.255000e+001 -1.351535e-001  1.292955e+000
      vertex -2.255000e+001 -3.644843e+000  3.422735e+000
      vertex -2.255000e+001 -3.187120e+000  3.852566e+000
    endloop
  endfacet
  facet normal -1.000000e+000  0.000000e+000  0.000000e+000
    outer loop
      vertex -2.255000e+001 -1.351535e-001  1.292955e+000
      vertex -2.255000e+001 -3.187120e+000  3.852566e+000
      vertex -2.255000e+001 -2.679134e+000  4.221640e+000
    endloop
  endfacet
  facet normal -1.000000e+000  0.000000e+000  0.000000e+000
    outer loop
      vertex -2.255000e+001 -1.351535e-001  1.292955e+000
      vertex -2.255000e+001 -2.679134e+000  4.221640e+000
      vertex -2.255000e+001 -2.128896e+000  4.524135e+000
    endloop
  endfacet
  facet normal -1.000000e+000  0.000000e+000  0.000000e+000
    outer loop
      vertex -2.255000e+001 -1.351535e-001  1.292955e+000
      vertex -2.255000e+001 -2.128896e+000  4.524135e+000
      vertex -2.255000e+001 -1.545085e+000  4.755282e+000
    endloop
  endfacet
  facet normal -1.000000e+000  0.000000e+000  0.000000e+000
    outer loop
      vertex -2.255000e+001 -1.351535e-001  1.292955e+000
      vertex -2.255000e+001 -1.545085e+000  4.755282e+000
      vertex -2.255000e+001 -9.369066e-001  4.911436e+000
    endloop
  endfacet
  facet normal -9.999999e-001  0.000000e+000  0.000000e+000
    outer loop
      vertex -2.255000e+001 -1.351535e-001  1.292955e+000
      vertex -2.255000e+001 -9.369066e-001  4.911436e+000
      vertex -2.255000e+001 -3.139526e-001  4.990134e+000
    endloop
  endfacet
  facet normal -1.000000e+000  0.000000e+000  -0.000000e+000
    outer loop
      vertex -2.255000e+001 -4.960574e+000  6.266662e-001
      vertex -2.255000e+001 -4.842916e+000  1.243449e+000
      vertex -2.255000e+001 -4.406506e-001  1.223040e+000
    endloop
  endfacet
  facet normal -1.000000e+000  0.000000e+000  0.000000e+000
    outer loop
      vertex -2.255000e+001 -4.960574e+000  6.266662e-001
      vertex -2.255000e+001 -4.406506e-001  1.223040e+000
      vertex -2.255000e+001 -7.205388e-001  1.082046e+000
    endloop
  endfacet
  facet normal -1.000000e+000  0.000000e+000  0.000000e+000
    outer loop
      vertex -2.255000e+001 -4.960574e+000  6.266662e-001
      vertex -2.255000e+001 -7.205388e-001  1.082046e+000
      vertex -2.255000e+001 -9.585518e-001  8.781676e-001
    endloop
  endfacet
  facet normal -1.000000e+000  0.000000e+000  0.000000e+000
    outer loop
      vertex -2.255000e+001 -4.960574e+000  6.266662e-001
      vertex -2.255000e+001 -9.585518e-001  8.781676e-001
      vertex -2.255000e+001 -1.140857e+000  6.232532e-001
    endloop
  endfacet
  facet normal -1.000000e+000  0.000000e+000  -0.000000e+000
    outer loop
      vertex -2.255000e+001 -5.000000e+000  6.123234e-016
      vertex -2.255000e+001 -4.960574e+000  6.266662e-001
      vertex -2.255000e+001 -1.140857e+000  6.232532e-001
    endloop
  endfacet
  facet normal -1.000000e+000  0.000000e+000  0.000000e+000
    outer loop
      vertex -2.255000e+001 -5.000000e+000  6.123234e-016
      vertex -2.255000e+001 -1.140857e+000  6.232532e-001
      vertex -2.255000e+001 -1.256860e+000  3.321176e-001
    endloop
  endfacet
  facet normal -1.000000e+000  0.000000e+000  0.000000e+000
    outer loop
      vertex -2.255000e+001 -5.000000e+000  6.123234e-016
      vertex -2.255000e+001 -1.256860e+000  3.321176e-001
      vertex -2.255000e+001 -1.299819e+000  2.168046e-002
    endloop
  endfacet
  facet normal -1.000000e+000  0.000000e+000  -0.000000e+000
    outer loop
      vertex -2.255000e+001 -5.000000e+000  6.123234e-016
      vertex -2.255000e+001 -1.299819e+000  2.168046e-002
      vertex -2.255000e+001 -1.267237e+000 -2.900166e-001
    endloop
  endfacet
  facet normal -1.000000e+000  -0.000000e+000  0.000000e+000
    outer loop
      vertex -2.255000e+001 -5.000000e+000  6.123234e-016
      vertex -2.255000e+001 -1.267237e+000 -2.900166e-001
      vertex -2.255000e+001 -4.960574e+000 -6.266662e-001
    endloop
  endfacet
  facet normal -1.000000e+000  -0.000000e+000  0.000000e+000
    outer loop
      vertex -2.255000e+001 -1.267237e+000 -2.900166e-001
      vertex -2.255000e+001 -1.161008e+000 -5.848590e-001
      vertex -2.255000e+001 -4.960574e+000 -6.266662e-001
    endloop
  endfacet
  facet normal -9.999999e-001  0.000000e+000  0.000000e+000
    outer loop
      vertex -2.255000e+001 -4.960574e+000 -6.266662e-001
      vertex -2.255000e+001 -1.161008e+000 -5.848590e-001
      vertex -2.255000e+001 -9.873055e-001 -8.457115e-001
    endloop
  endfacet
  facet normal -1.000000e+000  -0.000000e+000  0.000000e+000
    outer loop
      vertex -2.255000e+001 -4.960574e+000 -6.266662e-001
      vertex -2.255000e+001 -9.873055e-001 -8.457115e-001
      vertex -2.255000e+001 -4.842916e+000 -1.243449e+000
    endloop
  endfacet
  facet normal -1.000000e+000  0.000000e+000  0.000000e+000
    outer loop
      vertex -2.255000e+001  9.873055e-001  8.457115e-001
      vertex -2.255000e+001  7.562242e-001  1.057414e+000
      vertex -2.255000e+001  4.960574e+000  6.266662e-001
    endloop
  endfacet
  facet normal -1.000000e+000  0.000000e+000  0.000000e+000
    outer loop
      vertex -2.255000e+001  4.960574e+000  6.266662e-001
      vertex -2.255000e+001  7.562242e-001  1.057414e+000
      vertex -2.255000e+001  4.811938e-001  1.207664e+000
    endloop
  endfacet
  facet normal -1.000000e+000  0.000000e+000  0.000000e+000
    outer loop
      vertex -2.255000e+001  4.960574e+000  6.266662e-001
      vertex -2.255000e+001  4.811938e-001  1.207664e+000
      vertex -2.255000e+001  4.842916e+000  1.243449e+000
    endloop
  endfacet
  facet normal -9.999999e-001  -0.000000e+000  0.000000e+000
    outer loop
      vertex -2.255000e+001  9.873055e-001  8.457115e-001
      vertex -2.255000e+001  4.960574e+000  6.266662e-001
      vertex -2.255000e+001  1.161008e+000  5.848590e-001
    endloop
  endfacet
  facet normal -1.000000e+000  0.000000e+000  0.000000e+000
    outer loop
      vertex -2.255000e+001  1.161008e+000  5.848590e-001
      vertex -2.255000e+001  4.960574e+000  6.266662e-001
      vertex -2.255000e+001  5.000000e+000  0.000000e+000
    endloop
  endfacet
  facet normal -1.000000e+000  0.000000e+000  0.000000e+000
    outer loop
      vertex -2.255000e+001  1.161008e+000  5.848590e-001
      vertex -2.255000e+001  5.000000e+000  0.000000e+000
      vertex -2.255000e+001  1.267237e+000  2.900166e-001
    endloop
  endfacet
  facet normal -1.000000e+000  0.000000e+000  -0.000000e+000
    outer loop
      vertex -2.255000e+001  1.140857e+000 -6.232532e-001
      vertex -2.255000e+001  1.256860e+000 -3.321176e-001
      vertex -2.255000e+001  4.960574e+000 -6.266662e-001
    endloop
  endfacet
  facet normal -1.000000e+000  0.000000e+000  0.000000e+000
    outer loop
      vertex -2.255000e+001  4.960574e+000 -6.266662e-001
      vertex -2.255000e+001  1.256860e+000 -3.321176e-001
      vertex -2.255000e+001  1.299819e+000 -2.168046e-002
    endloop
  endfacet
  facet normal -1.000000e+000  0.000000e+000  0.000000e+000
    outer loop
      vertex -2.255000e+001  4.960574e+000 -6.266662e-001
      vertex -2.255000e+001  1.299819e+000 -2.168046e-002
      vertex -2.255000e+001  5.000000e+000  0.000000e+000
    endloop
  endfacet
  facet normal -1.000000e+000  0.000000e+000  -0.000000e+000
    outer loop
      vertex -2.255000e+001  7.205388e-001 -1.082046e+000
      vertex -2.255000e+001  9.585518e-001 -8.781676e-001
      vertex -2.255000e+001  4.842916e+000 -1.243449e+000
    endloop
  endfacet
  facet normal -1.000000e+000  0.000000e+000  0.000000e+000
    outer loop
      vertex -2.255000e+001  4.842916e+000 -1.243449e+000
      vertex -2.255000e+001  9.585518e-001 -8.781676e-001
      vertex -2.255000e+001  1.140857e+000 -6.232532e-001
    endloop
  endfacet
  facet normal -9.999999e-001  0.000000e+000  0.000000e+000
    outer loop
      vertex -2.255000e+001  4.842916e+000 -1.243449e+000
      vertex -2.255000e+001  1.140857e+000 -6.232532e-001
      vertex -2.255000e+001  4.960574e+000 -6.266662e-001
    endloop
  endfacet
  facet normal  1.000000e+000  0.000000e+000  0.000000e+000
    outer loop
      vertex  2.255000e+001 -9.873055e-001 -8.457115e-001
      vertex  2.255000e+001 -4.842916e+000 -1.243449e+000
      vertex  2.255000e+001 -7.562242e-001 -1.057414e+000
    endloop
  endfacet
  facet normal  1.000000e+000  0.000000e+000  0.000000e+000
    outer loop
      vertex  2.255000e+001 -4.842916e+000 -1.243449e+000
      vertex  2.255000e+001 -4.811938e-001 -1.207664e+000
      vertex  2.255000e+001 -7.562242e-001 -1.057414e+000
    endloop
  endfacet
  facet normal  1.000000e+000  0.000000e+000  0.000000e+000
    outer loop
      vertex  2.255000e+001  5.000000e+000  0.000000e+000
      vertex  2.255000e+001  1.267237e+000  2.900166e-001
      vertex  2.255000e+001  1.299819e+000 -2.168046e-002
    endloop
  endfacet
  facet normal  9.999999e-001  0.000000e+000  0.000000e+000
    outer loop
      vertex  2.255000e+001  4.842916e+000 -1.243449e+000
      vertex  2.255000e+001  7.205388e-001 -1.082046e+000
      vertex  2.255000e+001  4.406506e-001 -1.223040e+000
    endloop
  endfacet
  facet normal  1.000000e+000  -0.000000e+000  -0.000000e+000
    outer loop
      vertex  2.255000e+001 -4.648882e+000 -1.840623e+000
      vertex  2.255000e+001 -4.381534e+000 -2.408768e+000
      vertex  2.255000e+001 -4.045085e+000 -2.938926e+000
    endloop
  endfacet
  facet normal  1.000000e+000  -0.000000e+000  -0.000000e+000
    outer loop
      vertex  2.255000e+001 -4.648882e+000 -1.840623e+000
      vertex  2.255000e+001 -4.045085e+000 -2.938926e+000
      vertex  2.255000e+001 -3.644843e+000 -3.422735e+000
    endloop
  endfacet
  facet normal  1.000000e+000  -0.000000e+000  -0.000000e+000
    outer loop
      vertex  2.255000e+001 -4.648882e+000 -1.840623e+000
      vertex  2.255000e+001 -3.644843e+000 -3.422735e+000
      vertex  2.255000e+001 -3.187120e+000 -3.852566e+000
    endloop
  endfacet
  facet normal  9.999999e-001  -0.000000e+000  -0.000000e+000
    outer loop
      vertex  2.255000e+001 -4.648882e+000 -1.840623e+000
      vertex  2.255000e+001 -3.187120e+000 -3.852566e+000
      vertex  2.255000e+001 -2.679134e+000 -4.221640e+000
    endloop
  endfacet
  facet normal  1.000000e+000  -0.000000e+000  -0.000000e+000
    outer loop
      vertex  2.255000e+001 -4.648882e+000 -1.840623e+000
      vertex  2.255000e+001 -2.679134e+000 -4.221640e+000
      vertex  2.255000e+001 -2.128896e+000 -4.524135e+000
    endloop
  endfacet
  facet normal  1.000000e+000  -0.000000e+000  -0.000000e+000
    outer loop
      vertex  2.255000e+001 -4.648882e+000 -1.840623e+000
      vertex  2.255000e+001 -2.128896e+000 -4.524135e+000
      vertex  2.255000e+001 -1.545085e+000 -4.755282e+000
    endloop
  endfacet
  facet normal  1.000000e+000  -0.000000e+000  -0.000000e+000
    outer loop
      vertex  2.255000e+001 -4.648882e+000 -1.840623e+000
      vertex  2.255000e+001 -1.545085e+000 -4.755282e+000
      vertex  2.255000e+001 -9.369066e-001 -4.911436e+000
    endloop
  endfacet
  facet normal  9.999999e-001  -0.000000e+000  -0.000000e+000
    outer loop
      vertex  2.255000e+001 -4.648882e+000 -1.840623e+000
      vertex  2.255000e+001 -9.369066e-001 -4.911436e+000
      vertex  2.255000e+001 -3.139526e-001 -4.990134e+000
    endloop
  endfacet
  facet normal  1.000000e+000  0.000000e+000  -0.000000e+000
    outer loop
      vertex  2.255000e+001 -4.648882e+000 -1.840623e+000
      vertex  2.255000e+001 -3.139526e-001 -4.990134e+000
      vertex  2.255000e+001 -1.781983e-001 -1.287729e+000
    endloop
  endfacet
  facet normal  1.000000e+000  0.000000e+000  0.000000e+000
    outer loop
      vertex  2.255000e+001 -4.648882e+000 -1.840623e+000
      vertex  2.255000e+001 -1.781983e-001 -1.287729e+000
      vertex  2.255000e+001 -4.811938e-001 -1.207664e+000
    endloop
  endfacet
  facet normal  1.000000e+000  0.000000e+000  0.000000e+000
    outer loop
      vertex  2.255000e+001 -4.648882e+000 -1.840623e+000
      vertex  2.255000e+001 -4.811938e-001 -1.207664e+000
      vertex  2.255000e+001 -4.842916e+000 -1.243449e+000
    endloop
  endfacet
  facet normal  1.000000e+000  0.000000e+000  0.000000e+000
    outer loop
      vertex  2.255000e+001  1.351535e-001 -1.292955e+000
      vertex  2.255000e+001 -1.781983e-001 -1.287729e+000
      vertex  2.255000e+001 -3.139526e-001 -4.990134e+000
    endloop
  endfacet
  facet normal  1.000000e+000  0.000000e+000  0.000000e+000
    outer loop
      vertex  2.255000e+001  1.351535e-001 -1.292955e+000
      vertex  2.255000e+001 -3.139526e-001 -4.990134e+000
      vertex  2.255000e+001  3.139526e-001 -4.990134e+000
    endloop
  endfacet
  facet normal  9.999999e-001  0.000000e+000  -0.000000e+000
    outer loop
      vertex  2.255000e+001  1.351535e-001 -1.292955e+000
      vertex  2.255000e+001  3.139526e-001 -4.990134e+000
      vertex  2.255000e+001  9.369066e-001 -4.911436e+000
    endloop
  endfacet
  facet normal  1.000000e+000  0.000000e+000  -0.000000e+000
    outer loop
      vertex  2.255000e+001  1.351535e-001 -1.292955e+000
      vertex  2.255000e+001  9.369066e-001 -4.911436e+000
      vertex  2.255000e+001  1.545085e+000 -4.755282e+000
    endloop
  endfacet
  facet normal  1.000000e+000  0.000000e+000  -0.000000e+000
    outer loop
      vertex  2.255000e+001  1.351535e-001 -1.292955e+000
      vertex  2.255000e+001  1.545085e+000 -4.755282e+000
      vertex  2.255000e+001  2.128896e+000 -4.524135e+000
    endloop
  endfacet
  facet normal  1.000000e+000  0.000000e+000  -0.000000e+000
    outer loop
      vertex  2.255000e+001  1.351535e-001 -1.292955e+000
      vertex  2.255000e+001  2.128896e+000 -4.524135e+000
      vertex  2.255000e+001  2.679134e+000 -4.221640e+000
    endloop
  endfacet
  facet normal  1.000000e+000  0.000000e+000  -0.000000e+000
    outer loop
      vertex  2.255000e+001  1.351535e-001 -1.292955e+000
      vertex  2.255000e+001  2.679134e+000 -4.221640e+000
      vertex  2.255000e+001  3.187120e+000 -3.852566e+000
    endloop
  endfacet
  facet normal  1.000000e+000  0.000000e+000  -0.000000e+000
    outer loop
      vertex  2.255000e+001  1.351535e-001 -1.292955e+000
      vertex  2.255000e+001  3.187120e+000 -3.852566e+000
      vertex  2.255000e+001  3.644843e+000 -3.422735e+000
    endloop
  endfacet
  facet normal  1.000000e+000  0.000000e+000  -0.000000e+000
    outer loop
      vertex  2.255000e+001  1.351535e-001 -1.292955e+000
      vertex  2.255000e+001  3.644843e+000 -3.422735e+000
      vertex  2.255000e+001  4.045085e+000 -2.938926e+000
    endloop
  endfacet
  facet normal  1.000000e+000  0.000000e+000  -0.000000e+000
    outer loop
      vertex  2.255000e+001  1.351535e-001 -1.292955e+000
      vertex  2.255000e+001  4.045085e+000 -2.938926e+000
      vertex  2.255000e+001  4.381534e+000 -2.408768e+000
    endloop
  endfacet
  facet normal  1.000000e+000  0.000000e+000  -0.000000e+000
    outer loop
      vertex  2.255000e+001  1.351535e-001 -1.292955e+000
      vertex  2.255000e+001  4.381534e+000 -2.408768e+000
      vertex  2.255000e+001  4.648882e+000 -1.840623e+000
    endloop
  endfacet
  facet normal  1.000000e+000  0.000000e+000  -0.000000e+000
    outer loop
      vertex  2.255000e+001  1.351535e-001 -1.292955e+000
      vertex  2.255000e+001  4.648882e+000 -1.840623e+000
      vertex  2.255000e+001  4.842916e+000 -1.243449e+000
    endloop
  endfacet
  facet normal  1.000000e+000  0.000000e+000  0.000000e+000
    outer loop
      vertex  2.255000e+001  1.351535e-001 -1.292955e+000
      vertex  2.255000e+001  4.842916e+000 -1.243449e+000
      vertex  2.255000e+001  4.406506e-001 -1.223040e+000
    endloop
  endfacet
  facet normal  9.999999e-001  0.000000e+000  -0.000000e+000
    outer loop
      vertex  2.255000e+001  1.781983e-001  1.287729e+000
      vertex  2.255000e+001  4.811938e-001  1.207664e+000
      vertex  2.255000e+001  4.842916e+000  1.243449e+000
    endloop
  endfacet
  facet normal  1.000000e+000  0.000000e+000  0.000000e+000
    outer loop
      vertex  2.255000e+001  1.781983e-001  1.287729e+000
      vertex  2.255000e+001  4.842916e+000  1.243449e+000
      vertex  2.255000e+001  4.648882e+000  1.840623e+000
    endloop
  endfacet
  facet normal  1.000000e+000  0.000000e+000  0.000000e+000
    outer loop
      vertex  2.255000e+001  1.781983e-001  1.287729e+000
      vertex  2.255000e+001  4.648882e+000  1.840623e+000
      vertex  2.255000e+001  4.381534e+000  2.408768e+000
    endloop
  endfacet
  facet normal  1.000000e+000  0.000000e+000  0.000000e+000
    outer loop
      vertex  2.255000e+001  1.781983e-001  1.287729e+000
      vertex  2.255000e+001  4.381534e+000  2.408768e+000
      vertex  2.255000e+001  4.045085e+000  2.938926e+000
    endloop
  endfacet
  facet normal  1.000000e+000  0.000000e+000  0.000000e+000
    outer loop
      vertex  2.255000e+001  1.781983e-001  1.287729e+000
      vertex  2.255000e+001  4.045085e+000  2.938926e+000
      vertex  2.255000e+001  3.644843e+000  3.422735e+000
    endloop
  endfacet
  facet normal  1.000000e+000  0.000000e+000  0.000000e+000
    outer loop
      vertex  2.255000e+001  1.781983e-001  1.287729e+000
      vertex  2.255000e+001  3.644843e+000  3.422735e+000
      vertex  2.255000e+001  3.187120e+000  3.852566e+000
    endloop
  endfacet
  facet normal  1.000000e+000  0.000000e+000  0.000000e+000
    outer loop
      vertex  2.255000e+001  1.781983e-001  1.287729e+000
      vertex  2.255000e+001  3.187120e+000  3.852566e+000
      vertex  2.255000e+001  2.679134e+000  4.221640e+000
    endloop
  endfacet
  facet normal  1.000000e+000  0.000000e+000  0.000000e+000
    outer loop
      vertex  2.255000e+001  1.781983e-001  1.287729e+000
      vertex  2.255000e+001  2.679134e+000  4.221640e+000
      vertex  2.255000e+001  2.128896e+000  4.524135e+000
    endloop
  endfacet
  facet normal  1.000000e+000  0.000000e+000  0.000000e+000
    outer loop
      vertex  2.255000e+001  1.781983e-001  1.287729e+000
      vertex  2.255000e+001  2.128896e+000  4.524135e+000
      vertex  2.255000e+001  1.545085e+000  4.755282e+000
    endloop
  endfacet
  facet normal  1.000000e+000  0.000000e+000  0.000000e+000
    outer loop
      vertex  2.255000e+001  1.781983e-001  1.287729e+000
      vertex  2.255000e+001  1.545085e+000  4.755282e+000
      vertex  2.255000e+001  9.369066e-001  4.911436e+000
    endloop
  endfacet
  facet normal  1.000000e+000  0.000000e+000  0.000000e+000
    outer loop
      vertex  2.255000e+001  1.781983e-001  1.287729e+000
      vertex  2.255000e+001  9.369066e-001  4.911436e+000
      vertex  2.255000e+001  3.139526e-001  4.990134e+000
    endloop
  endfacet
  facet normal  1.000000e+000  0.000000e+000  0.000000e+000
    outer loop
      vertex  2.255000e+001  1.781983e-001  1.287729e+000
      vertex  2.255000e+001  3.139526e-001  4.990134e+000
      vertex  2.255000e+001 -3.139526e-001  4.990134e+000
    endloop
  endfacet
  facet normal  1.000000e+000  0.000000e+000  0.000000e+000
    outer loop
      vertex  2.255000e+001  1.781983e-001  1.287729e+000
      vertex  2.255000e+001 -3.139526e-001  4.990134e+000
      vertex  2.255000e+001 -1.351535e-001  1.292955e+000
    endloop
  endfacet
  facet normal  9.999999e-001  0.000000e+000  0.000000e+000
    outer loop
      vertex  2.255000e+001 -1.351535e-001  1.292955e+000
      vertex  2.255000e+001 -3.139526e-001  4.990134e+000
      vertex  2.255000e+001 -9.369066e-001  4.911436e+000
    endloop
  endfacet
  facet normal  1.000000e+000  0.000000e+000  0.000000e+000
    outer loop
      vertex  2.255000e+001 -1.351535e-001  1.292955e+000
      vertex  2.255000e+001 -9.369066e-001  4.911436e+000
      vertex  2.255000e+001 -1.545085e+000  4.755282e+000
    endloop
  endfacet
  facet normal  1.000000e+000  0.000000e+000  0.000000e+000
    outer loop
      vertex  2.255000e+001 -1.351535e-001  1.292955e+000
      vertex  2.255000e+001 -1.545085e+000  4.755282e+000
      vertex  2.255000e+001 -2.128896e+000  4.524135e+000
    endloop
  endfacet
  facet normal  1.000000e+000  0.000000e+000  0.000000e+000
    outer loop
      vertex  2.255000e+001 -1.351535e-001  1.292955e+000
      vertex  2.255000e+001 -2.128896e+000  4.524135e+000
      vertex  2.255000e+001 -2.679134e+000  4.221640e+000
    endloop
  endfacet
  facet normal  1.000000e+000  0.000000e+000  0.000000e+000
    outer loop
      vertex  2.255000e+001 -1.351535e-001  1.292955e+000
      vertex  2.255000e+001 -2.679134e+000  4.221640e+000
      vertex  2.255000e+001 -3.187120e+000  3.852566e+000
    endloop
  endfacet
  facet normal  1.000000e+000  0.000000e+000  0.000000e+000
    outer loop
      vertex  2.255000e+001 -1.351535e-001  1.292955e+000
      vertex  2.255000e+001 -3.187120e+000  3.852566e+000
      vertex  2.255000e+001 -3.644843e+000  3.422735e+000
    endloop
  endfacet
  facet normal  1.000000e+000  0.000000e+000  0.000000e+000
    outer loop
      vertex  2.255000e+001 -1.351535e-001  1.292955e+000
      vertex  2.255000e+001 -3.644843e+000  3.422735e+000
      vertex  2.255000e+001 -4.045085e+000  2.938926e+000
    endloop
  endfacet
  facet normal  1.000000e+000  0.000000e+000  0.000000e+000
    outer loop
      vertex  2.255000e+001 -1.351535e-001  1.292955e+000
      vertex  2.255000e+001 -4.045085e+000  2.938926e+000
      vertex  2.255000e+001 -4.381534e+000  2.408768e+000
    endloop
  endfacet
  facet normal  1.000000e+000  0.000000e+000  0.000000e+000
    outer loop
      vertex  2.255000e+001 -1.351535e-001  1.292955e+000
      vertex  2.255000e+001 -4.381534e+000  2.408768e+000
      vertex  2.255000e+001 -4.648882e+000  1.840623e+000
    endloop
  endfacet
  facet normal  1.000000e+000  0.000000e+000  0.000000e+000
    outer loop
      vertex  2.255000e+001 -1.351535e-001  1.292955e+000
      vertex  2.255000e+001 -4.648882e+000  1.840623e+000
      vertex  2.255000e+001 -4.842916e+000  1.243449e+000
    endloop
  endfacet
  facet normal  1.000000e+000  -0.000000e+000  0.000000e+000
    outer loop
      vertex  2.255000e+001 -1.351535e-001  1.292955e+000
      vertex  2.255000e+001 -4.842916e+000  1.243449e+000
      vertex  2.255000e+001 -4.406506e-001  1.223040e+000
    endloop
  endfacet
  facet normal  1.000000e+000  0.000000e+000  -0.000000e+000
    outer loop
      vertex  2.255000e+001 -4.960574e+000  6.266662e-001
      vertex  2.255000e+001 -1.140857e+000  6.232532e-001
      vertex  2.255000e+001 -9.585518e-001  8.781676e-001
    endloop
  endfacet
  facet normal  1.000000e+000  0.000000e+000  -0.000000e+000
    outer loop
      vertex  2.255000e+001 -4.960574e+000  6.266662e-001
      vertex  2.255000e+001 -9.585518e-001  8.781676e-001
      vertex  2.255000e+001 -7.205388e-001  1.082046e+000
    endloop
  endfacet
  facet normal  1.000000e+000  0.000000e+000  -0.000000e+000
    outer loop
      vertex  2.255000e+001 -4.960574e+000  6.266662e-001
      vertex  2.255000e+001 -7.205388e-001  1.082046e+000
      vertex  2.255000e+001 -4.406506e-001  1.223040e+000
    endloop
  endfacet
  facet normal  1.000000e+000  0.000000e+000  0.000000e+000
    outer loop
      vertex  2.255000e+001 -4.960574e+000  6.266662e-001
      vertex  2.255000e+001 -4.406506e-001  1.223040e+000
      vertex  2.255000e+001 -4.842916e+000  1.243449e+000
    endloop
  endfacet
  facet normal  1.000000e+000  0.000000e+000  -0.000000e+000
    outer loop
      vertex  2.255000e+001 -5.000000e+000  6.123234e-016
      vertex  2.255000e+001 -4.960574e+000 -6.266662e-001
      vertex  2.255000e+001 -1.267237e+000 -2.900166e-001
    endloop
  endfacet
  facet normal  1.000000e+000  0.000000e+000  0.000000e+000
    outer loop
      vertex  2.255000e+001 -5.000000e+000  6.123234e-016
      vertex  2.255000e+001 -1.267237e+000 -2.900166e-001
      vertex  2.255000e+001 -1.299819e+000  2.168046e-002
    endloop
  endfacet
  facet normal  1.000000e+000  0.000000e+000  -0.000000e+000
    outer loop
      vertex  2.255000e+001 -5.000000e+000  6.123234e-016
      vertex  2.255000e+001 -1.299819e+000  2.168046e-002
      vertex  2.255000e+001 -1.256860e+000  3.321176e-001
    endloop
  endfacet
  facet normal  1.000000e+000  0.000000e+000  -0.000000e+000
    outer loop
      vertex  2.255000e+001 -5.000000e+000  6.123234e-016
      vertex  2.255000e+001 -1.256860e+000  3.321176e-001
      vertex  2.255000e+001 -1.140857e+000  6.232532e-001
    endloop
  endfacet
  facet normal  1.000000e+000  0.000000e+000  0.000000e+000
    outer loop
      vertex  2.255000e+001 -5.000000e+000  6.123234e-016
      vertex  2.255000e+001 -1.140857e+000  6.232532e-001
      vertex  2.255000e+001 -4.960574e+000  6.266662e-001
    endloop
  endfacet
  facet normal  1.000000e+000  0.000000e+000  0.000000e+000
    outer loop
      vertex  2.255000e+001 -4.842916e+000 -1.243449e+000
      vertex  2.255000e+001 -9.873055e-001 -8.457115e-001
      vertex  2.255000e+001 -4.960574e+000 -6.266662e-001
    endloop
  endfacet
  facet normal  9.999999e-001  -0.000000e+000  0.000000e+000
    outer loop
      vertex  2.255000e+001 -4.960574e+000 -6.266662e-001
      vertex  2.255000e+001 -9.873055e-001 -8.457115e-001
      vertex  2.255000e+001 -1.161008e+000 -5.848590e-001
    endloop
  endfacet
  facet normal  1.000000e+000  0.000000e+000  0.000000e+000
    outer loop
      vertex  2.255000e+001 -4.960574e+000 -6.266662e-001
      vertex  2.255000e+001 -1.161008e+000 -5.848590e-001
      vertex  2.255000e+001 -1.267237e+000 -2.900166e-001
    endloop
  endfacet
  facet normal  1.000000e+000  -0.000000e+000  0.000000e+000
    outer loop
      vertex  2.255000e+001  4.842916e+000  1.243449e+000
      vertex  2.255000e+001  4.811938e-001  1.207664e+000
      vertex  2.255000e+001  4.960574e+000  6.266662e-001
    endloop
  endfacet
  facet normal  1.000000e+000  0.000000e+000  0.000000e+000
    outer loop
      vertex  2.255000e+001  4.960574e+000  6.266662e-001
      vertex  2.255000e+001  4.811938e-001  1.207664e+000
      vertex  2.255000e+001  7.562242e-001  1.057414e+000
    endloop
  endfacet
  facet normal  1.000000e+000  0.000000e+000  0.000000e+000
    outer loop
      vertex  2.255000e+001  4.960574e+000  6.266662e-001
      vertex  2.255000e+001  7.562242e-001  1.057414e+000
      vertex  2.255000e+001  9.873055e-001  8.457115e-001
    endloop
  endfacet
  facet normal  1.000000e+000  0.000000e+000  0.000000e+000
    outer loop
      vertex  2.255000e+001  1.267237e+000  2.900166e-001
      vertex  2.255000e+001  5.000000e+000  0.000000e+000
      vertex  2.255000e+001  1.161008e+000  5.848590e-001
    endloop
  endfacet
  facet normal  1.000000e+000  -0.000000e+000  0.000000e+000
    outer loop
      vertex  2.255000e+001  1.161008e+000  5.848590e-001
      vertex  2.255000e+001  5.000000e+000  0.000000e+000
      vertex  2.255000e+001  4.960574e+000  6.266662e-001
    endloop
  endfacet
  facet normal  9.999999e-001  0.000000e+000  0.000000e+000
    outer loop
      vertex  2.255000e+001  1.161008e+000  5.848590e-001
      vertex  2.255000e+001  4.960574e+000  6.266662e-001
      vertex  2.255000e+001  9.873055e-001  8.457115e-001
    endloop
  endfacet
  facet normal  1.000000e+000  -0.000000e+000  0.000000e+000
    outer loop
      vertex  2.255000e+001  5.000000e+000  0.000000e+000
      vertex  2.255000e+001  1.299819e+000 -2.168046e-002
      vertex  2.255000e+001  4.960574e+000 -6.266662e-001
    endloop
  endfacet
  facet normal  1.000000e+000  0.000000e+000  0.000000e+000
    outer loop
      vertex  2.255000e+001  4.960574e+000 -6.266662e-001
      vertex  2.255000e+001  1.299819e+000 -2.168046e-002
      vertex  2.255000e+001  1.256860e+000 -3.321176e-001
    endloop
  endfacet
  facet normal  1.000000e+000  0.000000e+000  0.000000e+000
    outer loop
      vertex  2.255000e+001  4.960574e+000 -6.266662e-001
      vertex  2.255000e+001  1.256860e+000 -3.321176e-001
      vertex  2.255000e+001  1.140857e+000 -6.232532e-001
    endloop
  endfacet
  facet normal  9.999999e-001  0.000000e+000  0.000000e+000
    outer loop
      vertex  2.255000e+001  4.960574e+000 -6.266662e-001
      vertex  2.255000e+001  1.140857e+000 -6.232532e-001
      vertex  2.255000e+001  4.842916e+000 -1.243449e+000
    endloop
  endfacet
  facet normal  1.000000e+000  0.000000e+000  0.000000e+000
    outer loop
      vertex  2.255000e+001  4.842916e+000 -1.243449e+000
      vertex  2.255000e+001  1.140857e+000 -6.232532e-001
      vertex  2.255000e+001  9.585518e-001 -8.781676e-001
    endloop
  endfacet
  facet normal  1.000000e+000  0.000000e+000  0.000000e+000
    outer loop
      vertex  2.255000e+001  4.842916e+000 -1.243449e+000
      vertex  2.255000e+001  9.585518e-001 -8.781676e-001
      vertex  2.255000e+001  7.205388e-001 -1.082046e+000
    endloop
  endfacet
  facet normal  -0.000000e+000  6.755134e-001  7.373476e-001
    outer loop
      vertex  2.255000e+001 -7.562242e-001 -1.057414e+000
      vertex -2.255000e+001 -9.873055e-001 -8.457115e-001
      vertex  2.255000e+001 -9.873055e-001 -8.457115e-001
    endloop
  endfacet
  facet normal  0.000000e+000  8.323433e-001  5.542605e-001
    outer loop
      vertex  2.255000e+001 -9.873055e-001 -8.457115e-001
      vertex -2.255000e+001 -9.873055e-001 -8.457115e-001
      vertex -2.255000e+001 -1.161008e+000 -5.848590e-001
    endloop
  endfacet
  facet normal  -0.000000e+000  8.323433e-001  5.542605e-001
    outer loop
      vertex  2.255000e+001 -9.873055e-001 -8.457115e-001
      vertex -2.255000e+001 -1.161008e+000 -5.848590e-001
      vertex  2.255000e+001 -1.161008e+000 -5.848590e-001
    endloop
  endfacet
  facet normal  0.000000e+000  9.408000e-001  3.389621e-001
    outer loop
      vertex  2.255000e+001 -1.161008e+000 -5.848590e-001
      vertex -2.255000e+001 -1.161008e+000 -5.848590e-001
      vertex -2.255000e+001 -1.267237e+000 -2.900166e-001
    endloop
  endfacet
  facet normal  -0.000000e+000  9.408000e-001  3.389621e-001
    outer loop
      vertex  2.255000e+001 -1.161008e+000 -5.848590e-001
      vertex -2.255000e+001 -1.267237e+000 -2.900166e-001
      vertex  2.255000e+001 -1.267237e+000 -2.900166e-001
    endloop
  endfacet
  facet normal  0.000000e+000  9.945810e-001  1.039643e-001
    outer loop
      vertex  2.255000e+001 -1.267237e+000 -2.900166e-001
      vertex -2.255000e+001 -1.267237e+000 -2.900166e-001
      vertex -2.255000e+001 -1.299819e+000  2.168046e-002
    endloop
  endfacet
  facet normal  -0.000000e+000  9.945810e-001  1.039643e-001
    outer loop
      vertex  2.255000e+001 -1.267237e+000 -2.900166e-001
      vertex -2.255000e+001 -1.299819e+000  2.168046e-002
      vertex  2.255000e+001 -1.299819e+000  2.168046e-002
    endloop
  endfacet
  facet normal  0.000000e+000  9.905606e-001 -1.370756e-001
    outer loop
      vertex  2.255000e+001 -1.299819e+000  2.168046e-002
      vertex -2.255000e+001 -1.299819e+000  2.168046e-002
      vertex -2.255000e+001 -1.256860e+000  3.321176e-001
    endloop
  endfacet
  facet normal  0.000000e+000  9.905606e-001 -1.370756e-001
    outer loop
      vertex  2.255000e+001 -1.299819e+000  2.168046e-002
      vertex -2.255000e+001 -1.256860e+000  3.321176e-001
      vertex  2.255000e+001 -1.256860e+000  3.321176e-001
    endloop
  endfacet
  facet normal  0.000000e+000  9.289723e-001 -3.701491e-001
    outer loop
      vertex  2.255000e+001 -1.256860e+000  3.321176e-001
      vertex -2.255000e+001 -1.256860e+000  3.321176e-001
      vertex -2.255000e+001 -1.140857e+000  6.232532e-001
    endloop
  endfacet
  facet normal  0.000000e+000  9.289723e-001 -3.701491e-001
    outer loop
      vertex  2.255000e+001 -1.256860e+000  3.321176e-001
      vertex -2.255000e+001 -1.140857e+000  6.232532e-001
      vertex  2.255000e+001 -1.140857e+000  6.232532e-001
    endloop
  endfacet
  facet normal  0.000000e+000  6.755134e-001  7.373476e-001
    outer loop
      vertex -2.255000e+001 -9.873055e-001 -8.457115e-001
      vertex  2.255000e+001 -7.562242e-001 -1.057414e+000
      vertex -2.255000e+001 -7.562242e-001 -1.057414e+000
    endloop
  endfacet
  facet normal  -0.000000e+000  4.794255e-001  8.775826e-001
    outer loop
      vertex -2.255000e+001 -7.562242e-001 -1.057414e+000
      vertex  2.255000e+001 -7.562242e-001 -1.057414e+000
      vertex  2.255000e+001 -4.811938e-001 -1.207664e+000
    endloop
  endfacet
  facet normal  0.000000e+000  4.794255e-001  8.775826e-001
    outer loop
      vertex -2.255000e+001 -7.562242e-001 -1.057414e+000
      vertex  2.255000e+001 -4.811938e-001 -1.207664e+000
      vertex -2.255000e+001 -4.811938e-001 -1.207664e+000
    endloop
  endfacet
  facet normal  -0.000000e+000  2.554753e-001  9.668155e-001
    outer loop
      vertex -2.255000e+001 -4.811938e-001 -1.207664e+000
      vertex  2.255000e+001 -4.811938e-001 -1.207664e+000
      vertex  2.255000e+001 -1.781983e-001 -1.287729e+000
    endloop
  endfacet
  facet normal  0.000000e+000  2.554753e-001  9.668155e-001
    outer loop
      vertex -2.255000e+001 -4.811938e-001 -1.207664e+000
      vertex  2.255000e+001 -1.781983e-001 -1.287729e+000
      vertex -2.255000e+001 -1.781983e-001 -1.287729e+000
    endloop
  endfacet
  facet normal  -0.000000e+000  1.667738e-002  9.998609e-001
    outer loop
      vertex -2.255000e+001 -1.781983e-001 -1.287729e+000
      vertex  2.255000e+001 -1.781983e-001 -1.287729e+000
      vertex  2.255000e+001  1.351535e-001 -1.292955e+000
    endloop
  endfacet
  facet normal  0.000000e+000  1.667738e-002  9.998609e-001
    outer loop
      vertex -2.255000e+001 -1.781983e-001 -1.287729e+000
      vertex  2.255000e+001  1.351535e-001 -1.292955e+000
      vertex -2.255000e+001  1.351535e-001 -1.292955e+000
    endloop
  endfacet
  facet normal  0.000000e+000 -2.230898e-001  9.747979e-001
    outer loop
      vertex -2.255000e+001  1.351535e-001 -1.292955e+000
      vertex  2.255000e+001  1.351535e-001 -1.292955e+000
      vertex  2.255000e+001  4.406506e-001 -1.223040e+000
    endloop
  endfacet
  facet normal  0.000000e+000 -2.230898e-001  9.747979e-001
    outer loop
      vertex -2.255000e+001  1.351535e-001 -1.292955e+000
      vertex  2.255000e+001  4.406506e-001 -1.223040e+000
      vertex -2.255000e+001  4.406506e-001 -1.223040e+000
    endloop
  endfacet
  facet normal  0.000000e+000 -4.498916e-001  8.930832e-001
    outer loop
      vertex -2.255000e+001  4.406506e-001 -1.223040e+000
      vertex  2.255000e+001  4.406506e-001 -1.223040e+000
      vertex  2.255000e+001  7.205388e-001 -1.082046e+000
    endloop
  endfacet
  facet normal  0.000000e+000 -4.498916e-001  8.930832e-001
    outer loop
      vertex -2.255000e+001  4.406506e-001 -1.223040e+000
      vertex  2.255000e+001  7.205388e-001 -1.082046e+000
      vertex -2.255000e+001  7.205388e-001 -1.082046e+000
    endloop
  endfacet
  facet normal  0.000000e+000 -6.505474e-001  7.594658e-001
    outer loop
      vertex -2.255000e+001  7.205388e-001 -1.082046e+000
      vertex  2.255000e+001  7.205388e-001 -1.082046e+000
      vertex  2.255000e+001  9.585518e-001 -8.781676e-001
    endloop
  endfacet
  facet normal  0.000000e+000 -6.505474e-001  7.594658e-001
    outer loop
      vertex -2.255000e+001  7.205388e-001 -1.082046e+000
      vertex  2.255000e+001  9.585518e-001 -8.781676e-001
      vertex -2.255000e+001  9.585518e-001 -8.781676e-001
    endloop
  endfacet
  facet normal  0.000000e+000 -8.133956e-001  5.817109e-001
    outer loop
      vertex -2.255000e+001  9.585518e-001 -8.781676e-001
      vertex  2.255000e+001  9.585518e-001 -8.781676e-001
      vertex  2.255000e+001  1.140857e+000 -6.232532e-001
    endloop
  endfacet
  facet normal  0.000000e+000 -8.133956e-001  5.817109e-001
    outer loop
      vertex -2.255000e+001  9.585518e-001 -8.781676e-001
      vertex  2.255000e+001  1.140857e+000 -6.232532e-001
      vertex -2.255000e+001  1.140857e+000 -6.232532e-001
    endloop
  endfacet
  facet normal  0.000000e+000 -9.980267e-001  6.279025e-002
    outer loop
      vertex -2.255000e+001 -5.000000e+000  6.123234e-016
      vertex  2.255000e+001 -5.000000e+000  6.123234e-016
      vertex -2.255000e+001 -4.960574e+000  6.266662e-001
    endloop
  endfacet
  facet normal  0.000000e+000 -9.980267e-001  6.279025e-002
    outer loop
      vertex -2.255000e+001 -4.960574e+000  6.266662e-001
      vertex  2.255000e+001 -5.000000e+000  6.123234e-016
      vertex  2.255000e+001 -4.960574e+000  6.266662e-001
    endloop
  endfacet
  facet normal  0.000000e+000 -9.822872e-001  1.873812e-001
    outer loop
      vertex -2.255000e+001 -4.960574e+000  6.266662e-001
      vertex  2.255000e+001 -4.960574e+000  6.266662e-001
      vertex -2.255000e+001 -4.842916e+000  1.243449e+000
    endloop
  endfacet
  facet normal  0.000000e+000 -9.822872e-001  1.873812e-001
    outer loop
      vertex -2.255000e+001 -4.842916e+000  1.243449e+000
      vertex  2.255000e+001 -4.960574e+000  6.266662e-001
      vertex  2.255000e+001 -4.842916e+000  1.243449e+000
    endloop
  endfacet
  facet normal  0.000000e+000 -9.510564e-001  3.090174e-001
    outer loop
      vertex -2.255000e+001 -4.842916e+000  1.243449e+000
      vertex  2.255000e+001 -4.842916e+000  1.243449e+000
      vertex -2.255000e+001 -4.648882e+000  1.840623e+000
    endloop
  endfacet
  facet normal  0.000000e+000 -9.510564e-001  3.090174e-001
    outer loop
      vertex -2.255000e+001 -4.648882e+000  1.840623e+000
      vertex  2.255000e+001 -4.842916e+000  1.243449e+000
      vertex  2.255000e+001 -4.648882e+000  1.840623e+000
    endloop
  endfacet
  facet normal  0.000000e+000 -9.048272e-001  4.257790e-001
    outer loop
      vertex -2.255000e+001 -4.648882e+000  1.840623e+000
      vertex  2.255000e+001 -4.648882e+000  1.840623e+000
      vertex -2.255000e+001 -4.381534e+000  2.408768e+000
    endloop
  endfacet
  facet normal  0.000000e+000 -9.048272e-001  4.257790e-001
    outer loop
      vertex -2.255000e+001 -4.381534e+000  2.408768e+000
      vertex  2.255000e+001 -4.648882e+000  1.840623e+000
      vertex  2.255000e+001 -4.381534e+000  2.408768e+000
    endloop
  endfacet
  facet normal  0.000000e+000 -8.443277e-001  5.358271e-001
    outer loop
      vertex -2.255000e+001 -4.381534e+000  2.408768e+000
      vertex  2.255000e+001 -4.381534e+000  2.408768e+000
      vertex -2.255000e+001 -4.045085e+000  2.938926e+000
    endloop
  endfacet
  facet normal  0.000000e+000 -8.443277e-001  5.358271e-001
    outer loop
      vertex -2.255000e+001 -4.045085e+000  2.938926e+000
      vertex  2.255000e+001 -4.381534e+000  2.408768e+000
      vertex  2.255000e+001 -4.045085e+000  2.938926e+000
    endloop
  endfacet
  facet normal  0.000000e+000 -7.705132e-001  6.374240e-001
    outer loop
      vertex -2.255000e+001 -4.045085e+000  2.938926e+000
      vertex  2.255000e+001 -4.045085e+000  2.938926e+000
      vertex -2.255000e+001 -3.644843e+000  3.422735e+000
    endloop
  endfacet
  facet normal  0.000000e+000 -7.705132e-001  6.374240e-001
    outer loop
      vertex -2.255000e+001 -3.644843e+000  3.422735e+000
      vertex  2.255000e+001 -4.045085e+000  2.938926e+000
      vertex  2.255000e+001 -3.644843e+000  3.422735e+000
    endloop
  endfacet
  facet normal  0.000000e+000 -6.845472e-001  7.289685e-001
    outer loop
      vertex -2.255000e+001 -3.644843e+000  3.422735e+000
      vertex  2.255000e+001 -3.644843e+000  3.422735e+000
      vertex -2.255000e+001 -3.187120e+000  3.852566e+000
    endloop
  endfacet
  facet normal  0.000000e+000 -6.845472e-001  7.289685e-001
    outer loop
      vertex -2.255000e+001 -3.187120e+000  3.852566e+000
      vertex  2.255000e+001 -3.644843e+000  3.422735e+000
      vertex  2.255000e+001 -3.187120e+000  3.852566e+000
    endloop
  endfacet
  facet normal  0.000000e+000 -5.877852e-001  8.090171e-001
    outer loop
      vertex -2.255000e+001 -3.187120e+000  3.852566e+000
      vertex  2.255000e+001 -3.187120e+000  3.852566e+000
      vertex -2.255000e+001 -2.679134e+000  4.221640e+000
    endloop
  endfacet
  facet normal  0.000000e+000 -5.877852e-001  8.090171e-001
    outer loop
      vertex -2.255000e+001 -2.679134e+000  4.221640e+000
      vertex  2.255000e+001 -3.187120e+000  3.852566e+000
      vertex  2.255000e+001 -2.679134e+000  4.221640e+000
    endloop
  endfacet
  facet normal  0.000000e+000 -4.817536e-001  8.763068e-001
    outer loop
      vertex -2.255000e+001 -2.679134e+000  4.221640e+000
      vertex  2.255000e+001 -2.679134e+000  4.221640e+000
      vertex -2.255000e+001 -2.128896e+000  4.524135e+000
    endloop
  endfacet
  facet normal  0.000000e+000 -4.817536e-001  8.763068e-001
    outer loop
      vertex -2.255000e+001 -2.128896e+000  4.524135e+000
      vertex  2.255000e+001 -2.679134e+000  4.221640e+000
      vertex  2.255000e+001 -2.128896e+000  4.524135e+000
    endloop
  endfacet
  facet normal  0.000000e+000 -3.681245e-001  9.297765e-001
    outer loop
      vertex -2.255000e+001 -2.128896e+000  4.524135e+000
      vertex  2.255000e+001 -2.128896e+000  4.524135e+000
      vertex -2.255000e+001 -1.545085e+000  4.755282e+000
    endloop
  endfacet
  facet normal  0.000000e+000 -3.681245e-001  9.297765e-001
    outer loop
      vertex -2.255000e+001 -1.545085e+000  4.755282e+000
      vertex  2.255000e+001 -2.128896e+000  4.524135e+000
      vertex  2.255000e+001 -1.545085e+000  4.755282e+000
    endloop
  endfacet
  facet normal  0.000000e+000 -2.486899e-001  9.685831e-001
    outer loop
      vertex -2.255000e+001 -1.545085e+000  4.755282e+000
      vertex  2.255000e+001 -1.545085e+000  4.755282e+000
      vertex -2.255000e+001 -9.369066e-001  4.911436e+000
    endloop
  endfacet
  facet normal  0.000000e+000 -2.486899e-001  9.685831e-001
    outer loop
      vertex -2.255000e+001 -9.369066e-001  4.911436e+000
      vertex  2.255000e+001 -1.545085e+000  4.755282e+000
      vertex  2.255000e+001 -9.369066e-001  4.911436e+000
    endloop
  endfacet
  facet normal  0.000000e+000 -1.253337e-001  9.921147e-001
    outer loop
      vertex -2.255000e+001 -9.369066e-001  4.911436e+000
      vertex  2.255000e+001 -9.369066e-001  4.911436e+000
      vertex -2.255000e+001 -3.139526e-001  4.990134e+000
    endloop
  endfacet
  facet normal  0.000000e+000 -1.253337e-001  9.921147e-001
    outer loop
      vertex -2.255000e+001 -3.139526e-001  4.990134e+000
      vertex  2.255000e+001 -9.369066e-001  4.911436e+000
      vertex  2.255000e+001 -3.139526e-001  4.990134e+000
    endloop
  endfacet
  facet normal  0.000000e+000  0.000000e+000  9.999999e-001
    outer loop
      vertex -2.255000e+001 -3.139526e-001  4.990134e+000
      vertex  2.255000e+001 -3.139526e-001  4.990134e+000
      vertex -2.255000e+001  3.139526e-001  4.990134e+000
    endloop
  endfacet
  facet normal  -0.000000e+000  0.000000e+000  9.999999e-001
    outer loop
      vertex -2.255000e+001  3.139526e-001  4.990134e+000
      vertex  2.255000e+001 -3.139526e-001  4.990134e+000
      vertex  2.255000e+001  3.139526e-001  4.990134e+000
    endloop
  endfacet
  facet normal  0.000000e+000  1.253337e-001  9.921147e-001
    outer loop
      vertex -2.255000e+001  3.139526e-001  4.990134e+000
      vertex  2.255000e+001  3.139526e-001  4.990134e+000
      vertex -2.255000e+001  9.369066e-001  4.911436e+000
    endloop
  endfacet
  facet normal  -0.000000e+000  1.253337e-001  9.921147e-001
    outer loop
      vertex -2.255000e+001  9.369066e-001  4.911436e+000
      vertex  2.255000e+001  3.139526e-001  4.990134e+000
      vertex  2.255000e+001  9.369066e-001  4.911436e+000
    endloop
  endfacet
  facet normal  0.000000e+000  2.486899e-001  9.685831e-001
    outer loop
      vertex -2.255000e+001  9.369066e-001  4.911436e+000
      vertex  2.255000e+001  9.369066e-001  4.911436e+000
      vertex -2.255000e+001  1.545085e+000  4.755282e+000
    endloop
  endfacet
  facet normal  -0.000000e+000  2.486899e-001  9.685831e-001
    outer loop
      vertex -2.255000e+001  1.545085e+000  4.755282e+000
      vertex  2.255000e+001  9.369066e-001  4.911436e+000
      vertex  2.255000e+001  1.545085e+000  4.755282e+000
    endloop
  endfacet
  facet normal  0.000000e+000  3.681245e-001  9.297765e-001
    outer loop
      vertex -2.255000e+001  1.545085e+000  4.755282e+000
      vertex  2.255000e+001  1.545085e+000  4.755282e+000
      vertex -2.255000e+001  2.128896e+000  4.524135e+000
    endloop
  endfacet
  facet normal  -0.000000e+000  3.681245e-001  9.297765e-001
    outer loop
      vertex -2.255000e+001  2.128896e+000  4.524135e+000
      vertex  2.255000e+001  1.545085e+000  4.755282e+000
      vertex  2.255000e+001  2.128896e+000  4.524135e+000
    endloop
  endfacet
  facet normal  0.000000e+000  4.817536e-001  8.763068e-001
    outer loop
      vertex -2.255000e+001  2.128896e+000  4.524135e+000
      vertex  2.255000e+001  2.128896e+000  4.524135e+000
      vertex -2.255000e+001  2.679134e+000  4.221640e+000
    endloop
  endfacet
  facet normal  -0.000000e+000  4.817536e-001  8.763068e-001
    outer loop
      vertex -2.255000e+001  2.679134e+000  4.221640e+000
      vertex  2.255000e+001  2.128896e+000  4.524135e+000
      vertex  2.255000e+001  2.679134e+000  4.221640e+000
    endloop
  endfacet
  facet normal  0.000000e+000  5.877852e-001  8.090171e-001
    outer loop
      vertex -2.255000e+001  2.679134e+000  4.221640e+000
      vertex  2.255000e+001  2.679134e+000  4.221640e+000
      vertex -2.255000e+001  3.187120e+000  3.852566e+000
    endloop
  endfacet
  facet normal  -0.000000e+000  5.877852e-001  8.090171e-001
    outer loop
      vertex -2.255000e+001  3.187120e+000  3.852566e+000
      vertex  2.255000e+001  2.679134e+000  4.221640e+000
      vertex  2.255000e+001  3.187120e+000  3.852566e+000
    endloop
  endfacet
  facet normal  0.000000e+000  6.845472e-001  7.289685e-001
    outer loop
      vertex -2.255000e+001  3.187120e+000  3.852566e+000
      vertex  2.255000e+001  3.187120e+000  3.852566e+000
      vertex -2.255000e+001  3.644843e+000  3.422735e+000
    endloop
  endfacet
  facet normal  -0.000000e+000  6.845472e-001  7.289685e-001
    outer loop
      vertex -2.255000e+001  3.644843e+000  3.422735e+000
      vertex  2.255000e+001  3.187120e+000  3.852566e+000
      vertex  2.255000e+001  3.644843e+000  3.422735e+000
    endloop
  endfacet
  facet normal  0.000000e+000  7.705132e-001  6.374240e-001
    outer loop
      vertex -2.255000e+001  3.644843e+000  3.422735e+000
      vertex  2.255000e+001  3.644843e+000  3.422735e+000
      vertex -2.255000e+001  4.045085e+000  2.938926e+000
    endloop
  endfacet
  facet normal  -0.000000e+000  7.705132e-001  6.374240e-001
    outer loop
      vertex -2.255000e+001  4.045085e+000  2.938926e+000
      vertex  2.255000e+001  3.644843e+000  3.422735e+000
      vertex  2.255000e+001  4.045085e+000  2.938926e+000
    endloop
  endfacet
  facet normal  0.000000e+000  8.443277e-001  5.358271e-001
    outer loop
      vertex -2.255000e+001  4.045085e+000  2.938926e+000
      vertex  2.255000e+001  4.045085e+000  2.938926e+000
      vertex -2.255000e+001  4.381534e+000  2.408768e+000
    endloop
  endfacet
  facet normal  -0.000000e+000  8.443277e-001  5.358271e-001
    outer loop
      vertex -2.255000e+001  4.381534e+000  2.408768e+000
      vertex  2.255000e+001  4.045085e+000  2.938926e+000
      vertex  2.255000e+001  4.381534e+000  2.408768e+000
    endloop
  endfacet
  facet normal  0.000000e+000  9.048272e-001  4.257790e-001
    outer loop
      vertex -2.255000e+001  4.381534e+000  2.408768e+000
      vertex  2.255000e+001  4.381534e+000  2.408768e+000
      vertex -2.255000e+001  4.648882e+000  1.840623e+000
    endloop
  endfacet
  facet normal  -0.000000e+000  9.048272e-001  4.257790e-001
    outer loop
      vertex -2.255000e+001  4.648882e+000  1.840623e+000
      vertex  2.255000e+001  4.381534e+000  2.408768e+000
      vertex  2.255000e+001  4.648882e+000  1.840623e+000
    endloop
  endfacet
  facet normal  0.000000e+000  9.510564e-001  3.090174e-001
    outer loop
      vertex -2.255000e+001  4.648882e+000  1.840623e+000
      vertex  2.255000e+001  4.648882e+000  1.840623e+000
      vertex -2.255000e+001  4.842916e+000  1.243449e+000
    endloop
  endfacet
  facet normal  -0.000000e+000  9.510564e-001  3.090174e-001
    outer loop
      vertex -2.255000e+001  4.842916e+000  1.243449e+000
      vertex  2.255000e+001  4.648882e+000  1.840623e+000
      vertex  2.255000e+001  4.842916e+000  1.243449e+000
    endloop
  endfacet
  facet normal  0.000000e+000  9.822872e-001  1.873812e-001
    outer loop
      vertex -2.255000e+001  4.842916e+000  1.243449e+000
      vertex  2.255000e+001  4.842916e+000  1.243449e+000
      vertex -2.255000e+001  4.960574e+000  6.266662e-001
    endloop
  endfacet
  facet normal  -0.000000e+000  9.822872e-001  1.873812e-001
    outer loop
      vertex -2.255000e+001  4.960574e+000  6.266662e-001
      vertex  2.255000e+001  4.842916e+000  1.243449e+000
      vertex  2.255000e+001  4.960574e+000  6.266662e-001
    endloop
  endfacet
  facet normal  0.000000e+000  9.980267e-001  6.279025e-002
    outer loop
      vertex -2.255000e+001  4.960574e+000  6.266662e-001
      vertex  2.255000e+001  4.960574e+000  6.266662e-001
      vertex -2.255000e+001  5.000000e+000  0.000000e+000
    endloop
  endfacet
  facet normal  -0.000000e+000  9.980267e-001  6.279025e-002
    outer loop
      vertex -2.255000e+001  5.000000e+000  0.000000e+000
      vertex  2.255000e+001  4.960574e+000  6.266662e-001
      vertex  2.255000e+001  5.000000e+000  0.000000e+000
    endloop
  endfacet
  facet normal  0.000000e+000  9.980267e-001 -6.279025e-002
    outer loop
      vertex -2.255000e+001  5.000000e+000  0.000000e+000
      vertex  2.255000e+001  5.000000e+000  0.000000e+000
      vertex -2.255000e+001  4.960574e+000 -6.266662e-001
    endloop
  endfacet
  facet normal  0.000000e+000  9.980267e-001 -6.279025e-002
    outer loop
      vertex -2.255000e+001  4.960574e+000 -6.266662e-001
      vertex  2.255000e+001  5.000000e+000  0.000000e+000
      vertex  2.255000e+001  4.960574e+000 -6.266662e-001
    endloop
  endfacet
  facet normal  0.000000e+000  9.822872e-001 -1.873812e-001
    outer loop
      vertex -2.255000e+001  4.960574e+000 -6.266662e-001
      vertex  2.255000e+001  4.960574e+000 -6.266662e-001
      vertex -2.255000e+001  4.842916e+000 -1.243449e+000
    endloop
  endfacet
  facet normal  0.000000e+000  9.822872e-001 -1.873812e-001
    outer loop
      vertex -2.255000e+001  4.842916e+000 -1.243449e+000
      vertex  2.255000e+001  4.960574e+000 -6.266662e-001
      vertex  2.255000e+001  4.842916e+000 -1.243449e+000
    endloop
  endfacet
  facet normal  0.000000e+000  9.510564e-001 -3.090174e-001
    outer loop
      vertex -2.255000e+001  4.842916e+000 -1.243449e+000
      vertex  2.255000e+001  4.842916e+000 -1.243449e+000
      vertex -2.255000e+001  4.648882e+000 -1.840623e+000
    endloop
  endfacet
  facet normal  0.000000e+000  9.510564e-001 -3.090174e-001
    outer loop
      vertex -2.255000e+001  4.648882e+000 -1.840623e+000
      vertex  2.255000e+001  4.842916e+000 -1.243449e+000
      vertex  2.255000e+001  4.648882e+000 -1.840623e+000
    endloop
  endfacet
  facet normal  0.000000e+000  9.048272e-001 -4.257790e-001
    outer loop
      vertex -2.255000e+001  4.648882e+000 -1.840623e+000
      vertex  2.255000e+001  4.648882e+000 -1.840623e+000
      vertex -2.255000e+001  4.381534e+000 -2.408768e+000
    endloop
  endfacet
  facet normal  0.000000e+000  9.048272e-001 -4.257790e-001
    outer loop
      vertex -2.255000e+001  4.381534e+000 -2.408768e+000
      vertex  2.255000e+001  4.648882e+000 -1.840623e+000
      vertex  2.255000e+001  4.381534e+000 -2.408768e+000
    endloop
  endfacet
  facet normal  0.000000e+000  8.443277e-001 -5.358271e-001
    outer loop
      vertex -2.255000e+001  4.381534e+000 -2.408768e+000
      vertex  2.255000e+001  4.381534e+000 -2.408768e+000
      vertex -2.255000e+001  4.045085e+000 -2.938926e+000
    endloop
  endfacet
  facet normal  0.000000e+000  8.443277e-001 -5.358271e-001
    outer loop
      vertex -2.255000e+001  4.045085e+000 -2.938926e+000
      vertex  2.255000e+001  4.381534e+000 -2.408768e+000
      vertex  2.255000e+001  4.045085e+000 -2.938926e+000
    endloop
  endfacet
  facet normal  0.000000e+000  7.705132e-001 -6.374240e-001
    outer loop
      vertex -2.255000e+001  4.045085e+000 -2.938926e+000
      vertex  2.255000e+001  4.045085e+000 -2.938926e+000
      vertex -2.255000e+001  3.644843e+000 -3.422735e+000
    endloop
  endfacet
  facet normal  0.000000e+000  7.705132e-001 -6.374240e-001
    outer loop
      vertex -2.255000e+001  3.644843e+000 -3.422735e+000
      vertex  2.255000e+001  4.045085e+000 -2.938926e+000
      vertex  2.255000e+001  3.644843e+000 -3.422735e+000
    endloop
  endfacet
  facet normal  0.000000e+000  6.845472e-001 -7.289685e-001
    outer loop
      vertex -2.255000e+001  3.644843e+000 -3.422735e+000
      vertex  2.255000e+001  3.644843e+000 -3.422735e+000
      vertex -2.255000e+001  3.187120e+000 -3.852566e+000
    endloop
  endfacet
  facet normal  0.000000e+000  6.845472e-001 -7.289685e-001
    outer loop
      vertex -2.255000e+001  3.187120e+000 -3.852566e+000
      vertex  2.255000e+001  3.644843e+000 -3.422735e+000
      vertex  2.255000e+001  3.187120e+000 -3.852566e+000
    endloop
  endfacet
  facet normal  0.000000e+000  5.877852e-001 -8.090171e-001
    outer loop
      vertex -2.255000e+001  3.187120e+000 -3.852566e+000
      vertex  2.255000e+001  3.187120e+000 -3.852566e+000
      vertex -2.255000e+001  2.679134e+000 -4.221640e+000
    endloop
  endfacet
  facet normal  0.000000e+000  5.877852e-001 -8.090171e-001
    outer loop
      vertex -2.255000e+001  2.679134e+000 -4.221640e+000
      vertex  2.255000e+001  3.187120e+000 -3.852566e+000
      vertex  2.255000e+001  2.679134e+000 -4.221640e+000
    endloop
  endfacet
  facet normal  0.000000e+000  4.817536e-001 -8.763068e-001
    outer loop
      vertex -2.255000e+001  2.679134e+000 -4.221640e+000
      vertex  2.255000e+001  2.679134e+000 -4.221640e+000
      vertex -2.255000e+001  2.128896e+000 -4.524135e+000
    endloop
  endfacet
  facet normal  0.000000e+000  4.817536e-001 -8.763068e-001
    outer loop
      vertex -2.255000e+001  2.128896e+000 -4.524135e+000
      vertex  2.255000e+001  2.679134e+000 -4.221640e+000
      vertex  2.255000e+001  2.128896e+000 -4.524135e+000
    endloop
  endfacet
  facet normal  0.000000e+000  3.681245e-001 -9.297765e-001
    outer loop
      vertex -2.255000e+001  2.128896e+000 -4.524135e+000
      vertex  2.255000e+001  2.128896e+000 -4.524135e+000
      vertex -2.255000e+001  1.545085e+000 -4.755282e+000
    endloop
  endfacet
  facet normal  0.000000e+000  3.681245e-001 -9.297765e-001
    outer loop
      vertex -2.255000e+001  1.545085e+000 -4.755282e+000
      vertex  2.255000e+001  2.128896e+000 -4.524135e+000
      vertex  2.255000e+001  1.545085e+000 -4.755282e+000
    endloop
  endfacet
  facet normal  0.000000e+000  2.486899e-001 -9.685831e-001
    outer loop
      vertex -2.255000e+001  1.545085e+000 -4.755282e+000
      vertex  2.255000e+001  1.545085e+000 -4.755282e+000
      vertex -2.255000e+001  9.369066e-001 -4.911436e+000
    endloop
  endfacet
  facet normal  0.000000e+000  2.486899e-001 -9.685831e-001
    outer loop
      vertex -2.255000e+001  9.369066e-001 -4.911436e+000
      vertex  2.255000e+001  1.545085e+000 -4.755282e+000
      vertex  2.255000e+001  9.369066e-001 -4.911436e+000
    endloop
  endfacet
  facet normal  0.000000e+000  1.253337e-001 -9.921147e-001
    outer loop
      vertex -2.255000e+001  9.369066e-001 -4.911436e+000
      vertex  2.255000e+001  9.369066e-001 -4.911436e+000
      vertex -2.255000e+001  3.139526e-001 -4.990134e+000
    endloop
  endfacet
  facet normal  0.000000e+000  1.253337e-001 -9.921147e-001
    outer loop
      vertex -2.255000e+001  3.139526e-001 -4.990134e+000
      vertex  2.255000e+001  9.369066e-001 -4.911436e+000
      vertex  2.255000e+001  3.139526e-001 -4.990134e+000
    endloop
  endfacet
  facet normal  -0.000000e+000  0.000000e+000 -9.999999e-001
    outer loop
      vertex -2.255000e+001  3.139526e-001 -4.990134e+000
      vertex  2.255000e+001  3.139526e-001 -4.990134e+000
      vertex -2.255000e+001 -3.139526e-001 -4.990134e+000
    endloop
  endfacet
  facet normal  0.000000e+000  0.000000e+000 -9.999999e-001
    outer loop
      vertex -2.255000e+001 -3.139526e-001 -4.990134e+000
      vertex  2.255000e+001  3.139526e-001 -4.990134e+000
      vertex  2.255000e+001 -3.139526e-001 -4.990134e+000
    endloop
  endfacet
  facet normal  -0.000000e+000 -1.253337e-001 -9.921147e-001
    outer loop
      vertex -2.255000e+001 -3.139526e-001 -4.990134e+000
      vertex  2.255000e+001 -3.139526e-001 -4.990134e+000
      vertex -2.255000e+001 -9.369066e-001 -4.911436e+000
    endloop
  endfacet
  facet normal  0.000000e+000 -1.253337e-001 -9.921147e-001
    outer loop
      vertex -2.255000e+001 -9.369066e-001 -4.911436e+000
      vertex  2.255000e+001 -3.139526e-001 -4.990134e+000
      vertex  2.255000e+001 -9.369066e-001 -4.911436e+000
    endloop
  endfacet
  facet normal  -0.000000e+000 -2.486899e-001 -9.685831e-001
    outer loop
      vertex -2.255000e+001 -9.369066e-001 -4.911436e+000
      vertex  2.255000e+001 -9.369066e-001 -4.911436e+000
      vertex -2.255000e+001 -1.545085e+000 -4.755282e+000
    endloop
  endfacet
  facet normal  0.000000e+000 -2.486899e-001 -9.685831e-001
    outer loop
      vertex -2.255000e+001 -1.545085e+000 -4.755282e+000
      vertex  2.255000e+001 -9.369066e-001 -4.911436e+000
      vertex  2.255000e+001 -1.545085e+000 -4.755282e+000
    endloop
  endfacet
  facet normal  -0.000000e+000 -3.681245e-001 -9.297765e-001
    outer loop
      vertex -2.255000e+001 -1.545085e+000 -4.755282e+000
      vertex  2.255000e+001 -1.545085e+000 -4.755282e+000
      vertex -2.255000e+001 -2.128896e+000 -4.524135e+000
    endloop
  endfacet
  facet normal  0.000000e+000 -3.681245e-001 -9.297765e-001
    outer loop
      vertex -2.255000e+001 -2.128896e+000 -4.524135e+000
      vertex  2.255000e+001 -1.545085e+000 -4.755282e+000
      vertex  2.255000e+001 -2.128896e+000 -4.524135e+000
    endloop
  endfacet
  facet normal  -0.000000e+000 -4.817536e-001 -8.763068e-001
    outer loop
      vertex -2.255000e+001 -2.128896e+000 -4.524135e+000
      vertex  2.255000e+001 -2.128896e+000 -4.524135e+000
      vertex -2.255000e+001 -2.679134e+000 -4.221640e+000
    endloop
  endfacet
  facet normal  0.000000e+000 -4.817536e-001 -8.763068e-001
    outer loop
      vertex -2.255000e+001 -2.679134e+000 -4.221640e+000
      vertex  2.255000e+001 -2.128896e+000 -4.524135e+000
      vertex  2.255000e+001 -2.679134e+000 -4.221640e+000
    endloop
  endfacet
  facet normal  -0.000000e+000 -5.877852e-001 -8.090171e-001
    outer loop
      vertex -2.255000e+001 -2.679134e+000 -4.221640e+000
      vertex  2.255000e+001 -2.679134e+000 -4.221640e+000
      vertex -2.255000e+001 -3.187120e+000 -3.852566e+000
    endloop
  endfacet
  facet normal  0.000000e+000 -5.877852e-001 -8.090171e-001
    outer loop
      vertex -2.255000e+001 -3.187120e+000 -3.852566e+000
      vertex  2.255000e+001 -2.679134e+000 -4.221640e+000
      vertex  2.255000e+001 -3.187120e+000 -3.852566e+000
    endloop
  endfacet
  facet normal  -0.000000e+000 -6.845472e-001 -7.289685e-001
    outer loop
      vertex -2.255000e+001 -3.187120e+000 -3.852566e+000
      vertex  2.255000e+001 -3.187120e+000 -3.852566e+000
      vertex -2.255000e+001 -3.644843e+000 -3.422735e+000
    endloop
  endfacet
  facet normal  0.000000e+000 -6.845472e-001 -7.289685e-001
    outer loop
      vertex -2.255000e+001 -3.644843e+000 -3.422735e+000
      vertex  2.255000e+001 -3.187120e+000 -3.852566e+000
      vertex  2.255000e+001 -3.644843e+000 -3.422735e+000
    endloop
  endfacet
  facet normal  -0.000000e+000 -7.705132e-001 -6.374240e-001
    outer loop
      vertex -2.255000e+001 -3.644843e+000 -3.422735e+000
      vertex  2.255000e+001 -3.644843e+000 -3.422735e+000
      vertex -2.255000e+001 -4.045085e+000 -2.938926e+000
    endloop
  endfacet
  facet normal  0.000000e+000 -7.705132e-001 -6.374240e-001
    outer loop
      vertex -2.255000e+001 -4.045085e+000 -2.938926e+000
      vertex  2.255000e+001 -3.644843e+000 -3.422735e+000
      vertex  2.255000e+001 -4.045085e+000 -2.938926e+000
    endloop
  endfacet
  facet normal  -0.000000e+000 -8.443277e-001 -5.358271e-001
    outer loop
      vertex -2.255000e+001 -4.045085e+000 -2.938926e+000
      vertex  2.255000e+001 -4.045085e+000 -2.938926e+000
      vertex -2.255000e+001 -4.381534e+000 -2.408768e+000
    endloop
  endfacet
  facet normal  0.000000e+000 -8.443277e-001 -5.358271e-001
    outer loop
      vertex -2.255000e+001 -4.381534e+000 -2.408768e+000
      vertex  2.255000e+001 -4.045085e+000 -2.938926e+000
      vertex  2.255000e+001 -4.381534e+000 -2.408768e+000
    endloop
  endfacet
  facet normal  -0.000000e+000 -9.048272e-001 -4.257790e-001
    outer loop
      vertex -2.255000e+001 -4.381534e+000 -2.408768e+000
      vertex  2.255000e+001 -4.381534e+000 -2.408768e+000
      vertex -2.255000e+001 -4.648882e+000 -1.840623e+000
    endloop
  endfacet
  facet normal  0.000000e+000 -9.048272e-001 -4.257790e-001
    outer loop
      vertex -2.255000e+001 -4.648882e+000 -1.840623e+000
      vertex  2.255000e+001 -4.381534e+000 -2.408768e+000
      vertex  2.255000e+001 -4.648882e+000 -1.840623e+000
    endloop
  endfacet
  facet normal  -0.000000e+000 -9.510564e-001 -3.090174e-001
    outer loop
      vertex -2.255000e+001 -4.648882e+000 -1.840623e+000
      vertex  2.255000e+001 -4.648882e+000 -1.840623e+000
      vertex -2.255000e+001 -4.842916e+000 -1.243449e+000
    endloop
  endfacet
  facet normal  0.000000e+000 -9.510564e-001 -3.090174e-001
    outer loop
      vertex -2.255000e+001 -4.842916e+000 -1.243449e+000
      vertex  2.255000e+001 -4.648882e+000 -1.840623e+000
      vertex  2.255000e+001 -4.842916e+000 -1.243449e+000
    endloop
  endfacet
  facet normal  -0.000000e+000 -9.822872e-001 -1.873812e-001
    outer loop
      vertex -2.255000e+001 -4.842916e+000 -1.243449e+000
      vertex  2.255000e+001 -4.842916e+000 -1.243449e+000
      vertex -2.255000e+001 -4.960574e+000 -6.266662e-001
    endloop
  endfacet
  facet normal  0.000000e+000 -9.822872e-001 -1.873812e-001
    outer loop
      vertex -2.255000e+001 -4.960574e+000 -6.266662e-001
      vertex  2.255000e+001 -4.842916e+000 -1.243449e+000
      vertex  2.255000e+001 -4.960574e+000 -6.266662e-001
    endloop
  endfacet
  facet normal  -0.000000e+000 -9.980267e-001 -6.279025e-002
    outer loop
      vertex -2.255000e+001 -4.960574e+000 -6.266662e-001
      vertex  2.255000e+001 -4.960574e+000 -6.266662e-001
      vertex -2.255000e+001 -5.000000e+000  6.123234e-016
    endloop
  endfacet
  facet normal  0.000000e+000 -9.980267e-001 -6.279025e-002
    outer loop
      vertex -2.255000e+001 -5.000000e+000  6.123234e-016
      vertex  2.255000e+001 -4.960574e+000 -6.266662e-001
      vertex  2.255000e+001 -5.000000e+000  6.123234e-016
    endloop
  endfacet
  facet normal  0.000000e+000 -6.755134e-001 -7.373476e-001
    outer loop
      vertex  2.255000e+001  7.562242e-001  1.057414e+000
      vertex -2.255000e+001  9.873055e-001  8.457115e-001
      vertex  2.255000e+001  9.873055e-001  8.457115e-001
    endloop
  endfacet
  facet normal  -0.000000e+000 -8.323433e-001 -5.542605e-001
    outer loop
      vertex  2.255000e+001  9.873055e-001  8.457115e-001
      vertex -2.255000e+001  9.873055e-001  8.457115e-001
      vertex -2.255000e+001  1.161008e+000  5.848590e-001
    endloop
  endfacet
  facet normal  0.000000e+000 -8.323433e-001 -5.542605e-001
    outer loop
      vertex  2.255000e+001  9.873055e-001  8.457115e-001
      vertex -2.255000e+001  1.161008e+000  5.848590e-001
      vertex  2.255000e+001  1.161008e+000  5.848590e-001
    endloop
  endfacet
  facet normal  -0.000000e+000 -9.408000e-001 -3.389621e-001
    outer loop
      vertex  2.255000e+001  1.161008e+000  5.848590e-001
      vertex -2.255000e+001  1.161008e+000  5.848590e-001
      vertex -2.255000e+001  1.267237e+000  2.900166e-001
    endloop
  endfacet
  facet normal  0.000000e+000 -9.408000e-001 -3.389621e-001
    outer loop
      vertex  2.255000e+001  1.161008e+000  5.848590e-001
      vertex -2.255000e+001  1.267237e+000  2.900166e-001
      vertex  2.255000e+001  1.267237e+000  2.900166e-001
    endloop
  endfacet
  facet normal  -0.000000e+000 -9.945810e-001 -1.039643e-001
    outer loop
      vertex  2.255000e+001  1.267237e+000  2.900166e-001
      vertex -2.255000e+001  1.267237e+000  2.900166e-001
      vertex -2.255000e+001  1.299819e+000 -2.168046e-002
    endloop
  endfacet
  facet normal  0.000000e+000 -9.945810e-001 -1.039643e-001
    outer loop
      vertex  2.255000e+001  1.267237e+000  2.900166e-001
      vertex -2.255000e+001  1.299819e+000 -2.168046e-002
      vertex  2.255000e+001  1.299819e+000 -2.168046e-002
    endloop
  endfacet
  facet normal  0.000000e+000 -9.905606e-001  1.370756e-001
    outer loop
      vertex  2.255000e+001  1.299819e+000 -2.168046e-002
      vertex -2.255000e+001  1.299819e+000 -2.168046e-002
      vertex -2.255000e+001  1.256860e+000 -3.321176e-001
    endloop
  endfacet
  facet normal  0.000000e+000 -9.905606e-001  1.370756e-001
    outer loop
      vertex  2.255000e+001  1.299819e+000 -2.168046e-002
      vertex -2.255000e+001  1.256860e+000 -3.321176e-001
      vertex  2.255000e+001  1.256860e+000 -3.321176e-001
    endloop
  endfacet
  facet normal  0.000000e+000 -9.289723e-001  3.701491e-001
    outer loop
      vertex  2.255000e+001  1.256860e+000 -3.321176e-001
      vertex -2.255000e+001  1.256860e+000 -3.321176e-001
      vertex -2.255000e+001  1.140857e+000 -6.232532e-001
    endloop
  endfacet
  facet normal  0.000000e+000 -9.289723e-001  3.701491e-001
    outer loop
      vertex  2.255000e+001  1.256860e+000 -3.321176e-001
      vertex -2.255000e+001  1.140857e+000 -6.232532e-001
      vertex  2.255000e+001  1.140857e+000 -6.232532e-001
    endloop
  endfacet
  facet normal  -0.000000e+000 -6.755134e-001 -7.373476e-001
    outer loop
      vertex -2.255000e+001  9.873055e-001  8.457115e-001
      vertex  2.255000e+001  7.562242e-001  1.057414e+000
      vertex -2.255000e+001  7.562242e-001  1.057414e+000
    endloop
  endfacet
  facet normal  0.000000e+000 -4.794255e-001 -8.775826e-001
    outer loop
      vertex -2.255000e+001  7.562242e-001  1.057414e+000
      vertex  2.255000e+001  7.562242e-001  1.057414e+000
      vertex  2.255000e+001  4.811938e-001  1.207664e+000
    endloop
  endfacet
  facet normal  -0.000000e+000 -4.794255e-001 -8.775826e-001
    outer loop
      vertex -2.255000e+001  7.562242e-001  1.057414e+000
      vertex  2.255000e+001  4.811938e-001  1.207664e+000
      vertex -2.255000e+001  4.811938e-001  1.207664e+000
    endloop
  endfacet
  facet normal  0.000000e+000 -2.554753e-001 -9.668155e-001
    outer loop
      vertex -2.255000e+001  4.811938e-001  1.207664e+000
      vertex  2.255000e+001  4.811938e-001  1.207664e+000
      vertex  2.255000e+001  1.781983e-001  1.287729e+000
    endloop
  endfacet
  facet normal  -0.000000e+000 -2.554753e-001 -9.668155e-001
    outer loop
      vertex -2.255000e+001  4.811938e-001  1.207664e+000
      vertex  2.255000e+001  1.781983e-001  1.287729e+000
      vertex -2.255000e+001  1.781983e-001  1.287729e+000
    endloop
  endfacet
  facet normal  0.000000e+000 -1.667738e-002 -9.998609e-001
    outer loop
      vertex -2.255000e+001  1.781983e-001  1.287729e+000
      vertex  2.255000e+001  1.781983e-001  1.287729e+000
      vertex  2.255000e+001 -1.351535e-001  1.292955e+000
    endloop
  endfacet
  facet normal  -0.000000e+000 -1.667738e-002 -9.998609e-001
    outer loop
      vertex -2.255000e+001  1.781983e-001  1.287729e+000
      vertex  2.255000e+001 -1.351535e-001  1.292955e+000
      vertex -2.255000e+001 -1.351535e-001  1.292955e+000
    endloop
  endfacet
  facet normal  0.000000e+000  2.230898e-001 -9.747979e-001
    outer loop
      vertex -2.255000e+001 -1.351535e-001  1.292955e+000
      vertex  2.255000e+001 -1.351535e-001  1.292955e+000
      vertex  2.255000e+001 -4.406506e-001  1.223040e+000
    endloop
  endfacet
  facet normal  0.000000e+000  2.230898e-001 -9.747979e-001
    outer loop
      vertex -2.255000e+001 -1.351535e-001  1.292955e+000
      vertex  2.255000e+001 -4.406506e-001  1.223040e+000
      vertex -2.255000e+001 -4.406506e-001  1.223040e+000
    endloop
  endfacet
  facet normal  0.000000e+000  4.498916e-001 -8.930832e-001
    outer loop
      vertex -2.255000e+001 -4.406506e-001  1.223040e+000
      vertex  2.255000e+001 -4.406506e-001  1.223040e+000
      vertex  2.255000e+001 -7.205388e-001  1.082046e+000
    endloop
  endfacet
  facet normal  0.000000e+000  4.498916e-001 -8.930832e-001
    outer loop
      vertex -2.255000e+001 -4.406506e-001  1.223040e+000
      vertex  2.255000e+001 -7.205388e-001  1.082046e+000
      vertex -2.255000e+001 -7.205388e-001  1.082046e+000
    endloop
  endfacet
  facet normal  0.000000e+000  6.505474e-001 -7.594658e-001
    outer loop
      vertex -2.255000e+001 -7.205388e-001  1.082046e+000
      vertex  2.255000e+001 -7.205388e-001  1.082046e+000
      vertex  2.255000e+001 -9.585518e-001  8.781676e-001
    endloop
  endfacet
  facet normal  0.000000e+000  6.505474e-001 -7.594658e-001
    outer loop
      vertex -2.255000e+001 -7.205388e-001  1.082046e+000
      vertex  2.255000e+001 -9.585518e-001  8.781676e-001
      vertex -2.255000e+001 -9.585518e-001  8.781676e-001
    endloop
  endfacet
  facet normal  0.000000e+000  8.133956e-001 -5.817109e-001
    outer loop
      vertex -2.255000e+001 -9.585518e-001  8.781676e-001
      vertex  2.255000e+001 -9.585518e-001  8.781676e-001
      vertex  2.255000e+001 -1.140857e+000  6.232532e-001
    endloop
  endfacet
  facet normal  0.000000e+000  8.133956e-001 -5.817109e-001
    outer loop
      vertex -2.255000e+001 -9.585518e-001  8.781676e-001
      vertex  2.255000e+001 -1.140857e+000  6.232532e-001
      vertex -2.255000e+001 -1.140857e+000  6.232532e-001
    endloop
  endfacet
endsolid CATIA STL
