solid CATIA STL
  facet normal -1.000000e+000  0.000000e+000  0.000000e+000
    outer loop
      vertex -2.255000e+001 -7.273989e+000  1.219074e+000
      vertex -2.255000e+001 -9.443381e+000  9.888544e-001
      vertex -2.255000e+001 -6.980807e+000  1.382991e+000
    endloop
  endfacet
  facet normal -9.999999e-001  -0.000000e+000  0.000000e+000
    outer loop
      vertex -2.255000e+001 -7.273989e+000  1.219074e+000
      vertex -2.255000e+001 -7.523346e+000  9.940287e-001
      vertex -2.255000e+001 -9.443381e+000  9.888544e-001
    endloop
  endfacet
  facet normal -1.000000e+000  0.000000e+000  0.000000e+000
    outer loop
      vertex -2.255000e+001 -3.356619e+000  9.888544e-001
      vertex -2.255000e+001 -5.180925e+000  8.739894e-001
      vertex -2.255000e+001 -5.405971e+000  1.123346e+000
    endloop
  endfacet
  facet normal -9.999999e-001  0.000000e+000  0.000000e+000
    outer loop
      vertex -2.255000e+001 -3.548779e+000 -1.452770e+000
      vertex -2.255000e+001 -6.141500e+000 -1.477558e+000
      vertex -2.255000e+001 -5.819193e+000 -1.382991e+000
    endloop
  endfacet
  facet normal -1.000000e+000  0.000000e+000  -0.000000e+000
    outer loop
      vertex -2.255000e+001 -9.251221e+000  1.452770e+000
      vertex -2.255000e+001 -8.988854e+000  1.880913e+000
      vertex -2.255000e+001 -8.662742e+000  2.262742e+000
    endloop
  endfacet
  facet normal -1.000000e+000  0.000000e+000  -0.000000e+000
    outer loop
      vertex -2.255000e+001 -9.251221e+000  1.452770e+000
      vertex -2.255000e+001 -8.662742e+000  2.262742e+000
      vertex -2.255000e+001 -8.280912e+000  2.588854e+000
    endloop
  endfacet
  facet normal -1.000000e+000  0.000000e+000  -0.000000e+000
    outer loop
      vertex -2.255000e+001 -9.251221e+000  1.452770e+000
      vertex -2.255000e+001 -8.280912e+000  2.588854e+000
      vertex -2.255000e+001 -7.852769e+000  2.851221e+000
    endloop
  endfacet
  facet normal -1.000000e+000  0.000000e+000  -0.000000e+000
    outer loop
      vertex -2.255000e+001 -9.251221e+000  1.452770e+000
      vertex -2.255000e+001 -7.852769e+000  2.851221e+000
      vertex -2.255000e+001 -7.388855e+000  3.043381e+000
    endloop
  endfacet
  facet normal -1.000000e+000  0.000000e+000  -0.000000e+000
    outer loop
      vertex -2.255000e+001 -9.251221e+000  1.452770e+000
      vertex -2.255000e+001 -7.388855e+000  3.043381e+000
      vertex -2.255000e+001 -6.900590e+000  3.160603e+000
    endloop
  endfacet
  facet normal -1.000000e+000  0.000000e+000  -0.000000e+000
    outer loop
      vertex -2.255000e+001 -9.251221e+000  1.452770e+000
      vertex -2.255000e+001 -6.900590e+000  3.160603e+000
      vertex -2.255000e+001 -6.658501e+000  1.477558e+000
    endloop
  endfacet
  facet normal -1.000000e+000  0.000000e+000  0.000000e+000
    outer loop
      vertex -2.255000e+001 -9.251221e+000  1.452770e+000
      vertex -2.255000e+001 -6.658501e+000  1.477558e+000
      vertex -2.255000e+001 -6.980807e+000  1.382991e+000
    endloop
  endfacet
  facet normal -1.000000e+000  -0.000000e+000  0.000000e+000
    outer loop
      vertex -2.255000e+001 -9.251221e+000  1.452770e+000
      vertex -2.255000e+001 -6.980807e+000  1.382991e+000
      vertex -2.255000e+001 -9.443381e+000  9.888544e-001
    endloop
  endfacet
  facet normal -1.000000e+000  0.000000e+000  0.000000e+000
    outer loop
      vertex -2.255000e+001 -6.400000e+000 -3.200000e+000
      vertex -2.255000e+001 -6.900590e+000 -3.160603e+000
      vertex -2.255000e+001 -7.388855e+000 -3.043381e+000
    endloop
  endfacet
  facet normal -1.000000e+000  0.000000e+000  0.000000e+000
    outer loop
      vertex -2.255000e+001 -6.400000e+000 -3.200000e+000
      vertex -2.255000e+001 -7.388855e+000 -3.043381e+000
      vertex -2.255000e+001 -7.852769e+000 -2.851221e+000
    endloop
  endfacet
  facet normal -1.000000e+000  0.000000e+000  0.000000e+000
    outer loop
      vertex -2.255000e+001 -6.400000e+000 -3.200000e+000
      vertex -2.255000e+001 -7.852769e+000 -2.851221e+000
      vertex -2.255000e+001 -8.280912e+000 -2.588854e+000
    endloop
  endfacet
  facet normal -1.000000e+000  0.000000e+000  0.000000e+000
    outer loop
      vertex -2.255000e+001 -6.400000e+000 -3.200000e+000
      vertex -2.255000e+001 -8.280912e+000 -2.588854e+000
      vertex -2.255000e+001 -8.662742e+000 -2.262742e+000
    endloop
  endfacet
  facet normal -1.000000e+000  0.000000e+000  0.000000e+000
    outer loop
      vertex -2.255000e+001 -6.400000e+000 -3.200000e+000
      vertex -2.255000e+001 -8.662742e+000 -2.262742e+000
      vertex -2.255000e+001 -8.988854e+000 -1.880913e+000
    endloop
  endfacet
  facet normal -1.000000e+000  0.000000e+000  0.000000e+000
    outer loop
      vertex -2.255000e+001 -6.400000e+000 -3.200000e+000
      vertex -2.255000e+001 -8.988854e+000 -1.880913e+000
      vertex -2.255000e+001 -6.476768e+000 -1.498034e+000
    endloop
  endfacet
  facet normal -1.000000e+000  0.000000e+000  0.000000e+000
    outer loop
      vertex -2.255000e+001 -6.400000e+000 -3.200000e+000
      vertex -2.255000e+001 -6.476768e+000 -1.498034e+000
      vertex -2.255000e+001 -6.141500e+000 -1.477558e+000
    endloop
  endfacet
  facet normal -1.000000e+000  0.000000e+000  -0.000000e+000
    outer loop
      vertex -2.255000e+001 -6.400000e+000 -3.200000e+000
      vertex -2.255000e+001 -6.141500e+000 -1.477558e+000
      vertex -2.255000e+001 -3.548779e+000 -1.452770e+000
    endloop
  endfacet
  facet normal -1.000000e+000  0.000000e+000  0.000000e+000
    outer loop
      vertex -2.255000e+001 -6.400000e+000 -3.200000e+000
      vertex -2.255000e+001 -3.548779e+000 -1.452770e+000
      vertex -2.255000e+001 -3.811146e+000 -1.880913e+000
    endloop
  endfacet
  facet normal -1.000000e+000  0.000000e+000  0.000000e+000
    outer loop
      vertex -2.255000e+001 -6.400000e+000 -3.200000e+000
      vertex -2.255000e+001 -3.811146e+000 -1.880913e+000
      vertex -2.255000e+001 -4.137259e+000 -2.262742e+000
    endloop
  endfacet
  facet normal -1.000000e+000  0.000000e+000  0.000000e+000
    outer loop
      vertex -2.255000e+001 -6.400000e+000 -3.200000e+000
      vertex -2.255000e+001 -4.137259e+000 -2.262742e+000
      vertex -2.255000e+001 -4.519087e+000 -2.588854e+000
    endloop
  endfacet
  facet normal -9.999999e-001  0.000000e+000  0.000000e+000
    outer loop
      vertex -2.255000e+001 -6.400000e+000 -3.200000e+000
      vertex -2.255000e+001 -4.519087e+000 -2.588854e+000
      vertex -2.255000e+001 -4.947230e+000 -2.851221e+000
    endloop
  endfacet
  facet normal -9.999999e-001  0.000000e+000  0.000000e+000
    outer loop
      vertex -2.255000e+001 -6.400000e+000 -3.200000e+000
      vertex -2.255000e+001 -4.947230e+000 -2.851221e+000
      vertex -2.255000e+001 -5.411146e+000 -3.043381e+000
    endloop
  endfacet
  facet normal -1.000000e+000  0.000000e+000  0.000000e+000
    outer loop
      vertex -2.255000e+001 -6.400000e+000 -3.200000e+000
      vertex -2.255000e+001 -5.411146e+000 -3.043381e+000
      vertex -2.255000e+001 -5.899410e+000 -3.160603e+000
    endloop
  endfacet
  facet normal -1.000000e+000  0.000000e+000  0.000000e+000
    outer loop
      vertex -2.255000e+001 -6.323232e+000  1.498034e+000
      vertex -2.255000e+001 -6.658501e+000  1.477558e+000
      vertex -2.255000e+001 -6.900590e+000  3.160603e+000
    endloop
  endfacet
  facet normal -1.000000e+000  0.000000e+000  0.000000e+000
    outer loop
      vertex -2.255000e+001 -6.323232e+000  1.498034e+000
      vertex -2.255000e+001 -6.900590e+000  3.160603e+000
      vertex -2.255000e+001 -6.400000e+000  3.200000e+000
    endloop
  endfacet
  facet normal -1.000000e+000  0.000000e+000  0.000000e+000
    outer loop
      vertex -2.255000e+001 -6.323232e+000  1.498034e+000
      vertex -2.255000e+001 -6.400000e+000  3.200000e+000
      vertex -2.255000e+001 -5.899410e+000  3.160603e+000
    endloop
  endfacet
  facet normal -1.000000e+000  0.000000e+000  -0.000000e+000
    outer loop
      vertex -2.255000e+001 -6.323232e+000  1.498034e+000
      vertex -2.255000e+001 -5.899410e+000  3.160603e+000
      vertex -2.255000e+001 -5.411146e+000  3.043381e+000
    endloop
  endfacet
  facet normal -1.000000e+000  0.000000e+000  -0.000000e+000
    outer loop
      vertex -2.255000e+001 -6.323232e+000  1.498034e+000
      vertex -2.255000e+001 -5.411146e+000  3.043381e+000
      vertex -2.255000e+001 -4.947230e+000  2.851221e+000
    endloop
  endfacet
  facet normal -9.999999e-001  0.000000e+000  -0.000000e+000
    outer loop
      vertex -2.255000e+001 -6.323232e+000  1.498034e+000
      vertex -2.255000e+001 -4.947230e+000  2.851221e+000
      vertex -2.255000e+001 -4.519087e+000  2.588854e+000
    endloop
  endfacet
  facet normal -1.000000e+000  0.000000e+000  -0.000000e+000
    outer loop
      vertex -2.255000e+001 -6.323232e+000  1.498034e+000
      vertex -2.255000e+001 -4.519087e+000  2.588854e+000
      vertex -2.255000e+001 -4.137259e+000  2.262742e+000
    endloop
  endfacet
  facet normal -1.000000e+000  0.000000e+000  -0.000000e+000
    outer loop
      vertex -2.255000e+001 -6.323232e+000  1.498034e+000
      vertex -2.255000e+001 -4.137259e+000  2.262742e+000
      vertex -2.255000e+001 -3.811146e+000  1.880913e+000
    endloop
  endfacet
  facet normal -1.000000e+000  0.000000e+000  -0.000000e+000
    outer loop
      vertex -2.255000e+001 -6.323232e+000  1.498034e+000
      vertex -2.255000e+001 -3.811146e+000  1.880913e+000
      vertex -2.255000e+001 -3.548779e+000  1.452770e+000
    endloop
  endfacet
  facet normal -1.000000e+000  -0.000000e+000  0.000000e+000
    outer loop
      vertex -2.255000e+001 -6.323232e+000  1.498034e+000
      vertex -2.255000e+001 -3.548779e+000  1.452770e+000
      vertex -2.255000e+001 -5.991813e+000  1.443393e+000
    endloop
  endfacet
  facet normal -1.000000e+000  0.000000e+000  0.000000e+000
    outer loop
      vertex -2.255000e+001 -7.843393e+000  4.081873e-001
      vertex -2.255000e+001 -9.560603e+000  5.005903e-001
      vertex -2.255000e+001 -7.716374e+000  7.191383e-001
    endloop
  endfacet
  facet normal -1.000000e+000  -0.000000e+000  0.000000e+000
    outer loop
      vertex -2.255000e+001 -7.716374e+000  7.191383e-001
      vertex -2.255000e+001 -9.560603e+000  5.005903e-001
      vertex -2.255000e+001 -9.443381e+000  9.888544e-001
    endloop
  endfacet
  facet normal -9.999999e-001  0.000000e+000  0.000000e+000
    outer loop
      vertex -2.255000e+001 -7.716374e+000  7.191383e-001
      vertex -2.255000e+001 -9.443381e+000  9.888544e-001
      vertex -2.255000e+001 -7.523346e+000  9.940287e-001
    endloop
  endfacet
  facet normal -1.000000e+000  0.000000e+000  0.000000e+000
    outer loop
      vertex -2.255000e+001 -7.782990e+000 -5.808071e-001
      vertex -2.255000e+001 -9.560603e+000 -5.005903e-001
      vertex -2.255000e+001 -7.877558e+000 -2.585007e-001
    endloop
  endfacet
  facet normal -1.000000e+000  -0.000000e+000  0.000000e+000
    outer loop
      vertex -2.255000e+001 -7.877558e+000 -2.585007e-001
      vertex -2.255000e+001 -9.560603e+000 -5.005903e-001
      vertex -2.255000e+001 -9.600000e+000  3.918870e-016
    endloop
  endfacet
  facet normal -1.000000e+000  0.000000e+000  0.000000e+000
    outer loop
      vertex -2.255000e+001 -7.877558e+000 -2.585007e-001
      vertex -2.255000e+001 -9.600000e+000  3.918870e-016
      vertex -2.255000e+001 -7.898034e+000  7.676803e-002
    endloop
  endfacet
  facet normal -9.999999e-001  -0.000000e+000  0.000000e+000
    outer loop
      vertex -2.255000e+001 -7.898034e+000  7.676803e-002
      vertex -2.255000e+001 -9.600000e+000  3.918870e-016
      vertex -2.255000e+001 -9.560603e+000  5.005903e-001
    endloop
  endfacet
  facet normal -1.000000e+000  0.000000e+000  0.000000e+000
    outer loop
      vertex -2.255000e+001 -7.898034e+000  7.676803e-002
      vertex -2.255000e+001 -9.560603e+000  5.005903e-001
      vertex -2.255000e+001 -7.843393e+000  4.081873e-001
    endloop
  endfacet
  facet normal -1.000000e+000  0.000000e+000  0.000000e+000
    outer loop
      vertex -2.255000e+001 -7.119138e+000 -1.316374e+000
      vertex -2.255000e+001 -9.251221e+000 -1.452770e+000
      vertex -2.255000e+001 -7.394029e+000 -1.123346e+000
    endloop
  endfacet
  facet normal -1.000000e+000  -0.000000e+000  0.000000e+000
    outer loop
      vertex -2.255000e+001 -7.394029e+000 -1.123346e+000
      vertex -2.255000e+001 -9.251221e+000 -1.452770e+000
      vertex -2.255000e+001 -9.443381e+000 -9.888544e-001
    endloop
  endfacet
  facet normal -1.000000e+000  0.000000e+000  0.000000e+000
    outer loop
      vertex -2.255000e+001 -7.394029e+000 -1.123346e+000
      vertex -2.255000e+001 -9.443381e+000 -9.888544e-001
      vertex -2.255000e+001 -7.619074e+000 -8.739894e-001
    endloop
  endfacet
  facet normal -9.999999e-001  -0.000000e+000  0.000000e+000
    outer loop
      vertex -2.255000e+001 -7.619074e+000 -8.739894e-001
      vertex -2.255000e+001 -9.443381e+000 -9.888544e-001
      vertex -2.255000e+001 -9.560603e+000 -5.005903e-001
    endloop
  endfacet
  facet normal -1.000000e+000  0.000000e+000  0.000000e+000
    outer loop
      vertex -2.255000e+001 -7.619074e+000 -8.739894e-001
      vertex -2.255000e+001 -9.560603e+000 -5.005903e-001
      vertex -2.255000e+001 -7.782990e+000 -5.808071e-001
    endloop
  endfacet
  facet normal -1.000000e+000  -0.000000e+000  0.000000e+000
    outer loop
      vertex -2.255000e+001 -7.119138e+000 -1.316374e+000
      vertex -2.255000e+001 -6.808187e+000 -1.443393e+000
      vertex -2.255000e+001 -9.251221e+000 -1.452770e+000
    endloop
  endfacet
  facet normal -1.000000e+000  0.000000e+000  0.000000e+000
    outer loop
      vertex -2.255000e+001 -9.251221e+000 -1.452770e+000
      vertex -2.255000e+001 -6.808187e+000 -1.443393e+000
      vertex -2.255000e+001 -6.476768e+000 -1.498034e+000
    endloop
  endfacet
  facet normal -1.000000e+000  -0.000000e+000  0.000000e+000
    outer loop
      vertex -2.255000e+001 -9.251221e+000 -1.452770e+000
      vertex -2.255000e+001 -6.476768e+000 -1.498034e+000
      vertex -2.255000e+001 -8.988854e+000 -1.880913e+000
    endloop
  endfacet
  facet normal -1.000000e+000  0.000000e+000  0.000000e+000
    outer loop
      vertex -2.255000e+001 -5.405971e+000  1.123346e+000
      vertex -2.255000e+001 -5.680861e+000  1.316374e+000
      vertex -2.255000e+001 -3.356619e+000  9.888544e-001
    endloop
  endfacet
  facet normal -1.000000e+000  0.000000e+000  0.000000e+000
    outer loop
      vertex -2.255000e+001 -3.356619e+000  9.888544e-001
      vertex -2.255000e+001 -5.680861e+000  1.316374e+000
      vertex -2.255000e+001 -5.991813e+000  1.443393e+000
    endloop
  endfacet
  facet normal -1.000000e+000  0.000000e+000  0.000000e+000
    outer loop
      vertex -2.255000e+001 -3.356619e+000  9.888544e-001
      vertex -2.255000e+001 -5.991813e+000  1.443393e+000
      vertex -2.255000e+001 -3.548779e+000  1.452770e+000
    endloop
  endfacet
  facet normal -1.000000e+000  0.000000e+000  0.000000e+000
    outer loop
      vertex -2.255000e+001 -4.901966e+000 -7.676803e-002
      vertex -2.255000e+001 -4.922442e+000  2.585007e-001
      vertex -2.255000e+001 -3.200000e+000  0.000000e+000
    endloop
  endfacet
  facet normal -1.000000e+000  0.000000e+000  0.000000e+000
    outer loop
      vertex -2.255000e+001 -3.200000e+000  0.000000e+000
      vertex -2.255000e+001 -4.922442e+000  2.585007e-001
      vertex -2.255000e+001 -5.017009e+000  5.808071e-001
    endloop
  endfacet
  facet normal -1.000000e+000  0.000000e+000  0.000000e+000
    outer loop
      vertex -2.255000e+001 -3.200000e+000  0.000000e+000
      vertex -2.255000e+001 -5.017009e+000  5.808071e-001
      vertex -2.255000e+001 -3.239397e+000  5.005903e-001
    endloop
  endfacet
  facet normal -1.000000e+000  0.000000e+000  0.000000e+000
    outer loop
      vertex -2.255000e+001 -3.239397e+000  5.005903e-001
      vertex -2.255000e+001 -5.017009e+000  5.808071e-001
      vertex -2.255000e+001 -5.180925e+000  8.739894e-001
    endloop
  endfacet
  facet normal -1.000000e+000  0.000000e+000  0.000000e+000
    outer loop
      vertex -2.255000e+001 -3.239397e+000  5.005903e-001
      vertex -2.255000e+001 -5.180925e+000  8.739894e-001
      vertex -2.255000e+001 -3.356619e+000  9.888544e-001
    endloop
  endfacet
  facet normal -1.000000e+000  0.000000e+000  -0.000000e+000
    outer loop
      vertex -2.255000e+001 -5.276654e+000 -9.940287e-001
      vertex -2.255000e+001 -5.083626e+000 -7.191383e-001
      vertex -2.255000e+001 -3.356619e+000 -9.888544e-001
    endloop
  endfacet
  facet normal -1.000000e+000  0.000000e+000  0.000000e+000
    outer loop
      vertex -2.255000e+001 -3.356619e+000 -9.888544e-001
      vertex -2.255000e+001 -5.083626e+000 -7.191383e-001
      vertex -2.255000e+001 -4.956607e+000 -4.081873e-001
    endloop
  endfacet
  facet normal -9.999999e-001  0.000000e+000  0.000000e+000
    outer loop
      vertex -2.255000e+001 -3.356619e+000 -9.888544e-001
      vertex -2.255000e+001 -4.956607e+000 -4.081873e-001
      vertex -2.255000e+001 -3.239397e+000 -5.005903e-001
    endloop
  endfacet
  facet normal -1.000000e+000  0.000000e+000  0.000000e+000
    outer loop
      vertex -2.255000e+001 -3.239397e+000 -5.005903e-001
      vertex -2.255000e+001 -4.956607e+000 -4.081873e-001
      vertex -2.255000e+001 -4.901966e+000 -7.676803e-002
    endloop
  endfacet
  facet normal -1.000000e+000  0.000000e+000  0.000000e+000
    outer loop
      vertex -2.255000e+001 -3.239397e+000 -5.005903e-001
      vertex -2.255000e+001 -4.901966e+000 -7.676803e-002
      vertex -2.255000e+001 -3.200000e+000  0.000000e+000
    endloop
  endfacet
  facet normal -1.000000e+000  0.000000e+000  -0.000000e+000
    outer loop
      vertex -2.255000e+001 -5.819193e+000 -1.382991e+000
      vertex -2.255000e+001 -5.526011e+000 -1.219074e+000
      vertex -2.255000e+001 -3.548779e+000 -1.452770e+000
    endloop
  endfacet
  facet normal -1.000000e+000  0.000000e+000  0.000000e+000
    outer loop
      vertex -2.255000e+001 -3.548779e+000 -1.452770e+000
      vertex -2.255000e+001 -5.526011e+000 -1.219074e+000
      vertex -2.255000e+001 -5.276654e+000 -9.940287e-001
    endloop
  endfacet
  facet normal -1.000000e+000  0.000000e+000  0.000000e+000
    outer loop
      vertex -2.255000e+001 -3.548779e+000 -1.452770e+000
      vertex -2.255000e+001 -5.276654e+000 -9.940287e-001
      vertex -2.255000e+001 -3.356619e+000 -9.888544e-001
    endloop
  endfacet
  facet normal  1.000000e+000  0.000000e+000  0.000000e+000
    outer loop
      vertex  2.255000e+001 -6.980807e+000  1.382991e+000
      vertex  2.255000e+001 -9.443381e+000  9.888544e-001
      vertex  2.255000e+001 -7.273989e+000  1.219074e+000
    endloop
  endfacet
  facet normal  9.999999e-001  0.000000e+000  -0.000000e+000
    outer loop
      vertex  2.255000e+001 -9.443381e+000  9.888544e-001
      vertex  2.255000e+001 -7.523346e+000  9.940287e-001
      vertex  2.255000e+001 -7.273989e+000  1.219074e+000
    endloop
  endfacet
  facet normal  1.000000e+000  0.000000e+000  -0.000000e+000
    outer loop
      vertex  2.255000e+001 -5.405971e+000  1.123346e+000
      vertex  2.255000e+001 -5.180925e+000  8.739894e-001
      vertex  2.255000e+001 -3.356619e+000  9.888544e-001
    endloop
  endfacet
  facet normal  9.999999e-001  0.000000e+000  0.000000e+000
    outer loop
      vertex  2.255000e+001 -5.819193e+000 -1.382991e+000
      vertex  2.255000e+001 -6.141500e+000 -1.477558e+000
      vertex  2.255000e+001 -3.548779e+000 -1.452770e+000
    endloop
  endfacet
  facet normal  1.000000e+000  0.000000e+000  0.000000e+000
    outer loop
      vertex  2.255000e+001 -9.251221e+000  1.452770e+000
      vertex  2.255000e+001 -9.443381e+000  9.888544e-001
      vertex  2.255000e+001 -6.980807e+000  1.382991e+000
    endloop
  endfacet
  facet normal  1.000000e+000  0.000000e+000  -0.000000e+000
    outer loop
      vertex  2.255000e+001 -9.251221e+000  1.452770e+000
      vertex  2.255000e+001 -6.980807e+000  1.382991e+000
      vertex  2.255000e+001 -6.658501e+000  1.477558e+000
    endloop
  endfacet
  facet normal  1.000000e+000  0.000000e+000  0.000000e+000
    outer loop
      vertex  2.255000e+001 -9.251221e+000  1.452770e+000
      vertex  2.255000e+001 -6.658501e+000  1.477558e+000
      vertex  2.255000e+001 -6.900590e+000  3.160603e+000
    endloop
  endfacet
  facet normal  1.000000e+000  0.000000e+000  0.000000e+000
    outer loop
      vertex  2.255000e+001 -9.251221e+000  1.452770e+000
      vertex  2.255000e+001 -6.900590e+000  3.160603e+000
      vertex  2.255000e+001 -7.388855e+000  3.043381e+000
    endloop
  endfacet
  facet normal  1.000000e+000  0.000000e+000  0.000000e+000
    outer loop
      vertex  2.255000e+001 -9.251221e+000  1.452770e+000
      vertex  2.255000e+001 -7.388855e+000  3.043381e+000
      vertex  2.255000e+001 -7.852769e+000  2.851221e+000
    endloop
  endfacet
  facet normal  1.000000e+000  0.000000e+000  0.000000e+000
    outer loop
      vertex  2.255000e+001 -9.251221e+000  1.452770e+000
      vertex  2.255000e+001 -7.852769e+000  2.851221e+000
      vertex  2.255000e+001 -8.280912e+000  2.588854e+000
    endloop
  endfacet
  facet normal  1.000000e+000  0.000000e+000  0.000000e+000
    outer loop
      vertex  2.255000e+001 -9.251221e+000  1.452770e+000
      vertex  2.255000e+001 -8.280912e+000  2.588854e+000
      vertex  2.255000e+001 -8.662742e+000  2.262742e+000
    endloop
  endfacet
  facet normal  1.000000e+000  0.000000e+000  0.000000e+000
    outer loop
      vertex  2.255000e+001 -9.251221e+000  1.452770e+000
      vertex  2.255000e+001 -8.662742e+000  2.262742e+000
      vertex  2.255000e+001 -8.988854e+000  1.880913e+000
    endloop
  endfacet
  facet normal  1.000000e+000  0.000000e+000  -0.000000e+000
    outer loop
      vertex  2.255000e+001 -6.400000e+000 -3.200000e+000
      vertex  2.255000e+001 -5.899410e+000 -3.160603e+000
      vertex  2.255000e+001 -5.411146e+000 -3.043381e+000
    endloop
  endfacet
  facet normal  1.000000e+000  0.000000e+000  -0.000000e+000
    outer loop
      vertex  2.255000e+001 -6.400000e+000 -3.200000e+000
      vertex  2.255000e+001 -5.411146e+000 -3.043381e+000
      vertex  2.255000e+001 -4.947230e+000 -2.851221e+000
    endloop
  endfacet
  facet normal  1.000000e+000  0.000000e+000  -0.000000e+000
    outer loop
      vertex  2.255000e+001 -6.400000e+000 -3.200000e+000
      vertex  2.255000e+001 -4.947230e+000 -2.851221e+000
      vertex  2.255000e+001 -4.519087e+000 -2.588854e+000
    endloop
  endfacet
  facet normal  9.999999e-001  0.000000e+000  -0.000000e+000
    outer loop
      vertex  2.255000e+001 -6.400000e+000 -3.200000e+000
      vertex  2.255000e+001 -4.519087e+000 -2.588854e+000
      vertex  2.255000e+001 -4.137259e+000 -2.262742e+000
    endloop
  endfacet
  facet normal  1.000000e+000  0.000000e+000  -0.000000e+000
    outer loop
      vertex  2.255000e+001 -6.400000e+000 -3.200000e+000
      vertex  2.255000e+001 -4.137259e+000 -2.262742e+000
      vertex  2.255000e+001 -3.811146e+000 -1.880913e+000
    endloop
  endfacet
  facet normal  1.000000e+000  0.000000e+000  -0.000000e+000
    outer loop
      vertex  2.255000e+001 -6.400000e+000 -3.200000e+000
      vertex  2.255000e+001 -3.811146e+000 -1.880913e+000
      vertex  2.255000e+001 -3.548779e+000 -1.452770e+000
    endloop
  endfacet
  facet normal  1.000000e+000  0.000000e+000  0.000000e+000
    outer loop
      vertex  2.255000e+001 -6.400000e+000 -3.200000e+000
      vertex  2.255000e+001 -3.548779e+000 -1.452770e+000
      vertex  2.255000e+001 -6.141500e+000 -1.477558e+000
    endloop
  endfacet
  facet normal  1.000000e+000  0.000000e+000  0.000000e+000
    outer loop
      vertex  2.255000e+001 -6.400000e+000 -3.200000e+000
      vertex  2.255000e+001 -6.141500e+000 -1.477558e+000
      vertex  2.255000e+001 -6.476768e+000 -1.498034e+000
    endloop
  endfacet
  facet normal  1.000000e+000  0.000000e+000  0.000000e+000
    outer loop
      vertex  2.255000e+001 -6.400000e+000 -3.200000e+000
      vertex  2.255000e+001 -6.476768e+000 -1.498034e+000
      vertex  2.255000e+001 -8.988854e+000 -1.880913e+000
    endloop
  endfacet
  facet normal  1.000000e+000  0.000000e+000  0.000000e+000
    outer loop
      vertex  2.255000e+001 -6.400000e+000 -3.200000e+000
      vertex  2.255000e+001 -8.988854e+000 -1.880913e+000
      vertex  2.255000e+001 -8.662742e+000 -2.262742e+000
    endloop
  endfacet
  facet normal  1.000000e+000  0.000000e+000  0.000000e+000
    outer loop
      vertex  2.255000e+001 -6.400000e+000 -3.200000e+000
      vertex  2.255000e+001 -8.662742e+000 -2.262742e+000
      vertex  2.255000e+001 -8.280912e+000 -2.588854e+000
    endloop
  endfacet
  facet normal  1.000000e+000  0.000000e+000  0.000000e+000
    outer loop
      vertex  2.255000e+001 -6.400000e+000 -3.200000e+000
      vertex  2.255000e+001 -8.280912e+000 -2.588854e+000
      vertex  2.255000e+001 -7.852769e+000 -2.851221e+000
    endloop
  endfacet
  facet normal  1.000000e+000  0.000000e+000  0.000000e+000
    outer loop
      vertex  2.255000e+001 -6.400000e+000 -3.200000e+000
      vertex  2.255000e+001 -7.852769e+000 -2.851221e+000
      vertex  2.255000e+001 -7.388855e+000 -3.043381e+000
    endloop
  endfacet
  facet normal  1.000000e+000  0.000000e+000  0.000000e+000
    outer loop
      vertex  2.255000e+001 -6.400000e+000 -3.200000e+000
      vertex  2.255000e+001 -7.388855e+000 -3.043381e+000
      vertex  2.255000e+001 -6.900590e+000 -3.160603e+000
    endloop
  endfacet
  facet normal  1.000000e+000  0.000000e+000  -0.000000e+000
    outer loop
      vertex  2.255000e+001 -6.323232e+000  1.498034e+000
      vertex  2.255000e+001 -5.991813e+000  1.443393e+000
      vertex  2.255000e+001 -3.548779e+000  1.452770e+000
    endloop
  endfacet
  facet normal  1.000000e+000  0.000000e+000  0.000000e+000
    outer loop
      vertex  2.255000e+001 -6.323232e+000  1.498034e+000
      vertex  2.255000e+001 -3.548779e+000  1.452770e+000
      vertex  2.255000e+001 -3.811146e+000  1.880913e+000
    endloop
  endfacet
  facet normal  1.000000e+000  0.000000e+000  0.000000e+000
    outer loop
      vertex  2.255000e+001 -6.323232e+000  1.498034e+000
      vertex  2.255000e+001 -3.811146e+000  1.880913e+000
      vertex  2.255000e+001 -4.137259e+000  2.262742e+000
    endloop
  endfacet
  facet normal  1.000000e+000  0.000000e+000  0.000000e+000
    outer loop
      vertex  2.255000e+001 -6.323232e+000  1.498034e+000
      vertex  2.255000e+001 -4.137259e+000  2.262742e+000
      vertex  2.255000e+001 -4.519087e+000  2.588854e+000
    endloop
  endfacet
  facet normal  9.999999e-001  0.000000e+000  0.000000e+000
    outer loop
      vertex  2.255000e+001 -6.323232e+000  1.498034e+000
      vertex  2.255000e+001 -4.519087e+000  2.588854e+000
      vertex  2.255000e+001 -4.947230e+000  2.851221e+000
    endloop
  endfacet
  facet normal  1.000000e+000  0.000000e+000  0.000000e+000
    outer loop
      vertex  2.255000e+001 -6.323232e+000  1.498034e+000
      vertex  2.255000e+001 -4.947230e+000  2.851221e+000
      vertex  2.255000e+001 -5.411146e+000  3.043381e+000
    endloop
  endfacet
  facet normal  1.000000e+000  0.000000e+000  0.000000e+000
    outer loop
      vertex  2.255000e+001 -6.323232e+000  1.498034e+000
      vertex  2.255000e+001 -5.411146e+000  3.043381e+000
      vertex  2.255000e+001 -5.899410e+000  3.160603e+000
    endloop
  endfacet
  facet normal  1.000000e+000  0.000000e+000  0.000000e+000
    outer loop
      vertex  2.255000e+001 -6.323232e+000  1.498034e+000
      vertex  2.255000e+001 -5.899410e+000  3.160603e+000
      vertex  2.255000e+001 -6.400000e+000  3.200000e+000
    endloop
  endfacet
  facet normal  1.000000e+000  0.000000e+000  0.000000e+000
    outer loop
      vertex  2.255000e+001 -6.323232e+000  1.498034e+000
      vertex  2.255000e+001 -6.400000e+000  3.200000e+000
      vertex  2.255000e+001 -6.900590e+000  3.160603e+000
    endloop
  endfacet
  facet normal  1.000000e+000  0.000000e+000  0.000000e+000
    outer loop
      vertex  2.255000e+001 -6.323232e+000  1.498034e+000
      vertex  2.255000e+001 -6.900590e+000  3.160603e+000
      vertex  2.255000e+001 -6.658501e+000  1.477558e+000
    endloop
  endfacet
  facet normal  9.999999e-001  -0.000000e+000  0.000000e+000
    outer loop
      vertex  2.255000e+001 -7.523346e+000  9.940287e-001
      vertex  2.255000e+001 -9.443381e+000  9.888544e-001
      vertex  2.255000e+001 -7.716374e+000  7.191383e-001
    endloop
  endfacet
  facet normal  1.000000e+000  0.000000e+000  0.000000e+000
    outer loop
      vertex  2.255000e+001 -7.716374e+000  7.191383e-001
      vertex  2.255000e+001 -9.443381e+000  9.888544e-001
      vertex  2.255000e+001 -9.560603e+000  5.005903e-001
    endloop
  endfacet
  facet normal  1.000000e+000  -0.000000e+000  0.000000e+000
    outer loop
      vertex  2.255000e+001 -7.716374e+000  7.191383e-001
      vertex  2.255000e+001 -9.560603e+000  5.005903e-001
      vertex  2.255000e+001 -7.843393e+000  4.081873e-001
    endloop
  endfacet
  facet normal  1.000000e+000  0.000000e+000  0.000000e+000
    outer loop
      vertex  2.255000e+001 -7.843393e+000  4.081873e-001
      vertex  2.255000e+001 -9.560603e+000  5.005903e-001
      vertex  2.255000e+001 -7.898034e+000  7.676803e-002
    endloop
  endfacet
  facet normal  9.999999e-001  0.000000e+000  0.000000e+000
    outer loop
      vertex  2.255000e+001 -7.898034e+000  7.676803e-002
      vertex  2.255000e+001 -9.560603e+000  5.005903e-001
      vertex  2.255000e+001 -9.600000e+000  3.918870e-016
    endloop
  endfacet
  facet normal  1.000000e+000  -0.000000e+000  0.000000e+000
    outer loop
      vertex  2.255000e+001 -7.898034e+000  7.676803e-002
      vertex  2.255000e+001 -9.600000e+000  3.918870e-016
      vertex  2.255000e+001 -7.877558e+000 -2.585007e-001
    endloop
  endfacet
  facet normal  1.000000e+000  0.000000e+000  0.000000e+000
    outer loop
      vertex  2.255000e+001 -7.877558e+000 -2.585007e-001
      vertex  2.255000e+001 -9.600000e+000  3.918870e-016
      vertex  2.255000e+001 -9.560603e+000 -5.005903e-001
    endloop
  endfacet
  facet normal  1.000000e+000  -0.000000e+000  0.000000e+000
    outer loop
      vertex  2.255000e+001 -7.877558e+000 -2.585007e-001
      vertex  2.255000e+001 -9.560603e+000 -5.005903e-001
      vertex  2.255000e+001 -7.782990e+000 -5.808071e-001
    endloop
  endfacet
  facet normal  1.000000e+000  0.000000e+000  0.000000e+000
    outer loop
      vertex  2.255000e+001 -7.782990e+000 -5.808071e-001
      vertex  2.255000e+001 -9.560603e+000 -5.005903e-001
      vertex  2.255000e+001 -7.619074e+000 -8.739894e-001
    endloop
  endfacet
  facet normal  9.999999e-001  0.000000e+000  0.000000e+000
    outer loop
      vertex  2.255000e+001 -7.619074e+000 -8.739894e-001
      vertex  2.255000e+001 -9.560603e+000 -5.005903e-001
      vertex  2.255000e+001 -9.443381e+000 -9.888544e-001
    endloop
  endfacet
  facet normal  1.000000e+000  -0.000000e+000  0.000000e+000
    outer loop
      vertex  2.255000e+001 -7.619074e+000 -8.739894e-001
      vertex  2.255000e+001 -9.443381e+000 -9.888544e-001
      vertex  2.255000e+001 -7.394029e+000 -1.123346e+000
    endloop
  endfacet
  facet normal  1.000000e+000  0.000000e+000  0.000000e+000
    outer loop
      vertex  2.255000e+001 -7.394029e+000 -1.123346e+000
      vertex  2.255000e+001 -9.443381e+000 -9.888544e-001
      vertex  2.255000e+001 -9.251221e+000 -1.452770e+000
    endloop
  endfacet
  facet normal  1.000000e+000  0.000000e+000  0.000000e+000
    outer loop
      vertex  2.255000e+001 -7.394029e+000 -1.123346e+000
      vertex  2.255000e+001 -9.251221e+000 -1.452770e+000
      vertex  2.255000e+001 -7.119138e+000 -1.316374e+000
    endloop
  endfacet
  facet normal  1.000000e+000  0.000000e+000  0.000000e+000
    outer loop
      vertex  2.255000e+001 -8.988854e+000 -1.880913e+000
      vertex  2.255000e+001 -6.476768e+000 -1.498034e+000
      vertex  2.255000e+001 -9.251221e+000 -1.452770e+000
    endloop
  endfacet
  facet normal  1.000000e+000  -0.000000e+000  0.000000e+000
    outer loop
      vertex  2.255000e+001 -9.251221e+000 -1.452770e+000
      vertex  2.255000e+001 -6.476768e+000 -1.498034e+000
      vertex  2.255000e+001 -6.808187e+000 -1.443393e+000
    endloop
  endfacet
  facet normal  1.000000e+000  0.000000e+000  0.000000e+000
    outer loop
      vertex  2.255000e+001 -9.251221e+000 -1.452770e+000
      vertex  2.255000e+001 -6.808187e+000 -1.443393e+000
      vertex  2.255000e+001 -7.119138e+000 -1.316374e+000
    endloop
  endfacet
  facet normal  1.000000e+000  -0.000000e+000  0.000000e+000
    outer loop
      vertex  2.255000e+001 -3.548779e+000  1.452770e+000
      vertex  2.255000e+001 -5.991813e+000  1.443393e+000
      vertex  2.255000e+001 -3.356619e+000  9.888544e-001
    endloop
  endfacet
  facet normal  1.000000e+000  0.000000e+000  0.000000e+000
    outer loop
      vertex  2.255000e+001 -3.356619e+000  9.888544e-001
      vertex  2.255000e+001 -5.991813e+000  1.443393e+000
      vertex  2.255000e+001 -5.680861e+000  1.316374e+000
    endloop
  endfacet
  facet normal  1.000000e+000  0.000000e+000  0.000000e+000
    outer loop
      vertex  2.255000e+001 -3.356619e+000  9.888544e-001
      vertex  2.255000e+001 -5.680861e+000  1.316374e+000
      vertex  2.255000e+001 -5.405971e+000  1.123346e+000
    endloop
  endfacet
  facet normal  1.000000e+000  -0.000000e+000  0.000000e+000
    outer loop
      vertex  2.255000e+001 -3.356619e+000  9.888544e-001
      vertex  2.255000e+001 -5.180925e+000  8.739894e-001
      vertex  2.255000e+001 -3.239397e+000  5.005903e-001
    endloop
  endfacet
  facet normal  1.000000e+000  0.000000e+000  0.000000e+000
    outer loop
      vertex  2.255000e+001 -3.239397e+000  5.005903e-001
      vertex  2.255000e+001 -5.180925e+000  8.739894e-001
      vertex  2.255000e+001 -5.017009e+000  5.808071e-001
    endloop
  endfacet
  facet normal  1.000000e+000  0.000000e+000  0.000000e+000
    outer loop
      vertex  2.255000e+001 -3.239397e+000  5.005903e-001
      vertex  2.255000e+001 -5.017009e+000  5.808071e-001
      vertex  2.255000e+001 -3.200000e+000  0.000000e+000
    endloop
  endfacet
  facet normal  1.000000e+000  0.000000e+000  0.000000e+000
    outer loop
      vertex  2.255000e+001 -3.200000e+000  0.000000e+000
      vertex  2.255000e+001 -5.017009e+000  5.808071e-001
      vertex  2.255000e+001 -4.922442e+000  2.585007e-001
    endloop
  endfacet
  facet normal  1.000000e+000  0.000000e+000  0.000000e+000
    outer loop
      vertex  2.255000e+001 -3.200000e+000  0.000000e+000
      vertex  2.255000e+001 -4.922442e+000  2.585007e-001
      vertex  2.255000e+001 -4.901966e+000 -7.676803e-002
    endloop
  endfacet
  facet normal  1.000000e+000  -0.000000e+000  0.000000e+000
    outer loop
      vertex  2.255000e+001 -3.200000e+000  0.000000e+000
      vertex  2.255000e+001 -4.901966e+000 -7.676803e-002
      vertex  2.255000e+001 -3.239397e+000 -5.005903e-001
    endloop
  endfacet
  facet normal  1.000000e+000  0.000000e+000  0.000000e+000
    outer loop
      vertex  2.255000e+001 -3.239397e+000 -5.005903e-001
      vertex  2.255000e+001 -4.901966e+000 -7.676803e-002
      vertex  2.255000e+001 -4.956607e+000 -4.081873e-001
    endloop
  endfacet
  facet normal  9.999999e-001  0.000000e+000  0.000000e+000
    outer loop
      vertex  2.255000e+001 -3.239397e+000 -5.005903e-001
      vertex  2.255000e+001 -4.956607e+000 -4.081873e-001
      vertex  2.255000e+001 -3.356619e+000 -9.888544e-001
    endloop
  endfacet
  facet normal  1.000000e+000  0.000000e+000  0.000000e+000
    outer loop
      vertex  2.255000e+001 -3.356619e+000 -9.888544e-001
      vertex  2.255000e+001 -4.956607e+000 -4.081873e-001
      vertex  2.255000e+001 -5.083626e+000 -7.191383e-001
    endloop
  endfacet
  facet normal  1.000000e+000  0.000000e+000  0.000000e+000
    outer loop
      vertex  2.255000e+001 -3.356619e+000 -9.888544e-001
      vertex  2.255000e+001 -5.083626e+000 -7.191383e-001
      vertex  2.255000e+001 -5.276654e+000 -9.940287e-001
    endloop
  endfacet
  facet normal  1.000000e+000  -0.000000e+000  0.000000e+000
    outer loop
      vertex  2.255000e+001 -3.356619e+000 -9.888544e-001
      vertex  2.255000e+001 -5.276654e+000 -9.940287e-001
      vertex  2.255000e+001 -3.548779e+000 -1.452770e+000
    endloop
  endfacet
  facet normal  1.000000e+000  0.000000e+000  0.000000e+000
    outer loop
      vertex  2.255000e+001 -3.548779e+000 -1.452770e+000
      vertex  2.255000e+001 -5.276654e+000 -9.940287e-001
      vertex  2.255000e+001 -5.526011e+000 -1.219074e+000
    endloop
  endfacet
  facet normal  1.000000e+000  0.000000e+000  0.000000e+000
    outer loop
      vertex  2.255000e+001 -3.548779e+000 -1.452770e+000
      vertex  2.255000e+001 -5.526011e+000 -1.219074e+000
      vertex  2.255000e+001 -5.819193e+000 -1.382991e+000
    endloop
  endfacet
  facet normal  -0.000000e+000  5.746689e-001  8.183859e-001
    outer loop
      vertex  2.255000e+001 -7.119138e+000 -1.316374e+000
      vertex -2.255000e+001 -7.394029e+000 -1.123346e+000
      vertex  2.255000e+001 -7.394029e+000 -1.123346e+000
    endloop
  endfacet
  facet normal  0.000000e+000  7.423691e-001  6.699912e-001
    outer loop
      vertex  2.255000e+001 -7.394029e+000 -1.123346e+000
      vertex -2.255000e+001 -7.394029e+000 -1.123346e+000
      vertex -2.255000e+001 -7.619074e+000 -8.739894e-001
    endloop
  endfacet
  facet normal  -0.000000e+000  7.423691e-001  6.699912e-001
    outer loop
      vertex  2.255000e+001 -7.394029e+000 -1.123346e+000
      vertex -2.255000e+001 -7.619074e+000 -8.739894e-001
      vertex  2.255000e+001 -7.619074e+000 -8.739894e-001
    endloop
  endfacet
  facet normal  0.000000e+000  8.728434e-001  4.880004e-001
    outer loop
      vertex  2.255000e+001 -7.619074e+000 -8.739894e-001
      vertex -2.255000e+001 -7.619074e+000 -8.739894e-001
      vertex -2.255000e+001 -7.782990e+000 -5.808071e-001
    endloop
  endfacet
  facet normal  -0.000000e+000  8.728434e-001  4.880004e-001
    outer loop
      vertex  2.255000e+001 -7.619074e+000 -8.739894e-001
      vertex -2.255000e+001 -7.782990e+000 -5.808071e-001
      vertex  2.255000e+001 -7.782990e+000 -5.808071e-001
    endloop
  endfacet
  facet normal  0.000000e+000  9.595496e-001  2.815396e-001
    outer loop
      vertex  2.255000e+001 -7.782990e+000 -5.808071e-001
      vertex -2.255000e+001 -7.782990e+000 -5.808071e-001
      vertex -2.255000e+001 -7.877558e+000 -2.585007e-001
    endloop
  endfacet
  facet normal  -0.000000e+000  9.595496e-001  2.815396e-001
    outer loop
      vertex  2.255000e+001 -7.782990e+000 -5.808071e-001
      vertex -2.255000e+001 -7.877558e+000 -2.585007e-001
      vertex  2.255000e+001 -7.877558e+000 -2.585007e-001
    endloop
  endfacet
  facet normal  0.000000e+000  9.981402e-001  6.096082e-002
    outer loop
      vertex  2.255000e+001 -7.877558e+000 -2.585007e-001
      vertex -2.255000e+001 -7.877558e+000 -2.585007e-001
      vertex -2.255000e+001 -7.898034e+000  7.676803e-002
    endloop
  endfacet
  facet normal  -0.000000e+000  9.981402e-001  6.096082e-002
    outer loop
      vertex  2.255000e+001 -7.877558e+000 -2.585007e-001
      vertex -2.255000e+001 -7.898034e+000  7.676803e-002
      vertex  2.255000e+001 -7.898034e+000  7.676803e-002
    endloop
  endfacet
  facet normal  0.000000e+000  9.866797e-001 -1.626744e-001
    outer loop
      vertex  2.255000e+001 -7.898034e+000  7.676803e-002
      vertex -2.255000e+001 -7.898034e+000  7.676803e-002
      vertex -2.255000e+001 -7.843393e+000  4.081873e-001
    endloop
  endfacet
  facet normal  0.000000e+000  9.866797e-001 -1.626744e-001
    outer loop
      vertex  2.255000e+001 -7.898034e+000  7.676803e-002
      vertex -2.255000e+001 -7.843393e+000  4.081873e-001
      vertex  2.255000e+001 -7.843393e+000  4.081873e-001
    endloop
  endfacet
  facet normal  0.000000e+000  9.257433e-001 -3.781525e-001
    outer loop
      vertex  2.255000e+001 -7.843393e+000  4.081873e-001
      vertex -2.255000e+001 -7.843393e+000  4.081873e-001
      vertex -2.255000e+001 -7.716374e+000  7.191383e-001
    endloop
  endfacet
  facet normal  0.000000e+000  9.257433e-001 -3.781525e-001
    outer loop
      vertex  2.255000e+001 -7.843393e+000  4.081873e-001
      vertex -2.255000e+001 -7.716374e+000  7.191383e-001
      vertex  2.255000e+001 -7.716374e+000  7.191383e-001
    endloop
  endfacet
  facet normal  0.000000e+000  5.746689e-001  8.183859e-001
    outer loop
      vertex -2.255000e+001 -7.394029e+000 -1.123346e+000
      vertex  2.255000e+001 -7.119138e+000 -1.316374e+000
      vertex -2.255000e+001 -7.119138e+000 -1.316374e+000
    endloop
  endfacet
  facet normal  -0.000000e+000  3.781531e-001  9.257430e-001
    outer loop
      vertex -2.255000e+001 -7.119138e+000 -1.316374e+000
      vertex  2.255000e+001 -7.119138e+000 -1.316374e+000
      vertex  2.255000e+001 -6.808187e+000 -1.443393e+000
    endloop
  endfacet
  facet normal  0.000000e+000  3.781531e-001  9.257430e-001
    outer loop
      vertex -2.255000e+001 -7.119138e+000 -1.316374e+000
      vertex  2.255000e+001 -6.808187e+000 -1.443393e+000
      vertex -2.255000e+001 -6.808187e+000 -1.443393e+000
    endloop
  endfacet
  facet normal  -0.000000e+000  1.626746e-001  9.866798e-001
    outer loop
      vertex -2.255000e+001 -6.808187e+000 -1.443393e+000
      vertex  2.255000e+001 -6.808187e+000 -1.443393e+000
      vertex  2.255000e+001 -6.476768e+000 -1.498034e+000
    endloop
  endfacet
  facet normal  0.000000e+000  1.626746e-001  9.866798e-001
    outer loop
      vertex -2.255000e+001 -6.808187e+000 -1.443393e+000
      vertex  2.255000e+001 -6.476768e+000 -1.498034e+000
      vertex -2.255000e+001 -6.476768e+000 -1.498034e+000
    endloop
  endfacet
  facet normal  0.000000e+000 -6.096087e-002  9.981402e-001
    outer loop
      vertex -2.255000e+001 -6.476768e+000 -1.498034e+000
      vertex  2.255000e+001 -6.476768e+000 -1.498034e+000
      vertex  2.255000e+001 -6.141500e+000 -1.477558e+000
    endloop
  endfacet
  facet normal  0.000000e+000 -6.096087e-002  9.981402e-001
    outer loop
      vertex -2.255000e+001 -6.476768e+000 -1.498034e+000
      vertex  2.255000e+001 -6.141500e+000 -1.477558e+000
      vertex -2.255000e+001 -6.141500e+000 -1.477558e+000
    endloop
  endfacet
  facet normal  0.000000e+000 -2.815394e-001  9.595497e-001
    outer loop
      vertex -2.255000e+001 -6.141500e+000 -1.477558e+000
      vertex  2.255000e+001 -6.141500e+000 -1.477558e+000
      vertex  2.255000e+001 -5.819193e+000 -1.382991e+000
    endloop
  endfacet
  facet normal  0.000000e+000 -2.815394e-001  9.595497e-001
    outer loop
      vertex -2.255000e+001 -6.141500e+000 -1.477558e+000
      vertex  2.255000e+001 -5.819193e+000 -1.382991e+000
      vertex -2.255000e+001 -5.819193e+000 -1.382991e+000
    endloop
  endfacet
  facet normal  0.000000e+000 -4.880004e-001  8.728434e-001
    outer loop
      vertex -2.255000e+001 -5.819193e+000 -1.382991e+000
      vertex  2.255000e+001 -5.819193e+000 -1.382991e+000
      vertex  2.255000e+001 -5.526011e+000 -1.219074e+000
    endloop
  endfacet
  facet normal  0.000000e+000 -4.880004e-001  8.728434e-001
    outer loop
      vertex -2.255000e+001 -5.819193e+000 -1.382991e+000
      vertex  2.255000e+001 -5.526011e+000 -1.219074e+000
      vertex -2.255000e+001 -5.526011e+000 -1.219074e+000
    endloop
  endfacet
  facet normal  0.000000e+000 -6.699916e-001  7.423686e-001
    outer loop
      vertex -2.255000e+001 -5.526011e+000 -1.219074e+000
      vertex  2.255000e+001 -5.526011e+000 -1.219074e+000
      vertex  2.255000e+001 -5.276654e+000 -9.940287e-001
    endloop
  endfacet
  facet normal  0.000000e+000 -6.699916e-001  7.423686e-001
    outer loop
      vertex -2.255000e+001 -5.526011e+000 -1.219074e+000
      vertex  2.255000e+001 -5.276654e+000 -9.940287e-001
      vertex -2.255000e+001 -5.276654e+000 -9.940287e-001
    endloop
  endfacet
  facet normal  0.000000e+000 -8.183859e-001  5.746689e-001
    outer loop
      vertex -2.255000e+001 -5.276654e+000 -9.940287e-001
      vertex  2.255000e+001 -5.276654e+000 -9.940287e-001
      vertex  2.255000e+001 -5.083626e+000 -7.191383e-001
    endloop
  endfacet
  facet normal  0.000000e+000 -8.183859e-001  5.746689e-001
    outer loop
      vertex -2.255000e+001 -5.276654e+000 -9.940287e-001
      vertex  2.255000e+001 -5.083626e+000 -7.191383e-001
      vertex -2.255000e+001 -5.083626e+000 -7.191383e-001
    endloop
  endfacet
  facet normal  0.000000e+000 -9.969174e-001  7.845896e-002
    outer loop
      vertex -2.255000e+001 -9.600000e+000  3.918870e-016
      vertex  2.255000e+001 -9.600000e+000  3.918870e-016
      vertex -2.255000e+001 -9.560603e+000  5.005903e-001
    endloop
  endfacet
  facet normal  0.000000e+000 -9.969174e-001  7.845896e-002
    outer loop
      vertex -2.255000e+001 -9.560603e+000  5.005903e-001
      vertex  2.255000e+001 -9.600000e+000  3.918870e-016
      vertex  2.255000e+001 -9.560603e+000  5.005903e-001
    endloop
  endfacet
  facet normal  0.000000e+000 -9.723700e-001  2.334454e-001
    outer loop
      vertex -2.255000e+001 -9.560603e+000  5.005903e-001
      vertex  2.255000e+001 -9.560603e+000  5.005903e-001
      vertex -2.255000e+001 -9.443381e+000  9.888544e-001
    endloop
  endfacet
  facet normal  0.000000e+000 -9.723700e-001  2.334454e-001
    outer loop
      vertex -2.255000e+001 -9.443381e+000  9.888544e-001
      vertex  2.255000e+001 -9.560603e+000  5.005903e-001
      vertex  2.255000e+001 -9.443381e+000  9.888544e-001
    endloop
  endfacet
  facet normal  0.000000e+000 -9.238791e-001  3.826845e-001
    outer loop
      vertex -2.255000e+001 -9.443381e+000  9.888544e-001
      vertex  2.255000e+001 -9.443381e+000  9.888544e-001
      vertex -2.255000e+001 -9.251221e+000  1.452770e+000
    endloop
  endfacet
  facet normal  0.000000e+000 -9.238791e-001  3.826845e-001
    outer loop
      vertex -2.255000e+001 -9.251221e+000  1.452770e+000
      vertex  2.255000e+001 -9.443381e+000  9.888544e-001
      vertex  2.255000e+001 -9.251221e+000  1.452770e+000
    endloop
  endfacet
  facet normal  0.000000e+000 -8.526403e-001  5.224984e-001
    outer loop
      vertex -2.255000e+001 -9.251221e+000  1.452770e+000
      vertex  2.255000e+001 -9.251221e+000  1.452770e+000
      vertex -2.255000e+001 -8.988854e+000  1.880913e+000
    endloop
  endfacet
  facet normal  0.000000e+000 -8.526403e-001  5.224984e-001
    outer loop
      vertex -2.255000e+001 -8.988854e+000  1.880913e+000
      vertex  2.255000e+001 -9.251221e+000  1.452770e+000
      vertex  2.255000e+001 -8.988854e+000  1.880913e+000
    endloop
  endfacet
  facet normal  0.000000e+000 -7.604060e-001  6.494480e-001
    outer loop
      vertex -2.255000e+001 -8.988854e+000  1.880913e+000
      vertex  2.255000e+001 -8.988854e+000  1.880913e+000
      vertex -2.255000e+001 -8.662742e+000  2.262742e+000
    endloop
  endfacet
  facet normal  0.000000e+000 -7.604060e-001  6.494480e-001
    outer loop
      vertex -2.255000e+001 -8.662742e+000  2.262742e+000
      vertex  2.255000e+001 -8.988854e+000  1.880913e+000
      vertex  2.255000e+001 -8.662742e+000  2.262742e+000
    endloop
  endfacet
  facet normal  0.000000e+000 -6.494475e-001  7.604064e-001
    outer loop
      vertex -2.255000e+001 -8.662742e+000  2.262742e+000
      vertex  2.255000e+001 -8.662742e+000  2.262742e+000
      vertex -2.255000e+001 -8.280912e+000  2.588854e+000
    endloop
  endfacet
  facet normal  0.000000e+000 -6.494475e-001  7.604064e-001
    outer loop
      vertex -2.255000e+001 -8.280912e+000  2.588854e+000
      vertex  2.255000e+001 -8.662742e+000  2.262742e+000
      vertex  2.255000e+001 -8.280912e+000  2.588854e+000
    endloop
  endfacet
  facet normal  0.000000e+000 -5.224988e-001  8.526400e-001
    outer loop
      vertex -2.255000e+001 -8.280912e+000  2.588854e+000
      vertex  2.255000e+001 -8.280912e+000  2.588854e+000
      vertex -2.255000e+001 -7.852769e+000  2.851221e+000
    endloop
  endfacet
  facet normal  0.000000e+000 -5.224988e-001  8.526400e-001
    outer loop
      vertex -2.255000e+001 -7.852769e+000  2.851221e+000
      vertex  2.255000e+001 -8.280912e+000  2.588854e+000
      vertex  2.255000e+001 -7.852769e+000  2.851221e+000
    endloop
  endfacet
  facet normal  0.000000e+000 -3.826835e-001  9.238796e-001
    outer loop
      vertex -2.255000e+001 -7.852769e+000  2.851221e+000
      vertex  2.255000e+001 -7.852769e+000  2.851221e+000
      vertex -2.255000e+001 -7.388855e+000  3.043381e+000
    endloop
  endfacet
  facet normal  0.000000e+000 -3.826835e-001  9.238796e-001
    outer loop
      vertex -2.255000e+001 -7.388855e+000  3.043381e+000
      vertex  2.255000e+001 -7.852769e+000  2.851221e+000
      vertex  2.255000e+001 -7.388855e+000  3.043381e+000
    endloop
  endfacet
  facet normal  0.000000e+000 -2.334458e-001  9.723698e-001
    outer loop
      vertex -2.255000e+001 -7.388855e+000  3.043381e+000
      vertex  2.255000e+001 -7.388855e+000  3.043381e+000
      vertex -2.255000e+001 -6.900590e+000  3.160603e+000
    endloop
  endfacet
  facet normal  0.000000e+000 -2.334458e-001  9.723698e-001
    outer loop
      vertex -2.255000e+001 -6.900590e+000  3.160603e+000
      vertex  2.255000e+001 -7.388855e+000  3.043381e+000
      vertex  2.255000e+001 -6.900590e+000  3.160603e+000
    endloop
  endfacet
  facet normal  0.000000e+000 -7.845896e-002  9.969174e-001
    outer loop
      vertex -2.255000e+001 -6.900590e+000  3.160603e+000
      vertex  2.255000e+001 -6.900590e+000  3.160603e+000
      vertex -2.255000e+001 -6.400000e+000  3.200000e+000
    endloop
  endfacet
  facet normal  0.000000e+000 -7.845896e-002  9.969174e-001
    outer loop
      vertex -2.255000e+001 -6.400000e+000  3.200000e+000
      vertex  2.255000e+001 -6.900590e+000  3.160603e+000
      vertex  2.255000e+001 -6.400000e+000  3.200000e+000
    endloop
  endfacet
  facet normal  0.000000e+000  7.845896e-002  9.969174e-001
    outer loop
      vertex -2.255000e+001 -6.400000e+000  3.200000e+000
      vertex  2.255000e+001 -6.400000e+000  3.200000e+000
      vertex -2.255000e+001 -5.899410e+000  3.160603e+000
    endloop
  endfacet
  facet normal  -0.000000e+000  7.845896e-002  9.969174e-001
    outer loop
      vertex -2.255000e+001 -5.899410e+000  3.160603e+000
      vertex  2.255000e+001 -6.400000e+000  3.200000e+000
      vertex  2.255000e+001 -5.899410e+000  3.160603e+000
    endloop
  endfacet
  facet normal  0.000000e+000  2.334458e-001  9.723698e-001
    outer loop
      vertex -2.255000e+001 -5.899410e+000  3.160603e+000
      vertex  2.255000e+001 -5.899410e+000  3.160603e+000
      vertex -2.255000e+001 -5.411146e+000  3.043381e+000
    endloop
  endfacet
  facet normal  -0.000000e+000  2.334458e-001  9.723698e-001
    outer loop
      vertex -2.255000e+001 -5.411146e+000  3.043381e+000
      vertex  2.255000e+001 -5.899410e+000  3.160603e+000
      vertex  2.255000e+001 -5.411146e+000  3.043381e+000
    endloop
  endfacet
  facet normal  0.000000e+000  3.826832e-001  9.238796e-001
    outer loop
      vertex -2.255000e+001 -5.411146e+000  3.043381e+000
      vertex  2.255000e+001 -5.411146e+000  3.043381e+000
      vertex -2.255000e+001 -4.947230e+000  2.851221e+000
    endloop
  endfacet
  facet normal  -0.000000e+000  3.826832e-001  9.238796e-001
    outer loop
      vertex -2.255000e+001 -4.947230e+000  2.851221e+000
      vertex  2.255000e+001 -5.411146e+000  3.043381e+000
      vertex  2.255000e+001 -4.947230e+000  2.851221e+000
    endloop
  endfacet
  facet normal  0.000000e+000  5.224988e-001  8.526400e-001
    outer loop
      vertex -2.255000e+001 -4.947230e+000  2.851221e+000
      vertex  2.255000e+001 -4.947230e+000  2.851221e+000
      vertex -2.255000e+001 -4.519087e+000  2.588854e+000
    endloop
  endfacet
  facet normal  -0.000000e+000  5.224988e-001  8.526400e-001
    outer loop
      vertex -2.255000e+001 -4.519087e+000  2.588854e+000
      vertex  2.255000e+001 -4.947230e+000  2.851221e+000
      vertex  2.255000e+001 -4.519087e+000  2.588854e+000
    endloop
  endfacet
  facet normal  0.000000e+000  6.494479e-001  7.604060e-001
    outer loop
      vertex -2.255000e+001 -4.519087e+000  2.588854e+000
      vertex  2.255000e+001 -4.519087e+000  2.588854e+000
      vertex -2.255000e+001 -4.137259e+000  2.262742e+000
    endloop
  endfacet
  facet normal  -0.000000e+000  6.494479e-001  7.604060e-001
    outer loop
      vertex -2.255000e+001 -4.137259e+000  2.262742e+000
      vertex  2.255000e+001 -4.519087e+000  2.588854e+000
      vertex  2.255000e+001 -4.137259e+000  2.262742e+000
    endloop
  endfacet
  facet normal  0.000000e+000  7.604057e-001  6.494483e-001
    outer loop
      vertex -2.255000e+001 -4.137259e+000  2.262742e+000
      vertex  2.255000e+001 -4.137259e+000  2.262742e+000
      vertex -2.255000e+001 -3.811146e+000  1.880913e+000
    endloop
  endfacet
  facet normal  -0.000000e+000  7.604057e-001  6.494483e-001
    outer loop
      vertex -2.255000e+001 -3.811146e+000  1.880913e+000
      vertex  2.255000e+001 -4.137259e+000  2.262742e+000
      vertex  2.255000e+001 -3.811146e+000  1.880913e+000
    endloop
  endfacet
  facet normal  0.000000e+000  8.526402e-001  5.224987e-001
    outer loop
      vertex -2.255000e+001 -3.811146e+000  1.880913e+000
      vertex  2.255000e+001 -3.811146e+000  1.880913e+000
      vertex -2.255000e+001 -3.548779e+000  1.452770e+000
    endloop
  endfacet
  facet normal  -0.000000e+000  8.526402e-001  5.224987e-001
    outer loop
      vertex -2.255000e+001 -3.548779e+000  1.452770e+000
      vertex  2.255000e+001 -3.811146e+000  1.880913e+000
      vertex  2.255000e+001 -3.548779e+000  1.452770e+000
    endloop
  endfacet
  facet normal  0.000000e+000  9.238796e-001  3.826832e-001
    outer loop
      vertex -2.255000e+001 -3.548779e+000  1.452770e+000
      vertex  2.255000e+001 -3.548779e+000  1.452770e+000
      vertex -2.255000e+001 -3.356619e+000  9.888544e-001
    endloop
  endfacet
  facet normal  -0.000000e+000  9.238796e-001  3.826832e-001
    outer loop
      vertex -2.255000e+001 -3.356619e+000  9.888544e-001
      vertex  2.255000e+001 -3.548779e+000  1.452770e+000
      vertex  2.255000e+001 -3.356619e+000  9.888544e-001
    endloop
  endfacet
  facet normal  0.000000e+000  9.723700e-001  2.334454e-001
    outer loop
      vertex -2.255000e+001 -3.356619e+000  9.888544e-001
      vertex  2.255000e+001 -3.356619e+000  9.888544e-001
      vertex -2.255000e+001 -3.239397e+000  5.005903e-001
    endloop
  endfacet
  facet normal  -0.000000e+000  9.723700e-001  2.334454e-001
    outer loop
      vertex -2.255000e+001 -3.239397e+000  5.005903e-001
      vertex  2.255000e+001 -3.356619e+000  9.888544e-001
      vertex  2.255000e+001 -3.239397e+000  5.005903e-001
    endloop
  endfacet
  facet normal  0.000000e+000  9.969174e-001  7.845896e-002
    outer loop
      vertex -2.255000e+001 -3.239397e+000  5.005903e-001
      vertex  2.255000e+001 -3.239397e+000  5.005903e-001
      vertex -2.255000e+001 -3.200000e+000  0.000000e+000
    endloop
  endfacet
  facet normal  -0.000000e+000  9.969174e-001  7.845896e-002
    outer loop
      vertex -2.255000e+001 -3.200000e+000  0.000000e+000
      vertex  2.255000e+001 -3.239397e+000  5.005903e-001
      vertex  2.255000e+001 -3.200000e+000  0.000000e+000
    endloop
  endfacet
  facet normal  0.000000e+000  9.969174e-001 -7.845896e-002
    outer loop
      vertex -2.255000e+001 -3.200000e+000  0.000000e+000
      vertex  2.255000e+001 -3.200000e+000  0.000000e+000
      vertex -2.255000e+001 -3.239397e+000 -5.005903e-001
    endloop
  endfacet
  facet normal  0.000000e+000  9.969174e-001 -7.845896e-002
    outer loop
      vertex -2.255000e+001 -3.239397e+000 -5.005903e-001
      vertex  2.255000e+001 -3.200000e+000  0.000000e+000
      vertex  2.255000e+001 -3.239397e+000 -5.005903e-001
    endloop
  endfacet
  facet normal  0.000000e+000  9.723700e-001 -2.334454e-001
    outer loop
      vertex -2.255000e+001 -3.239397e+000 -5.005903e-001
      vertex  2.255000e+001 -3.239397e+000 -5.005903e-001
      vertex -2.255000e+001 -3.356619e+000 -9.888544e-001
    endloop
  endfacet
  facet normal  0.000000e+000  9.723700e-001 -2.334454e-001
    outer loop
      vertex -2.255000e+001 -3.356619e+000 -9.888544e-001
      vertex  2.255000e+001 -3.239397e+000 -5.005903e-001
      vertex  2.255000e+001 -3.356619e+000 -9.888544e-001
    endloop
  endfacet
  facet normal  0.000000e+000  9.238796e-001 -3.826832e-001
    outer loop
      vertex -2.255000e+001 -3.356619e+000 -9.888544e-001
      vertex  2.255000e+001 -3.356619e+000 -9.888544e-001
      vertex -2.255000e+001 -3.548779e+000 -1.452770e+000
    endloop
  endfacet
  facet normal  0.000000e+000  9.238796e-001 -3.826832e-001
    outer loop
      vertex -2.255000e+001 -3.548779e+000 -1.452770e+000
      vertex  2.255000e+001 -3.356619e+000 -9.888544e-001
      vertex  2.255000e+001 -3.548779e+000 -1.452770e+000
    endloop
  endfacet
  facet normal  0.000000e+000  8.526402e-001 -5.224987e-001
    outer loop
      vertex -2.255000e+001 -3.548779e+000 -1.452770e+000
      vertex  2.255000e+001 -3.548779e+000 -1.452770e+000
      vertex -2.255000e+001 -3.811146e+000 -1.880913e+000
    endloop
  endfacet
  facet normal  0.000000e+000  8.526402e-001 -5.224987e-001
    outer loop
      vertex -2.255000e+001 -3.811146e+000 -1.880913e+000
      vertex  2.255000e+001 -3.548779e+000 -1.452770e+000
      vertex  2.255000e+001 -3.811146e+000 -1.880913e+000
    endloop
  endfacet
  facet normal  0.000000e+000  7.604057e-001 -6.494483e-001
    outer loop
      vertex -2.255000e+001 -3.811146e+000 -1.880913e+000
      vertex  2.255000e+001 -3.811146e+000 -1.880913e+000
      vertex -2.255000e+001 -4.137259e+000 -2.262742e+000
    endloop
  endfacet
  facet normal  0.000000e+000  7.604057e-001 -6.494483e-001
    outer loop
      vertex -2.255000e+001 -4.137259e+000 -2.262742e+000
      vertex  2.255000e+001 -3.811146e+000 -1.880913e+000
      vertex  2.255000e+001 -4.137259e+000 -2.262742e+000
    endloop
  endfacet
  facet normal  0.000000e+000  6.494479e-001 -7.604060e-001
    outer loop
      vertex -2.255000e+001 -4.137259e+000 -2.262742e+000
      vertex  2.255000e+001 -4.137259e+000 -2.262742e+000
      vertex -2.255000e+001 -4.519087e+000 -2.588854e+000
    endloop
  endfacet
  facet normal  0.000000e+000  6.494479e-001 -7.604060e-001
    outer loop
      vertex -2.255000e+001 -4.519087e+000 -2.588854e+000
      vertex  2.255000e+001 -4.137259e+000 -2.262742e+000
      vertex  2.255000e+001 -4.519087e+000 -2.588854e+000
    endloop
  endfacet
  facet normal  0.000000e+000  5.224988e-001 -8.526400e-001
    outer loop
      vertex -2.255000e+001 -4.519087e+000 -2.588854e+000
      vertex  2.255000e+001 -4.519087e+000 -2.588854e+000
      vertex -2.255000e+001 -4.947230e+000 -2.851221e+000
    endloop
  endfacet
  facet normal  0.000000e+000  5.224988e-001 -8.526400e-001
    outer loop
      vertex -2.255000e+001 -4.947230e+000 -2.851221e+000
      vertex  2.255000e+001 -4.519087e+000 -2.588854e+000
      vertex  2.255000e+001 -4.947230e+000 -2.851221e+000
    endloop
  endfacet
  facet normal  0.000000e+000  3.826832e-001 -9.238796e-001
    outer loop
      vertex -2.255000e+001 -4.947230e+000 -2.851221e+000
      vertex  2.255000e+001 -4.947230e+000 -2.851221e+000
      vertex -2.255000e+001 -5.411146e+000 -3.043381e+000
    endloop
  endfacet
  facet normal  0.000000e+000  3.826832e-001 -9.238796e-001
    outer loop
      vertex -2.255000e+001 -5.411146e+000 -3.043381e+000
      vertex  2.255000e+001 -4.947230e+000 -2.851221e+000
      vertex  2.255000e+001 -5.411146e+000 -3.043381e+000
    endloop
  endfacet
  facet normal  0.000000e+000  2.334458e-001 -9.723698e-001
    outer loop
      vertex -2.255000e+001 -5.411146e+000 -3.043381e+000
      vertex  2.255000e+001 -5.411146e+000 -3.043381e+000
      vertex -2.255000e+001 -5.899410e+000 -3.160603e+000
    endloop
  endfacet
  facet normal  0.000000e+000  2.334458e-001 -9.723698e-001
    outer loop
      vertex -2.255000e+001 -5.899410e+000 -3.160603e+000
      vertex  2.255000e+001 -5.411146e+000 -3.043381e+000
      vertex  2.255000e+001 -5.899410e+000 -3.160603e+000
    endloop
  endfacet
  facet normal  0.000000e+000  7.845896e-002 -9.969174e-001
    outer loop
      vertex -2.255000e+001 -5.899410e+000 -3.160603e+000
      vertex  2.255000e+001 -5.899410e+000 -3.160603e+000
      vertex -2.255000e+001 -6.400000e+000 -3.200000e+000
    endloop
  endfacet
  facet normal  0.000000e+000  7.845896e-002 -9.969174e-001
    outer loop
      vertex -2.255000e+001 -6.400000e+000 -3.200000e+000
      vertex  2.255000e+001 -5.899410e+000 -3.160603e+000
      vertex  2.255000e+001 -6.400000e+000 -3.200000e+000
    endloop
  endfacet
  facet normal  -0.000000e+000 -7.845896e-002 -9.969174e-001
    outer loop
      vertex -2.255000e+001 -6.400000e+000 -3.200000e+000
      vertex  2.255000e+001 -6.400000e+000 -3.200000e+000
      vertex -2.255000e+001 -6.900590e+000 -3.160603e+000
    endloop
  endfacet
  facet normal  0.000000e+000 -7.845896e-002 -9.969174e-001
    outer loop
      vertex -2.255000e+001 -6.900590e+000 -3.160603e+000
      vertex  2.255000e+001 -6.400000e+000 -3.200000e+000
      vertex  2.255000e+001 -6.900590e+000 -3.160603e+000
    endloop
  endfacet
  facet normal  -0.000000e+000 -2.334458e-001 -9.723698e-001
    outer loop
      vertex -2.255000e+001 -6.900590e+000 -3.160603e+000
      vertex  2.255000e+001 -6.900590e+000 -3.160603e+000
      vertex -2.255000e+001 -7.388855e+000 -3.043381e+000
    endloop
  endfacet
  facet normal  0.000000e+000 -2.334458e-001 -9.723698e-001
    outer loop
      vertex -2.255000e+001 -7.388855e+000 -3.043381e+000
      vertex  2.255000e+001 -6.900590e+000 -3.160603e+000
      vertex  2.255000e+001 -7.388855e+000 -3.043381e+000
    endloop
  endfacet
  facet normal  -0.000000e+000 -3.826835e-001 -9.238796e-001
    outer loop
      vertex -2.255000e+001 -7.388855e+000 -3.043381e+000
      vertex  2.255000e+001 -7.388855e+000 -3.043381e+000
      vertex -2.255000e+001 -7.852769e+000 -2.851221e+000
    endloop
  endfacet
  facet normal  0.000000e+000 -3.826835e-001 -9.238796e-001
    outer loop
      vertex -2.255000e+001 -7.852769e+000 -2.851221e+000
      vertex  2.255000e+001 -7.388855e+000 -3.043381e+000
      vertex  2.255000e+001 -7.852769e+000 -2.851221e+000
    endloop
  endfacet
  facet normal  -0.000000e+000 -5.224988e-001 -8.526400e-001
    outer loop
      vertex -2.255000e+001 -7.852769e+000 -2.851221e+000
      vertex  2.255000e+001 -7.852769e+000 -2.851221e+000
      vertex -2.255000e+001 -8.280912e+000 -2.588854e+000
    endloop
  endfacet
  facet normal  0.000000e+000 -5.224988e-001 -8.526400e-001
    outer loop
      vertex -2.255000e+001 -8.280912e+000 -2.588854e+000
      vertex  2.255000e+001 -7.852769e+000 -2.851221e+000
      vertex  2.255000e+001 -8.280912e+000 -2.588854e+000
    endloop
  endfacet
  facet normal  -0.000000e+000 -6.494475e-001 -7.604064e-001
    outer loop
      vertex -2.255000e+001 -8.280912e+000 -2.588854e+000
      vertex  2.255000e+001 -8.280912e+000 -2.588854e+000
      vertex -2.255000e+001 -8.662742e+000 -2.262742e+000
    endloop
  endfacet
  facet normal  0.000000e+000 -6.494475e-001 -7.604064e-001
    outer loop
      vertex -2.255000e+001 -8.662742e+000 -2.262742e+000
      vertex  2.255000e+001 -8.280912e+000 -2.588854e+000
      vertex  2.255000e+001 -8.662742e+000 -2.262742e+000
    endloop
  endfacet
  facet normal  -0.000000e+000 -7.604060e-001 -6.494480e-001
    outer loop
      vertex -2.255000e+001 -8.662742e+000 -2.262742e+000
      vertex  2.255000e+001 -8.662742e+000 -2.262742e+000
      vertex -2.255000e+001 -8.988854e+000 -1.880913e+000
    endloop
  endfacet
  facet normal  0.000000e+000 -7.604060e-001 -6.494480e-001
    outer loop
      vertex -2.255000e+001 -8.988854e+000 -1.880913e+000
      vertex  2.255000e+001 -8.662742e+000 -2.262742e+000
      vertex  2.255000e+001 -8.988854e+000 -1.880913e+000
    endloop
  endfacet
  facet normal  -0.000000e+000 -8.526403e-001 -5.224984e-001
    outer loop
      vertex -2.255000e+001 -8.988854e+000 -1.880913e+000
      vertex  2.255000e+001 -8.988854e+000 -1.880913e+000
      vertex -2.255000e+001 -9.251221e+000 -1.452770e+000
    endloop
  endfacet
  facet normal  0.000000e+000 -8.526403e-001 -5.224984e-001
    outer loop
      vertex -2.255000e+001 -9.251221e+000 -1.452770e+000
      vertex  2.255000e+001 -8.988854e+000 -1.880913e+000
      vertex  2.255000e+001 -9.251221e+000 -1.452770e+000
    endloop
  endfacet
  facet normal  -0.000000e+000 -9.238791e-001 -3.826845e-001
    outer loop
      vertex -2.255000e+001 -9.251221e+000 -1.452770e+000
      vertex  2.255000e+001 -9.251221e+000 -1.452770e+000
      vertex -2.255000e+001 -9.443381e+000 -9.888544e-001
    endloop
  endfacet
  facet normal  0.000000e+000 -9.238791e-001 -3.826845e-001
    outer loop
      vertex -2.255000e+001 -9.443381e+000 -9.888544e-001
      vertex  2.255000e+001 -9.251221e+000 -1.452770e+000
      vertex  2.255000e+001 -9.443381e+000 -9.888544e-001
    endloop
  endfacet
  facet normal  -0.000000e+000 -9.723700e-001 -2.334454e-001
    outer loop
      vertex -2.255000e+001 -9.443381e+000 -9.888544e-001
      vertex  2.255000e+001 -9.443381e+000 -9.888544e-001
      vertex -2.255000e+001 -9.560603e+000 -5.005903e-001
    endloop
  endfacet
  facet normal  0.000000e+000 -9.723700e-001 -2.334454e-001
    outer loop
      vertex -2.255000e+001 -9.560603e+000 -5.005903e-001
      vertex  2.255000e+001 -9.443381e+000 -9.888544e-001
      vertex  2.255000e+001 -9.560603e+000 -5.005903e-001
    endloop
  endfacet
  facet normal  -0.000000e+000 -9.969174e-001 -7.845896e-002
    outer loop
      vertex -2.255000e+001 -9.560603e+000 -5.005903e-001
      vertex  2.255000e+001 -9.560603e+000 -5.005903e-001
      vertex -2.255000e+001 -9.600000e+000  3.918870e-016
    endloop
  endfacet
  facet normal  0.000000e+000 -9.969174e-001 -7.845896e-002
    outer loop
      vertex -2.255000e+001 -9.600000e+000  3.918870e-016
      vertex  2.255000e+001 -9.560603e+000 -5.005903e-001
      vertex  2.255000e+001 -9.600000e+000  3.918870e-016
    endloop
  endfacet
  facet normal  0.000000e+000 -5.746689e-001 -8.183859e-001
    outer loop
      vertex  2.255000e+001 -5.680861e+000  1.316374e+000
      vertex -2.255000e+001 -5.405971e+000  1.123346e+000
      vertex  2.255000e+001 -5.405971e+000  1.123346e+000
    endloop
  endfacet
  facet normal  -0.000000e+000 -7.423691e-001 -6.699912e-001
    outer loop
      vertex  2.255000e+001 -5.405971e+000  1.123346e+000
      vertex -2.255000e+001 -5.405971e+000  1.123346e+000
      vertex -2.255000e+001 -5.180925e+000  8.739894e-001
    endloop
  endfacet
  facet normal  0.000000e+000 -7.423691e-001 -6.699912e-001
    outer loop
      vertex  2.255000e+001 -5.405971e+000  1.123346e+000
      vertex -2.255000e+001 -5.180925e+000  8.739894e-001
      vertex  2.255000e+001 -5.180925e+000  8.739894e-001
    endloop
  endfacet
  facet normal  -0.000000e+000 -8.728434e-001 -4.880004e-001
    outer loop
      vertex  2.255000e+001 -5.180925e+000  8.739894e-001
      vertex -2.255000e+001 -5.180925e+000  8.739894e-001
      vertex -2.255000e+001 -5.017009e+000  5.808071e-001
    endloop
  endfacet
  facet normal  0.000000e+000 -8.728434e-001 -4.880004e-001
    outer loop
      vertex  2.255000e+001 -5.180925e+000  8.739894e-001
      vertex -2.255000e+001 -5.017009e+000  5.808071e-001
      vertex  2.255000e+001 -5.017009e+000  5.808071e-001
    endloop
  endfacet
  facet normal  -0.000000e+000 -9.595496e-001 -2.815396e-001
    outer loop
      vertex  2.255000e+001 -5.017009e+000  5.808071e-001
      vertex -2.255000e+001 -5.017009e+000  5.808071e-001
      vertex -2.255000e+001 -4.922442e+000  2.585007e-001
    endloop
  endfacet
  facet normal  0.000000e+000 -9.595496e-001 -2.815396e-001
    outer loop
      vertex  2.255000e+001 -5.017009e+000  5.808071e-001
      vertex -2.255000e+001 -4.922442e+000  2.585007e-001
      vertex  2.255000e+001 -4.922442e+000  2.585007e-001
    endloop
  endfacet
  facet normal  -0.000000e+000 -9.981402e-001 -6.096082e-002
    outer loop
      vertex  2.255000e+001 -4.922442e+000  2.585007e-001
      vertex -2.255000e+001 -4.922442e+000  2.585007e-001
      vertex -2.255000e+001 -4.901966e+000 -7.676803e-002
    endloop
  endfacet
  facet normal  0.000000e+000 -9.981402e-001 -6.096082e-002
    outer loop
      vertex  2.255000e+001 -4.922442e+000  2.585007e-001
      vertex -2.255000e+001 -4.901966e+000 -7.676803e-002
      vertex  2.255000e+001 -4.901966e+000 -7.676803e-002
    endloop
  endfacet
  facet normal  0.000000e+000 -9.866797e-001  1.626744e-001
    outer loop
      vertex  2.255000e+001 -4.901966e+000 -7.676803e-002
      vertex -2.255000e+001 -4.901966e+000 -7.676803e-002
      vertex -2.255000e+001 -4.956607e+000 -4.081873e-001
    endloop
  endfacet
  facet normal  0.000000e+000 -9.866797e-001  1.626744e-001
    outer loop
      vertex  2.255000e+001 -4.901966e+000 -7.676803e-002
      vertex -2.255000e+001 -4.956607e+000 -4.081873e-001
      vertex  2.255000e+001 -4.956607e+000 -4.081873e-001
    endloop
  endfacet
  facet normal  0.000000e+000 -9.257428e-001  3.781537e-001
    outer loop
      vertex  2.255000e+001 -4.956607e+000 -4.081873e-001
      vertex -2.255000e+001 -4.956607e+000 -4.081873e-001
      vertex -2.255000e+001 -5.083626e+000 -7.191383e-001
    endloop
  endfacet
  facet normal  0.000000e+000 -9.257428e-001  3.781537e-001
    outer loop
      vertex  2.255000e+001 -4.956607e+000 -4.081873e-001
      vertex -2.255000e+001 -5.083626e+000 -7.191383e-001
      vertex  2.255000e+001 -5.083626e+000 -7.191383e-001
    endloop
  endfacet
  facet normal  -0.000000e+000 -5.746689e-001 -8.183859e-001
    outer loop
      vertex -2.255000e+001 -5.405971e+000  1.123346e+000
      vertex  2.255000e+001 -5.680861e+000  1.316374e+000
      vertex -2.255000e+001 -5.680861e+000  1.316374e+000
    endloop
  endfacet
  facet normal  0.000000e+000 -3.781526e-001 -9.257432e-001
    outer loop
      vertex -2.255000e+001 -5.680861e+000  1.316374e+000
      vertex  2.255000e+001 -5.680861e+000  1.316374e+000
      vertex  2.255000e+001 -5.991813e+000  1.443393e+000
    endloop
  endfacet
  facet normal  -0.000000e+000 -3.781526e-001 -9.257432e-001
    outer loop
      vertex -2.255000e+001 -5.680861e+000  1.316374e+000
      vertex  2.255000e+001 -5.991813e+000  1.443393e+000
      vertex -2.255000e+001 -5.991813e+000  1.443393e+000
    endloop
  endfacet
  facet normal  0.000000e+000 -1.626746e-001 -9.866798e-001
    outer loop
      vertex -2.255000e+001 -5.991813e+000  1.443393e+000
      vertex  2.255000e+001 -5.991813e+000  1.443393e+000
      vertex  2.255000e+001 -6.323232e+000  1.498034e+000
    endloop
  endfacet
  facet normal  -0.000000e+000 -1.626746e-001 -9.866798e-001
    outer loop
      vertex -2.255000e+001 -5.991813e+000  1.443393e+000
      vertex  2.255000e+001 -6.323232e+000  1.498034e+000
      vertex -2.255000e+001 -6.323232e+000  1.498034e+000
    endloop
  endfacet
  facet normal  0.000000e+000  6.096087e-002 -9.981402e-001
    outer loop
      vertex -2.255000e+001 -6.323232e+000  1.498034e+000
      vertex  2.255000e+001 -6.323232e+000  1.498034e+000
      vertex  2.255000e+001 -6.658501e+000  1.477558e+000
    endloop
  endfacet
  facet normal  0.000000e+000  6.096087e-002 -9.981402e-001
    outer loop
      vertex -2.255000e+001 -6.323232e+000  1.498034e+000
      vertex  2.255000e+001 -6.658501e+000  1.477558e+000
      vertex -2.255000e+001 -6.658501e+000  1.477558e+000
    endloop
  endfacet
  facet normal  0.000000e+000  2.815394e-001 -9.595497e-001
    outer loop
      vertex -2.255000e+001 -6.658501e+000  1.477558e+000
      vertex  2.255000e+001 -6.658501e+000  1.477558e+000
      vertex  2.255000e+001 -6.980807e+000  1.382991e+000
    endloop
  endfacet
  facet normal  0.000000e+000  2.815394e-001 -9.595497e-001
    outer loop
      vertex -2.255000e+001 -6.658501e+000  1.477558e+000
      vertex  2.255000e+001 -6.980807e+000  1.382991e+000
      vertex -2.255000e+001 -6.980807e+000  1.382991e+000
    endloop
  endfacet
  facet normal  0.000000e+000  4.880010e-001 -8.728431e-001
    outer loop
      vertex -2.255000e+001 -6.980807e+000  1.382991e+000
      vertex  2.255000e+001 -6.980807e+000  1.382991e+000
      vertex  2.255000e+001 -7.273989e+000  1.219074e+000
    endloop
  endfacet
  facet normal  0.000000e+000  4.880010e-001 -8.728431e-001
    outer loop
      vertex -2.255000e+001 -6.980807e+000  1.382991e+000
      vertex  2.255000e+001 -7.273989e+000  1.219074e+000
      vertex -2.255000e+001 -7.273989e+000  1.219074e+000
    endloop
  endfacet
  facet normal  0.000000e+000  6.699908e-001 -7.423694e-001
    outer loop
      vertex -2.255000e+001 -7.273989e+000  1.219074e+000
      vertex  2.255000e+001 -7.273989e+000  1.219074e+000
      vertex  2.255000e+001 -7.523346e+000  9.940287e-001
    endloop
  endfacet
  facet normal  0.000000e+000  6.699908e-001 -7.423694e-001
    outer loop
      vertex -2.255000e+001 -7.273989e+000  1.219074e+000
      vertex  2.255000e+001 -7.523346e+000  9.940287e-001
      vertex -2.255000e+001 -7.523346e+000  9.940287e-001
    endloop
  endfacet
  facet normal  0.000000e+000  8.183859e-001 -5.746689e-001
    outer loop
      vertex -2.255000e+001 -7.523346e+000  9.940287e-001
      vertex  2.255000e+001 -7.523346e+000  9.940287e-001
      vertex  2.255000e+001 -7.716374e+000  7.191383e-001
    endloop
  endfacet
  facet normal  0.000000e+000  8.183859e-001 -5.746689e-001
    outer loop
      vertex -2.255000e+001 -7.523346e+000  9.940287e-001
      vertex  2.255000e+001 -7.716374e+000  7.191383e-001
      vertex -2.255000e+001 -7.716374e+000  7.191383e-001
    endloop
  endfacet
endsolid CATIA STL
