**ABCDEFGHIJKLMNOPQRSTUVWXYZabcdefghijklmnopqrstuvwxyz**************************
**PARASOLID !"#$%&'()*+,-./:;<=>?@[\]^_`{|}~0123456789**************************
**PART1;
MC=x86;
MC_MODEL=x86 Family 16 Model 4 Stepping 2, AuthenticAMD;
MC_ID=unknown;
OS=Windows_NT;
OS_RELEASE=unknown;
FRU=Parasolid Version 24.1, build 264,  4-19-2013;
APPL=SolidWorks 2013-2013273;
SITE=;
USER=unknown;
FORMAT=text;
GUISE=transmit;
KEY=Base servo;
FILE=Base servo.x_t;
DATE=Sun May 18 19:22:17 2014;
**PART2;
SCH=SCH_2401264_20000;
USFLD_SIZE=0;
**PART3;
**END_OF_HEADER*****************************************************************
T51 : TRANSMIT FILE created by modeller version 240126423 SCH_2401264_20000_1300
6189 0 12 27 CCCCCCCCCCCCCCCCCCCCCCCA16 index_map_offset0 0 1 dA9 index_map82 0
 A17 node_id_index_map82 0 A20 schema_embedding_map82 0 Z1 4174 0 2 0 0 0 0 1e3
 1e-8 0 3 0 1 0 1 1 4 5 6 7 8 9 10 0 0 0 0 70 11 CI9 list_type0 0 1 uI10 notrans
mit0 0 1 lCCCDCCDI12 finger_index0 0 1 dI12 finger_block1012 0 CZ2 0 4 T1 0 0 2
 20 1 11 11 13 255 4 194 0 1 0 12 0 0 13 0 52 255 5 3811 0 14 15 0 0 -.035081299
4707032 .00596494793793329 .002 0 0 1 .001499999999999974 .707106781186546 .7071
06781186549 1 0 0 30 255 6 3852 0 9 16 0 0 +-.00517089911648149 -.03689693656466
715 .003 0 -1 0 29 255 7 3846 0 10 17 0 .00507605164947811 -.03689693656466715 .
003 19 255 8 59 0 1 13 0 18 V16 255 9 3850 0 ?19 0 20 6 0 0 1 18 255 10 3844 0 2
1 0 22 7 ?1 17 255 21 0 23 24 24 10 25 26 0 27 +18 22 3615 0 28 10 29 17 ?1 17 2
8 0 30 31 32 22 33 34 0 35 +18 29 3612 0 33 22 36 37 ?1 29 17 3617 0 22 37 7 .02
65491669010905 .00996821021567817 0 29 37 3614 0 29 38 17 .03185216168475555 .00
466521543201316 0 29 38 3266 0 36 39 37 .001238530348875508 -.02196547441603275
 -.0075 18 36 3264 0 40 29 41 38 ?1 29 39 3144 0 41 42 38 .0284464773784651 .008
07089973830355 -.0075 18 41 3142 0 43 36 44 39 ?1 29 42 2962 0 44 45 39 .0223038
1182280535 .01593904516284685 0 18 44 2960 0 46 41 47 42 ?1 29 45 2949 0 47 48 4
2 .02230381182280535 .01593904516284685 -.0075 18 47 2947 0 49 44 50 45 ?1 29 48
 2936 0 50 51 45 .03780535510222155 .01080244500151826 -.0075 18 50 2934 0 52 47
 53 48 ?1 29 51 2933 0 53 54 48 .03220081698103815 .0161610561939097 -.0075 18 5
3 2931 0 55 50 56 51 ?1 29 54 2930 0 56 57 51 .03780535510222155 .01080244500151
826 0 18 56 2928 0 58 53 59 54 ?1 29 57 2927 0 59 60 54 .03220081698103815 .0161
610561939097 0 18 59 2925 0 61 56 62 57 ?1 29 60 2919 0 62 63 57 .03802736613328
44 .000905439843285466 -.0075 18 62 2917 0 64 59 65 60 ?1 29 63 2916 0 65 66 60
 .0380273661332844 .000905439843285466 0 18 65 2914 0 67 62 68 63 ?1 29 66 2908
 0 68 69 63 -.0090495215116581 -.0155396320154691 0 18 68 2906 0 70 65 71 66 ?1
 29 69 2895 0 71 72 66 -.0090495215116581 -.0155396320154691 -.0075 18 71 2893 0
 73 68 74 69 ?1 29 72 2887 0 74 75 69 .00667403279882099 -.0305732373350305 -.00
75 18 74 2885 0 76 71 77 72 ?1 29 75 2884 0 77 78 72 .00667403279882099 -.030573
2373350305 0 18 77 2882 0 79 74 80 75 ?1 29 78 2871 0 80 81 75 -.008827510480595
24 -.0254366371737019 -.0075 18 80 2869 0 82 77 83 78 ?1 29 81 2868 0 83 84 78 -
.0032229723594118 -.03079524836609335 -.0075 18 83 2866 0 85 80 86 81 ?1 29 84 2
865 0 86 87 81 -.00882751048059524 -.0254366371737019 0 18 86 2863 0 88 83 89 84
 ?1 29 87 2862 0 89 90 84 -.0032229723594118 -.03079524836609335 0 18 89 2860 0
 91 86 92 87 ?1 29 90 1860 0 92 93 87 .00822458273373762 -.02895152680089475 0 1
8 92 1857 0 94 89 95 90 ?1 29 93 148 0 96 97 90 .0313391012572794 -.038896936564
66715 0 18 96 133 0 98 99 100 93 ?1 29 97 149 0 100 101 93 -.03124622976158315 -
.03889693656466715 0 18 100 134 0 102 96 103 97 ?1 29 101 150 0 103 104 97 -.031
24622976158315 -.0198395510862113 0 18 103 135 0 105 100 106 101 ?1 29 104 151 0
 106 107 101 -.01178552108782082 .01935884740006545 0 18 106 136 0 108 103 109 1
04 ?1 29 107 152 0 109 110 104 .01154844378377172 .01935884740006545 0 18 109 13
7 0 111 106 112 107 ?1 29 110 153 0 112 113 107 .0313391012572794 -.019919367151
2496 0 18 112 138 0 114 109 115 110 ?1 29 113 56 0 95 116 110 .0313391012572794
 -.03889693656466715 .003 18 95 54 0 117 92 118 113 ?1 29 116 53 0 118 119 113 -
.03124622976158315 -.03889693656466715 .003 18 118 51 0 120 95 121 116 ?1 29 119
 50 0 121 122 116 -.03124622976158315 -.0198395510862113 .003 18 121 48 0 123 11
8 124 119 ?1 29 122 47 0 124 125 119 -.01178552108782082 .01935884740006545 .003
 18 124 45 0 126 121 127 122 ?1 29 125 44 0 127 128 122 .01154844378377172 .0193
5884740006545 .003 18 127 42 0 129 124 99 125 ?1 29 128 41 0 99 130 125 .0313391
012572794 -.0199193671512496 .003 18 99 39 0 131 127 96 128 ?1 29 130 2658 0 115
 132 128 .00822458273373762 -.02895152680089475 -.0075 18 115 2582 0 133 112 134
 130 ?1 29 132 2659 0 134 135 130 -.00716173559835961 -.01356520846879772 -.0075
 18 134 2587 0 136 115 137 132 ?1 29 135 2806 0 137 138 132 .0214604249936032 .0
150569521231654 -.0075 18 137 2730 0 139 134 140 135 ?1 29 138 2807 0 140 141 13
5 .0368467433257004 -.00032936620893163 -.0075 18 140 2735 0 142 137 143 138 ?1
 29 141 3252 0 144 145 138 .03481043840914415 .0116064336442363 -.0075 18 144 32
05 0 146 147 148 141 ?1 29 145 3253 0 148 149 141 .03339622484677105 .0130206472
0660942 -.0075 18 148 3207 0 150 144 151 145 ?1 29 149 3255 0 151 152 145 .02986
06909408383 .00665668617593038 -.0075 18 151 3203 0 153 148 154 149 ?1 29 152 32
56 0 143 155 149 .03481043840914415 .0116064336442363 -.005 18 143 3202 0 156 14
0 157 152 ?1 29 155 3257 0 157 158 152 .03339622484677105 .01302064720660942 -.0
05 18 157 3204 0 159 143 160 155 ?1 29 158 3258 0 160 161 155 .0284464773784651
 .00807089973830355 -.005 18 160 3206 0 162 157 147 158 ?1 29 161 3259 0 147 163
 158 .0298606909408383 .00665668617593038 -.005 18 147 3208 0 164 160 144 161 ?1
 29 163 3374 0 165 166 161 -.000175683213497705 -.0205512608536596 -.0075 18 165
 3327 0 167 168 169 163 ?1 29 166 3375 0 169 170 163 -.00512543068180352 -.02550
100832196555 -.0075 18 169 3329 0 171 165 172 166 ?1 29 170 3376 0 172 173 166 -
.003711217119430365 -.02691522188433865 -.0075 18 172 3331 0 174 169 175 170 ?1
 29 173 3378 0 154 176 170 -.000175683213497705 -.0205512608536596 -.005 18 154
 3324 0 177 151 178 173 ?1 29 176 3379 0 178 179 173 -.00512543068180352 -.02550
100832196555 -.005 18 178 3326 0 180 154 181 176 ?1 29 179 3380 0 181 182 176 -.
003711217119430365 -.02691522188433865 -.005 18 181 3328 0 183 178 168 179 ?1 29
 182 3381 0 168 184 179 .00123853034887549 -.02196547441603275 -.005 18 168 3330
 0 185 181 165 182 ?1 29 184 3541 0 186 187 182 .0368467433257004 -.000329366208
9316335 0 18 186 3481 0 188 175 189 184 ?1 29 187 3543 0 175 190 184 .0214604249
936032 .0150569521231654 0 18 175 3480 0 31 172 186 187 ?1 29 190 3544 0 189 191
 187 -.00716173559835963 -.01356520846879774 0 18 189 3479 0 192 186 193 190 ?1
 29 191 3914 0 193 194 190 -.00517089911648149 -.03689693656466715 .003 18 193 3
884 0 24 189 195 191 ?1 29 194 3916 0 195 196 191 -.00517089911648149 -.03889693
656466715 .003 18 195 3882 0 19 193 197 194 ?1 29 196 3917 0 197 0 194 .00507605
164947811 -.03889693656466715 .003 18 197 3885 0 198 195 0 196 ?1 17 198 0 199 2
7 19 197 200 201 0 202 +15 255 199 3899 0 19 203 0 17 27 0 199 25 198 10 202 20
 0 204 +17 19 0 199 198 25 195 205 9 0 200 +17 200 0 206 207 208 195 198 201 0 2
09 -16 201 3879 0 ?198 26 0 210 0 0 1 17 202 0 211 117 204 197 27 20 0 208 -15 2
11 3851 0 205 212 213 17 117 0 211 214 202 95 208 215 0 216 +17 204 0 211 202 20
5 10 24 217 0 0 +16 20 3848 0 ?27 9 217 16 0 0 1 17 208 0 206 200 216 197 117 21
5 0 0 -15 206 168 0 208 218 0 17 216 0 206 208 98 95 219 220 0 221 -16 215 3839
 0 ?117 222 223 224 222 222 1 16 222 27 0 ?209 225 215 224 215 215 1 16 223 23 0
 ?120 215 226 227 0 0 1 30 224 28 0 222 227 228 0 +0 -.03889693656466715 .003 1
 0 0 30 227 24 0 223 229 224 0 +-.03124622976158315 0 .003 0 -1 0 31 255 228 36
 0 225 224 230 0 +-.022 0 .003 0 0 1 1 0 0 .001810063522595695 16 225 35 0 ?231
 220 222 228 0 0 1 30 230 147 0 232 228 233 0 +.0313391012572794 0 0 0 -1 0 16 2
32 128 0 ?234 235 236 230 0 0 1 31 233 146 0 1 230 237 238 +.022 0 0 0 0 1 1 0 0
 .022 30 237 145 0 239 233 240 0 +0 .01935884740006545 0 1 0 0 141 255 238 241 2
38 238 233 133 255 241 447 0 235 242 243 0 +233 .0313391012572794 -.019919367151
2496 0 .01154844378377172 .01935884740006545 0 5.15080365275003 8.34902605180266
 16 235 123 0 ?111 239 232 241 0 0 1 30 242 185 0 244 245 241 0 +.03133910125727
94 -.0199193671512496 .003 0 0 -1 30 243 2874 0 246 241 247 0 --.008827510480595
25 -.0254366371737019 -.0075 0 0 1 16 246 2872 0 ?82 248 244 243 0 0 1 30 247 28
79 0 248 243 249 0 +-.0032229723594118 -.03079524836609335 -.0075 0 0 1 16 248 2
877 0 ?250 251 246 247 0 0 1 30 249 2890 0 251 247 252 0 -.00667403279882099 -.0
305732373350305 -.0075 0 0 1 16 251 2888 0 ?76 253 248 249 0 0 1 31 252 2898 0 2
53 249 254 0 +-.00399001341701028 -.0203771290790541 -.0075 0 0 -1 -1 0 0 .007 1
6 253 2896 0 ?73 255 251 252 0 0 1 31 254 2903 0 255 252 256 0 +.001614524704173
17 -.02573574027144555 -.0075 0 0 -1 -1 0 0 .007 16 255 2901 0 ?85 257 253 254 0
 0 1 30 256 2911 0 257 254 258 0 +-.0090495215116581 -.0155396320154691 -.0075 0
 0 1 16 257 2909 0 ?259 260 255 256 0 0 1 30 258 2922 0 260 256 261 0 +.03802736
61332844 .000905439843285467 -.0075 0 0 1 16 260 2920 0 ?262 263 257 258 0 0 1 3
0 261 2939 0 263 258 264 0 +.03220081698103815 .0161610561939097 -.0075 0 0 1 16
 263 2937 0 ?265 266 260 261 0 0 1 30 264 2944 0 266 261 267 0 -.037805355102221
55 .01080244500151826 -.0075 0 0 1 16 266 2942 0 ?52 268 263 264 0 0 1 31 267 29
52 0 268 264 269 0 -.0273633199174532 .01110154809926186 -.0075 0 0 1 1 0 0 .007
 16 268 2950 0 ?55 270 266 267 0 0 1 31 269 2957 0 270 267 271 0 -.0329678580386
366 .00574293690687044 -.0075 0 0 1 1 0 0 .007 16 270 2955 0 ?64 272 268 269 0 0
 1 30 271 2965 0 272 269 273 0 -.02230381182280535 .01593904516284685 -.0075 0 0
 1 16 272 2963 0 ?49 274 270 271 0 0 1 31 273 2996 0 274 271 275 0 +.00161452470
417317 -.02573574027144555 0 0 0 1 1 0 0 .007 16 274 2968 0 ?79 276 272 273 0 0
 1 31 275 2997 0 276 273 277 0 +-.00399001341701028 -.0203771290790541 0 0 0 1 1
 0 0 .007 16 276 2975 0 ?88 278 274 275 0 0 1 31 277 2998 0 278 275 279 0 +.0329
678580386366 .00574293690687044 0 0 0 1 1 0 0 .007 16 278 2982 0 ?58 280 276 277
 0 0 1 31 279 2999 0 280 277 281 0 +.0273633199174532 .01110154809926186 0 0 0 1
 1 0 0 .007 16 280 2989 0 ?46 282 278 279 0 0 1 31 281 3605 0 282 279 283 0 -.02
18883758972766 4424428199173435e-21 .003 0 0 1 1 0 0 .008 16 282 3602 0 ?284 285
 280 281 0 0 1 31 283 3620 0 285 281 286 0 +.0218883758972766 4424428199173435e-
21 0 0 0 1 1 0 0 .011 16 285 3618 0 ?287 34 282 283 0 0 1 38 255 286 3632 0 34 2
83 288 0 +289 290 291 292 293 16 34 3627 0 ?28 294 285 286 0 0 1 31 288 3675 0 2
94 286 295 0 +-.00524893560475055 -.02022315151378955 .002 0 0 1 1 0 0 .0015 52
 289 3656 0 296 297 298 299 -.0218883758972766 4424428199173435e-21 .00400000000
0000075 0 0 -1 .007 .707106781186544 .707106781186552 -1 0 0 50 255 290 1793 0 1
2 300 301 302 +.0214604249936032 .0150569521231654 -.02854702817097635 -.7071067
81186543 -.707106781186552 0 .707106781186552 -.707106781186543 0 40 255 3 291 0
 1 3 .000729369410146574 .3469038267830125 ??.03185216168475555 .004665215432013
16 0 .02906631233059265 .00745106478617602 .000657117226721818 .0265491669010905
 .00996821021567817 -392461631890072e-33 41 255 1 292 L.03185216168475555 .00466
521543201316 0 41 1 293 L.0265491669010905 .00996821021567817 -392461631890072e-
33 14 255 12 3442 303 ?304 0 30 4 290 +0 0 304 0 18 51 255 300 1796 0 305 306 29
0 0 +.0350812994707032 .00596494793793329 -.02854702817097635 0 0 1 .00149999999
9999974 1 0 0 51 301 1624 0 307 290 308 0 +.0271526687908428 -.0348985839933287
 -.00424264068711929 0 0 1 .0015 1 0 0 141 302 286 302 302 290 14 307 1609 309 ?
305 310 311 4 301 -0 0 305 310 18 51 308 1584 0 310 301 312 0 +-.027432662228019
75 -.0348985839933287 -.00424264068711929 0 0 1 .0015 1 0 0 14 310 1569 313 ?307
 314 315 4 308 -0 0 307 314 18 51 312 1544 0 314 308 316 0 +-935609707403426e-19
 .0168559405228282 -.00424264068711929 0 0 1 .0015 1 0 0 14 314 1529 317 ?310 21
2 318 4 312 -0 0 310 212 18 50 316 2 0 212 312 319 0 +0 0 .003 0 0 1 1 0 0 14 21
2 1 320 ?314 321 211 4 316 +0 0 314 321 18 50 319 139 0 322 316 323 0 +0 0 0 0 0
 1 1 0 0 14 322 2684 324 ?325 304 326 4 319 -0 0 325 304 18 51 323 186 0 321 319
 327 0 --.022 0 .003 0 0 -1 .001810063522595695 -1 0 0 14 321 161 328 ?212 218 3
29 4 323 +0 0 212 218 18 50 327 188 0 218 323 330 0 +0 -.03889693656466715 .003
 0 1 0 0 0 1 14 218 169 331 ?321 332 206 4 327 -0 0 321 332 18 50 330 189 0 332
 327 333 0 +-.03124622976158315 0 .003 1 0 0 0 0 -1 14 332 171 334 ?218 335 336
 4 330 -0 0 218 335 18 51 333 190 0 335 330 337 0 --.022 0 .003 0 0 -1 .02188836
567919985 -1 0 0 14 335 173 338 ?332 339 340 4 333 -0 0 332 339 18 50 337 191 0
 339 333 341 0 +0 .01935884740006545 .003 0 1 0 0 0 1 14 339 175 342 ?335 343 34
4 4 337 +0 0 335 343 18 51 341 192 0 343 337 345 0 -.022 0 .003 0 0 -1 .022 -1 0
 0 14 343 177 346 ?339 325 347 4 341 -0 0 339 325 18 50 345 193 0 325 341 348 0
 +.0313391012572794 0 .003 1 0 0 0 0 -1 14 325 179 349 ?343 322 350 4 345 +0 0 3
43 322 18 51 348 3039 0 351 345 352 0 +.00161452470417317 -.02573574027144555 -.
0075 0 0 1 .007 1 0 0 14 351 3027 353 ?354 355 356 4 348 +0 0 354 355 18 51 352
 3060 0 354 348 357 0 +-.00399001341701028 -.0203771290790541 -.0075 0 0 1 .007
 1 0 0 14 354 3048 358 ?359 351 360 4 352 +0 0 359 351 18 51 357 3081 0 359 352
 297 0 +.0329678580386366 .00574293690687044 -.0075 0 0 1 .007 1 0 0 14 359 3069
 361 ?362 354 363 4 357 +0 0 362 354 18 51 297 3102 0 362 357 289 0 +.0273633199
174532 .01110154809926186 -.0075 0 0 1 .007 1 0 0 14 362 3090 364 ?365 359 366 4
 297 +0 0 365 359 18 81 255 1 364 4146 367 362 368 0 361 369 370 14 365 3210 369
 ?371 362 372 4 373 -0 0 371 362 18 15 366 3091 0 374 362 0 13 18 60 0 0 0 0 0 0
 8 12 17 374 0 366 375 376 47 55 268 0 0 -17 375 0 366 61 374 44 49 272 0 0 -17
 376 0 366 374 61 53 265 263 0 0 -17 55 0 377 378 379 53 374 268 0 380 +15 377 2
741 0 381 382 383 17 378 0 377 64 55 50 380 384 0 385 +17 379 0 377 55 139 47 38
6 387 0 374 +17 380 0 388 265 52 53 378 384 0 376 -15 388 2763 0 389 355 0 17 26
5 0 388 389 380 59 376 263 0 390 +17 52 0 388 380 389 50 391 266 0 378 +16 384 2
932 0 ?378 392 387 393 0 0 1 16 392 2719 0 ?394 395 384 396 0 0 1 16 387 2696 0
 ?379 384 397 398 0 0 1 30 393 2792 0 384 398 399 0 +.0428648631968694 .00596494
793793329 -.0075 .722786870663974 -.691071009083567 0 30 398 2793 0 387 400 393
 0 +.0214604249936032 .0150569521231654 -.0075 .691071009083567 .722786870663974
 0 30 399 2791 0 401 393 402 0 +.0368467433257004 -.00032936620893163 0 -.691071
009083567 -.722786870663974 0 16 401 2915 0 ?403 404 405 399 0 0 1 30 402 2789 0
 404 399 406 0 +.0214604249936032 .0150569521231654 0 .691071009083567 .72278687
0663974 0 16 404 2716 0 ?407 408 401 402 0 0 1 30 406 2788 0 408 402 396 0 +.042
8648631968694 .00596494793793329 0 .722786870663974 -.691071009083567 0 16 408 2
926 0 ?389 409 404 406 0 0 1 30 396 2785 0 392 406 410 0 +.0214604249936032 .015
0569521231654 -.0075 0 0 1 30 410 2784 0 395 396 411 0 +.0368467433257004 -.0003
2936620893163 -.0075 0 0 1 16 395 2715 0 ?412 413 392 410 0 0 1 31 411 2651 0 41
3 410 414 0 +-.00524893560475055 -.02022315151378955 -.0075 0 0 -1 -1 0 0 .0015
 16 413 2579 0 ?415 416 395 411 0 0 1 31 414 2649 0 416 411 417 0 +.001836535735
236025 -.0272798157975339 -.0075 0 0 -1 -1 0 0 .0015 16 416 2576 0 ?418 419 413
 414 0 0 1 30 417 2647 0 420 414 421 0 +-.00716173559835961 -.01356520846879772
 -.0075 .691071009083567 .722786870663974 0 16 420 2894 0 ?136 422 423 417 0 0 1
 30 421 2646 0 424 417 425 0 +-.00716173559835961 -.01356520846879772 -.0075 .70
7106781186552 -.707106781186543 0 16 424 2545 0 ?426 427 422 421 422 422 1 30 42
5 2645 0 427 421 428 0 +.00822458273373762 -.02895152680089475 -.0075 -.69107100
9083567 -.722786870663974 0 16 427 2548 0 ?429 430 424 425 0 0 1 30 428 2644 0 4
30 425 431 0 +.001836535735236025 -.0356327454296783 -.0075 -.722786870663974 .6
91071009083567 0 16 430 2867 0 ?432 433 427 428 0 0 1 30 431 2643 0 419 428 434
 0 +-.00716173559835961 -.01356520846879772 0 .691071009083567 .722786870663974
 0 16 419 2907 0 ?435 436 416 431 0 0 1 30 434 2641 0 436 431 437 0 +.0082245827
3373762 -.02895152680089475 0 -.691071009083567 -.722786870663974 0 16 436 2568
 0 ?438 423 419 434 0 0 1 30 437 2640 0 423 434 439 0 +.001836535735236025 -.035
6327454296783 0 -.722786870663974 .691071009083567 0 16 423 2861 0 ?440 420 436
 437 0 0 1 30 439 2637 0 433 437 441 0 +.00822458273373762 -.02895152680089475 -
.0075 0 0 1 16 433 2571 0 ?442 443 430 439 0 0 1 30 441 2636 0 443 439 444 0 +-.
00716173559835961 -.01356520846879772 -.0075 0 0 1 16 443 2567 0 ?445 446 433 44
1 0 0 1 31 444 1628 0 446 441 447 0 +.0271526687908428 -.0348985839933287 .003 0
 0 1 1 0 0 .0015 16 446 1605 0 ?448 449 443 444 0 0 1 31 447 1627 0 449 444 450
 0 -.0271526687908428 -.0348985839933287 0 0 0 1 1 0 0 .0015 16 449 1608 0 ?451
 452 446 447 0 0 1 31 450 1588 0 452 447 453 0 +-.02743266222801975 -.0348985839
933287 .003 0 0 1 1 0 0 .0015 16 452 1565 0 ?454 455 449 450 0 0 1 31 453 1587 0
 455 450 456 0 --.02743266222801975 -.0348985839933287 0 0 0 1 1 0 0 .0015 16 45
5 1568 0 ?457 458 452 453 0 0 1 31 456 1548 0 458 453 459 0 +-935609707403426e-1
9 .0168559405228282 .003 0 0 1 1 0 0 .0015 16 458 1525 0 ?460 236 455 456 0 0 1
 31 459 1547 0 236 456 461 0 --935609707403426e-19 .0168559405228282 0 0 0 1 1 0
 0 .0015 16 236 1528 0 ?462 232 458 459 0 0 1 30 461 8 0 463 459 464 0 +.0313391
012572794 0 .003 0 -1 0 16 463 7 0 ?221 465 466 461 0 0 1 31 464 12 0 465 461 46
7 0 +.022 0 .003 0 0 1 1 0 0 .022 16 465 11 0 ?129 468 463 464 0 0 1 30 467 16 0
 468 464 229 0 +0 .01935884740006545 .003 1 0 0 16 468 15 0 ?469 226 465 467 0 0
 1 31 229 20 0 226 467 227 0 +-.022 0 .003 0 0 1 1 0 0 .02188836567919985 16 226
 19 0 ?123 223 468 229 0 0 1 17 123 0 211 120 470 121 471 226 0 472 +17 120 0 21
1 209 123 118 473 223 0 474 +17 470 0 211 123 129 124 469 468 0 0 -17 471 0 340
 108 472 124 123 226 0 470 -17 472 0 340 471 105 121 475 476 0 473 -15 340 172 0
 105 335 0 17 105 0 340 472 108 103 477 478 0 475 +17 475 0 336 102 473 103 472
 476 0 479 +16 476 156 0 ?475 480 481 482 0 0 1 17 473 0 336 475 474 121 120 223
 0 0 -15 336 170 0 102 332 0 17 474 0 336 473 102 118 483 481 0 207 -17 102 0 33
6 474 475 100 479 484 0 483 +17 483 0 206 98 207 100 474 481 0 485 +16 481 155 0
 ?483 476 220 486 0 0 1 17 207 0 206 483 200 118 209 222 0 0 -17 209 0 211 205 1
20 195 207 222 0 0 +17 205 0 211 204 209 193 19 9 0 0 -16 220 154 0 ?219 481 225
 487 0 0 1 30 486 181 0 481 487 482 0 +-.03124622976158315 -.03889693656466715 .
003 0 0 -1 30 487 180 0 220 488 486 0 +.0313391012572794 -.03889693656466715 .00
3 0 0 -1 30 482 182 0 476 486 489 0 +-.03124622976158315 -.0198395510862113 .003
 0 0 -1 30 489 183 0 480 482 245 0 +-.01178552108782082 .01935884740006545 .003
 0 0 -1 16 480 157 0 ?108 490 476 489 0 0 1 30 245 184 0 490 489 242 0 +.0115484
4378377172 .01935884740006545 .003 0 0 -1 16 490 158 0 ?491 244 480 245 0 0 1 17
 491 0 344 492 469 109 493 490 0 494 +16 244 159 0 ?114 246 490 242 0 0 1 17 114
 0 347 111 495 112 131 244 0 496 +15 347 176 0 111 343 0 17 111 0 347 493 114 10
9 496 235 0 491 +17 495 0 347 114 493 99 129 465 0 214 -17 131 0 350 221 497 99
 114 244 0 495 -17 496 0 498 234 494 112 111 235 0 497 -15 498 2492 0 234 322 49
9 17 234 0 498 485 496 96 497 232 0 0 +17 494 0 498 496 477 109 492 239 0 0 +17
 497 0 350 131 219 112 234 232 0 0 -15 350 178 0 497 325 0 17 219 0 350 497 221
 96 216 220 0 234 +17 221 0 350 219 131 95 214 463 0 0 +17 214 0 211 129 117 99
 221 463 0 0 -17 129 0 211 470 214 127 495 465 0 493 +17 493 0 347 495 111 127 4
91 490 0 469 -17 469 0 344 491 126 127 470 468 0 0 +15 344 174 0 492 339 0 17 12
6 0 344 469 492 124 108 480 0 471 -17 492 0 344 126 491 106 494 239 0 0 -17 108
 0 340 105 471 106 126 480 0 477 +17 477 0 498 494 479 106 105 478 0 492 -17 479
 0 498 477 485 103 102 484 0 0 -16 478 113 0 ?105 484 239 240 0 0 1 16 484 108 0
 ?102 500 478 501 0 0 1 16 239 118 0 ?494 478 235 237 0 0 1 31 240 144 0 478 237
 501 0 +-.022 0 0 0 0 1 1 0 0 .02188836567919985 30 501 143 0 484 240 502 0 +-.0
3124622976158315 0 0 0 -1 0 30 502 142 0 500 501 488 0 +0 -.03889693656466715 0
 1 0 0 16 500 103 0 ?98 466 484 502 0 0 1 31 488 140 0 466 502 487 0 +-.022 0 0
 0 0 1 1 0 0 .001810063522595695 16 466 93 0 ?503 463 500 488 0 0 1 17 503 0 504
 503 503 0 505 466 0 0 +15 504 92 0 503 322 506 17 505 0 507 505 505 0 503 466 0
 0 -15 507 162 0 505 321 0 15 506 1518 0 508 322 509 17 508 0 506 508 508 0 462
 236 0 0 -15 509 1598 0 510 322 511 17 510 0 509 510 510 0 451 449 0 0 -15 511 2
682 0 192 322 0 17 192 0 511 512 513 189 94 514 0 435 -17 512 0 511 88 192 68 43
5 419 0 0 -17 513 0 511 192 79 92 438 436 0 442 -17 94 0 515 516 445 92 192 514
 0 513 +16 514 3456 0 ?94 517 26 518 0 0 1 17 435 0 519 520 259 189 512 419 0 44
5 +15 519 2603 0 521 522 0 17 520 0 519 521 435 134 445 443 0 0 -17 259 0 519 43
5 521 68 523 257 0 512 +17 445 0 515 94 524 189 520 443 0 0 +15 515 3290 0 445 3
04 0 17 524 0 515 445 525 134 426 424 0 520 -17 525 0 515 524 526 165 177 527 0
 426 +17 426 0 528 529 136 165 524 424 0 0 +15 528 3276 0 529 530 531 17 529 0 5
28 532 426 169 167 533 0 0 -17 136 0 528 426 73 134 521 420 0 524 +17 73 0 528 1
36 432 71 534 253 0 521 +17 521 0 519 259 520 71 136 420 0 523 -17 523 0 360 534
 70 71 259 257 0 0 -15 360 3049 0 534 354 0 17 534 0 360 535 523 80 73 253 0 0 -
17 70 0 360 523 535 68 88 276 0 259 -17 535 0 360 70 534 86 82 246 0 0 -17 88 0
 511 536 512 86 70 276 0 440 +17 536 0 511 79 88 89 440 423 0 0 -17 440 0 537 82
 250 86 536 423 0 535 +15 537 2615 0 538 539 0 17 82 0 537 538 440 80 535 246 0
 432 +17 250 0 537 440 538 89 540 248 0 536 +17 538 0 537 250 82 83 432 430 0 54
0 -17 540 0 356 541 91 83 250 248 0 0 -15 356 3028 0 541 351 0 17 541 0 356 542
 540 74 85 255 0 0 -17 91 0 356 540 542 89 79 274 0 250 -17 542 0 356 91 541 77
 76 251 0 0 -17 79 0 511 513 536 77 91 274 0 438 +17 438 0 543 76 442 77 513 436
 0 542 +15 543 2611 0 438 544 0 17 76 0 543 545 438 74 542 251 0 429 +17 442 0 5
43 438 545 92 516 433 0 0 +17 545 0 543 442 76 115 429 427 0 0 -17 516 0 515 546
 94 115 442 433 0 545 -17 546 0 515 547 516 36 133 422 0 0 -17 547 0 515 526 546
 168 40 548 0 0 -17 133 0 528 429 549 115 546 422 0 516 +16 422 3265 0 ?133 424
 420 421 424 424 1 17 429 0 528 85 133 74 545 427 0 541 +17 549 0 528 133 532 36
 550 551 0 546 -17 532 0 528 549 529 172 552 553 0 0 -17 550 0 554 183 40 172 54
9 551 0 532 +16 551 3315 0 ?550 553 555 556 0 0 1 16 553 3318 0 ?552 533 551 557
 0 0 1 16 555 3468 0 ?32 551 517 558 517 517 1 30 556 3368 0 551 559 557 0 +-.00
3711217119430365 -.02691522188433865 -.0075 -.707106781186544 -.707106781186551
 0 30 559 3370 0 560 561 556 0 +-.000175683213497705 -.0205512608536596 -.005 .7
07106781186537 .707106781186558 0 30 557 3367 0 553 556 562 0 +-.003711217119430
365 -.02691522188433865 -.0075 -.707106781186558 .707106781186537 0 30 562 3366
 0 533 557 563 0 +-.000175683213497705 -.0205512608536596 -.0075 .70710678118653
7 .707106781186558 0 16 533 3321 0 ?167 564 553 562 0 0 1 30 563 3365 0 527 562
 565 0 +-.000175683213497705 -.0205512608536596 -.005 0 0 -1 16 527 3303 0 ?525
 566 567 563 0 0 1 30 565 3364 0 567 563 568 0 +-.00512543068180352 -.0255010083
2196555 -.005 0 0 -1 16 567 3307 0 ?171 527 569 565 0 0 1 30 568 3363 0 569 565
 570 0 +-.003711217119430365 -.02691522188433865 -.005 0 0 -1 16 569 3311 0 ?174
 567 548 568 0 0 1 30 570 3362 0 548 568 571 0 +.00123853034887549 -.02196547441
603275 -.005 0 0 -1 16 548 3299 0 ?40 569 560 570 0 0 1 30 571 3251 0 572 570 57
3 0 +.03481043840914415 .0116064336442363 -.005 -.707106781186543 -.707106781186
552 0 16 572 3174 0 ?574 575 576 571 0 0 1 30 573 3250 0 575 571 577 0 +.0298606
909408383 .00665668617593038 -.005 -.707106781186551 .707106781186544 0 16 575 3
186 0 ?578 579 572 573 0 0 1 30 577 3249 0 579 573 580 0 +.0284464773784651 .008
07089973830355 -.005 .70710678118655 .707106781186546 0 16 579 3182 0 ?581 582 5
75 577 0 0 1 30 580 3248 0 582 577 583 0 +.03481043840914415 .0116064336442363 -
.005 .707106781186546 -.707106781186549 0 16 582 3178 0 ?584 585 579 580 0 0 1 3
0 583 3247 0 566 580 586 0 +.03481043840914415 .0116064336442363 -.0075 -.707106
781186543 -.707106781186552 0 16 566 3190 0 ?153 587 527 583 0 0 1 30 586 3245 0
 587 583 588 0 +.0284464773784651 .00807089973830355 -.0075 .70710678118655 .707
106781186546 0 16 587 3196 0 ?589 576 566 586 0 0 1 30 588 3244 0 576 586 590 0
 +.03481043840914415 .0116064336442363 -.0075 .707106781186546 -.707106781186549
 0 16 576 3199 0 ?591 572 587 588 0 0 1 30 590 3243 0 592 588 593 0 +.0348104384
0914415 .0116064336442363 -.005 0 0 -1 16 592 3181 0 ?146 594 595 590 0 0 1 30 5
93 3242 0 595 590 596 0 +.03339622484677105 .01302064720660942 -.005 0 0 -1 16 5
95 3185 0 ?150 592 597 593 0 0 1 30 596 3241 0 597 593 598 0 +.0284464773784651
 .00807089973830355 -.005 0 0 -1 16 597 3189 0 ?43 595 585 596 0 0 1 30 598 3240
 0 585 596 599 0 +.0298606909408383 .00665668617593038 -.005 0 0 -1 16 585 3177
 0 ?600 597 582 598 0 0 1 31 599 2799 0 594 598 601 0 +.02802902132748685 .01305
480541844784 -.0075 0 0 -1 -1 0 0 .0015 16 594 2727 0 ?602 405 592 599 0 0 1 31
 601 2797 0 405 599 603 0 +.0350812994707032 .00596494793793329 -.0075 0 0 -1 -1
 0 0 .001499999999999974 16 405 2724 0 ?604 401 594 601 0 0 1 30 603 2795 0 409
 601 400 0 +.0368467433257004 -.00032936620893163 -.0075 -.691071009083567 -.722
786870663974 0 16 409 2918 0 ?142 605 408 603 0 0 1 30 400 2794 0 397 603 398 0
 +.0368467433257004 -.00032936620893163 -.0075 -.707106781186552 .70710678118654
3 0 16 397 2693 0 ?381 387 605 400 605 605 1 17 381 0 377 606 142 151 607 397 0
 0 +16 605 3143 0 ?139 397 409 400 397 397 1 17 139 0 377 379 608 137 609 605 0
 610 +17 608 0 377 139 611 41 589 587 0 609 -17 609 0 30 612 610 41 139 605 0 0
 -17 610 0 30 609 31 137 394 392 0 386 -15 30 3168 0 412 12 0 17 31 0 30 610 28
 175 35 517 0 613 +17 394 0 614 407 386 175 610 392 0 0 +17 386 0 614 394 49 137
 379 387 0 0 -15 614 2759 0 407 615 0 17 49 0 614 386 407 47 375 272 0 379 +17 4
07 0 614 49 394 44 613 404 0 375 +17 613 0 326 35 46 175 407 404 0 394 -15 326 3
575 0 35 322 498 17 35 0 326 287 613 22 31 517 0 616 -17 46 0 326 613 390 44 61
 280 0 407 +17 390 0 326 46 58 59 389 408 0 0 -17 61 0 366 376 375 59 46 280 0 2
65 -17 58 0 326 390 617 56 67 278 0 389 +17 389 0 388 52 265 56 390 408 0 391 +1
7 391 0 363 67 385 56 52 266 0 0 -15 363 3070 0 385 359 0 17 67 0 363 618 391 65
 58 278 0 262 -17 385 0 363 391 618 50 64 270 0 0 -17 618 0 363 385 67 62 262 26
0 0 0 -17 64 0 377 142 378 62 385 270 0 619 +17 142 0 377 381 64 140 619 409 0 6
07 +17 619 0 620 262 621 62 142 409 0 618 -15 620 2751 0 619 622 0 17 262 0 620
 403 619 65 618 260 0 617 +17 621 0 620 619 403 140 412 395 0 0 -17 403 0 620 62
1 262 186 617 401 0 412 +17 412 0 30 32 607 186 621 395 0 0 +17 32 0 30 28 412 2
9 188 555 0 0 +17 607 0 30 412 600 140 381 397 0 621 -17 600 0 30 607 623 151 16
4 585 0 381 +17 623 0 30 600 612 147 578 575 0 0 -17 164 0 372 624 153 147 600 5
85 0 574 -15 372 3213 0 153 365 0 17 624 0 372 146 164 143 574 572 0 584 -17 153
 0 372 164 146 151 606 566 0 600 +17 574 0 625 578 584 147 624 572 0 623 +15 625
 3228 0 574 626 0 17 578 0 625 581 574 160 623 575 0 612 +17 584 0 625 574 581 1
43 627 582 0 0 +17 581 0 625 584 578 157 162 579 0 627 +17 627 0 628 150 156 157
 584 582 0 0 -15 628 3217 0 591 371 0 17 150 0 628 591 627 148 159 595 0 589 +17
 156 0 628 627 591 143 146 592 0 624 -17 591 0 628 156 150 144 611 576 0 606 +17
 146 0 372 153 624 144 156 592 0 591 +17 611 0 377 608 606 148 591 576 0 0 -17 6
06 0 377 611 381 144 153 566 0 0 -17 159 0 629 162 589 157 150 595 0 581 -17 589
 0 629 159 43 148 608 587 0 611 +15 629 3221 0 589 630 0 17 43 0 629 589 162 41
 612 597 0 608 +17 162 0 629 43 159 160 581 579 0 578 -17 612 0 30 623 609 160 4
3 597 0 0 -14 630 3218 631 ?626 371 629 4 632 -0 0 626 371 18 81 1 631 4148 367
 630 633 0 369 634 635 14 626 3226 634 ?636 630 625 4 637 +0 0 636 630 18 14 371
 3214 638 ?630 365 628 4 639 -0 0 630 365 18 50 632 3236 0 630 639 373 0 +.02844
64773784651 .00807089973830355 -.005 -.707106781186546 .70710678118655 0 -.70710
678118655 -.707106781186546 0 50 639 3237 0 371 637 632 0 +.03481043840914415 .0
116064336442363 -.005 .707106781186549 .707106781186546 0 -.707106781186546 .707
106781186549 0 50 373 3234 0 365 632 640 0 +.03481043840914415 .0116064336442363
 -.005 .707106781186552 -.707106781186543 0 .707106781186543 .707106781186552 0
 50 640 2781 0 382 373 641 0 +0 0 -.0075 0 0 1 1 0 0 14 382 2738 642 ?622 539 64
3 4 640 -0 0 622 539 18 50 641 2779 0 355 640 644 0 +.0428648631968694 .00596494
793793329 -.0075 -.691071009083567 -.722786870663974 0 .722786870663974 -.691071
009083567 0 14 355 2760 645 ?351 615 388 4 641 -0 0 351 615 18 50 644 2778 0 615
 641 646 0 +.0214604249936032 .0150569521231654 -.0075 .722786870663974 -.691071
009083567 0 .691071009083567 .722786870663974 0 14 615 2756 647 ?355 622 614 4 6
44 -0 0 355 622 18 50 646 2776 0 622 644 648 0 +.0368467433257004 -.000329366208
93163 -.0075 -.722786870663974 .691071009083567 0 -.691071009083567 -.7227868706
63974 0 14 622 2748 649 ?615 382 620 4 646 -0 0 615 382 18 50 648 2633 0 530 646
 650 0 +0 0 -.0075 0 0 -1 -1 0 0 14 530 2590 651 ?522 652 528 4 648 +0 0 522 652
 18 50 650 2631 0 539 648 653 0 +.001836535735236025 -.0356327454296783 -.0075 .
691071009083567 .722786870663974 0 -.722786870663974 .691071009083567 0 14 539 2
612 654 ?382 544 537 4 650 -0 0 382 544 18 50 653 2630 0 544 650 655 0 +.0082245
8273373762 -.02895152680089475 -.0075 -.722786870663974 .691071009083567 0 -.691
071009083567 -.722786870663974 0 14 544 2608 656 ?539 522 543 4 653 -0 0 539 522
 18 50 655 2628 0 522 653 657 0 +-.00716173559835961 -.01356520846879772 -.0075
 .722786870663974 -.691071009083567 0 .691071009083567 .722786870663974 0 14 522
 2600 658 ?544 530 519 4 655 -0 0 544 530 18 51 657 1991 0 652 655 659 0 +.00183
6535735236025 -.0272798157975339 -.02854702817097635 0 0 1 .0015 1 0 0 14 652 19
71 660 ?530 661 662 4 657 -0 0 530 661 18 51 659 1990 0 661 657 663 0 +-.0052489
3560475055 -.02022315151378955 -.02854702817097635 0 0 1 .0015 1 0 0 14 661 1961
 664 ?652 665 666 4 659 -0 0 652 665 18 50 663 1987 0 304 659 306 0 +-.007161735
59835961 -.01356520846879772 -.02854702817097635 .707106781186543 .7071067811865
52 0 -.707106781186552 .707106781186543 0 14 304 3436 667 ?322 12 515 4 663 +0 0
 322 12 18 51 306 1797 0 665 663 300 0 +.02802902132748685 .01305480541844784 -.
02854702817097635 0 0 1 .0015 1 0 0 14 665 1777 668 ?661 305 669 4 306 -0 0 661
 305 18 81 1 668 4162 367 665 670 0 667 671 672 14 305 1767 671 ?665 307 673 4 3
00 -0 0 665 307 18 15 669 3727 0 674 665 675 17 674 0 669 674 674 0 676 677 0 0
 +15 675 2772 0 602 665 0 17 602 0 675 602 602 0 678 594 0 0 +17 678 0 383 678 6
78 0 602 594 0 0 -15 383 2742 0 678 382 0 17 676 0 679 676 676 0 674 677 0 0 -16
 677 3726 0 ?674 680 681 682 0 0 1 16 680 3733 0 ?683 217 677 684 0 0 1 16 681 3
719 0 ?685 677 686 687 0 0 1 31 682 3729 0 677 687 684 0 +.02802902132748685 .01
305480541844784 .002 0 0 1 1 0 0 .0015 31 687 3722 0 681 688 682 0 +.00183653573
5236025 -.0272798157975339 .002 0 0 1 1 0 0 .0015 31 684 3736 0 680 682 689 0 +.
0350812994707032 .00596494793793329 .002 0 0 1 1 0 0 .001499999999999974 30 689
 3847 0 217 684 16 0 +0 -.03689693656466715 .003 1 0 0 16 217 3845 0 ?204 20 680
 689 0 0 1 30 16 3849 0 20 689 6 0 -.00507605164947811 -.03689693656466715 .003
 0 -1 0 31 688 3712 0 686 690 687 0 --.00524893560475055 -.02022315151378955 .00
3 0 0 1 1 0 0 .0025 16 686 3709 0 ?691 681 692 688 0 0 1 31 690 3702 0 692 693 6
88 0 -.001836535735236025 -.0272798157975339 .003 0 0 1 1 0 0 .0025 16 692 3699
 0 ?694 686 695 690 0 0 1 31 693 3692 0 695 295 690 0 -.02802902132748685 .01305
480541844784 .003 0 0 1 1 0 0 .0025 16 695 3689 0 ?696 692 697 693 0 0 1 31 295
 3682 0 697 288 693 0 -.0350812994707032 .00596494793793329 .003 0 0 1 1 0 0 .00
25 16 697 3679 0 ?698 695 294 295 0 0 1 17 698 0 699 698 698 0 700 697 0 0 +16 2
94 3672 0 ?701 697 34 288 0 0 1 17 701 0 666 701 701 0 702 294 0 0 +15 666 3673
 0 701 661 703 17 702 0 704 702 702 0 701 294 0 0 -15 704 3767 0 702 705 0 14 70
5 3765 706 ?707 296 708 4 298 +0 0 707 296 18 81 1 706 4164 367 705 709 0 671 71
0 711 14 707 3778 710 ?712 705 713 4 714 +0 0 712 705 18 14 296 3646 715 ?705 71
6 717 4 289 +0 0 705 716 18 15 708 3766 0 718 705 704 52 298 3772 0 705 289 714
 0 --.00524893560475055 -.02022315151378955 .002 0 0 1 .0015 .707106781186547 .7
07106781186549 1 0 0 52 714 3785 0 707 298 15 0 -.001836535735236025 -.027279815
7975339 .002 0 0 1 .0015 .707106781186547 .707106781186549 1 0 0 52 15 3798 0 71
2 714 5 0 -.02802902132748685 .01305480541844784 .002 0 0 1 .0015 .7071067811865
47 .707106781186549 1 0 0 14 712 3791 719 ?14 707 720 4 15 +0 0 14 707 18 81 1 7
19 4167 367 712 721 0 715 722 723 14 14 3804 722 ?203 712 724 4 5 +0 0 203 712 1
8 15 720 3792 0 725 712 679 17 725 0 720 725 725 0 696 695 0 0 -15 679 3793 0 67
6 712 0 17 696 0 726 696 696 0 725 695 0 0 +15 726 3690 0 696 212 699 15 699 368
0 0 698 212 727 15 727 3603 0 284 212 728 17 284 0 727 284 284 0 729 282 0 0 +15
 728 1592 0 730 212 731 17 730 0 728 730 730 0 448 446 0 0 -15 731 1552 0 732 21
2 733 17 732 0 731 732 732 0 454 452 0 0 -15 733 1512 0 734 212 735 17 734 0 733
 734 734 0 460 458 0 0 -15 735 6 0 736 212 0 17 736 0 735 736 736 0 231 225 0 0
 -17 231 0 329 231 231 0 736 225 0 0 +15 329 160 0 231 321 507 17 460 0 737 460
 460 0 734 458 0 0 +15 737 1533 0 460 314 0 17 454 0 738 454 454 0 732 452 0 0 +
15 738 1573 0 454 310 0 17 448 0 739 448 448 0 730 446 0 0 +15 739 1613 0 448 30
7 0 17 729 0 740 729 729 0 284 282 0 0 -15 740 3648 0 729 296 0 81 1 722 4168 36
7 14 741 0 719 742 743 14 203 3896 742 ?744 14 199 4 745 -0 0 744 14 18 15 724 3
805 0 700 14 746 17 700 0 724 700 700 0 698 697 0 0 -15 746 3806 0 747 14 0 17 7
47 0 746 747 747 0 683 680 0 0 -17 683 0 673 683 683 0 747 680 0 0 +15 673 3734
 0 683 305 748 15 748 2767 0 604 305 0 17 604 0 748 604 604 0 749 405 0 0 +17 74
9 0 643 749 749 0 604 405 0 0 -15 643 2740 0 749 382 377 81 1 742 4169 367 203 7
50 0 722 751 752 14 744 3900 751 ?0 203 23 4 753 +0 0 0 203 18 51 745 3908 0 203
 753 754 0 +-474237335016878e-19 -.03689693656466715 .007 0 -1 0 .0065 0 0 -1 50
 753 3910 0 744 0 745 0 +-474237335016878e-19 -.03689693656466715 .007 0 -1 0 0
 0 -1 50 754 3361 0 716 745 755 0 +0 0 -.005 0 0 1 1 0 0 14 716 3348 756 ?296 75
7 758 4 754 -0 0 296 757 18 50 755 3359 0 636 754 759 0 +-.000175683213497705 -.
0205512608536596 -.005 -.707106781186558 .707106781186537 0 -.707106781186537 -.
707106781186558 0 14 636 3336 760 ?761 626 762 4 755 -0 0 761 626 18 50 759 3358
 0 761 755 763 0 +-.003711217119430365 -.02691522188433865 -.005 -.7071067811865
37 -.707106781186558 0 .707106781186558 -.707106781186537 0 14 761 3340 764 ?757
 636 765 4 759 -0 0 757 636 18 50 763 3357 0 757 759 637 0 +-.003711217119430365
 -.02691522188433865 -.005 .707106781186551 -.707106781186544 0 .707106781186544
 .707106781186551 0 14 757 3344 766 ?716 761 554 4 763 -0 0 716 761 18 50 637 32
39 0 626 763 639 0 +0 0 -.005 0 0 -1 -1 0 0 81 1 766 4174 367 757 767 0 764 0 76
8 15 554 3347 0 550 757 0 80 255 1 367 769 770 9000 1 1 1 1 1 1 1 1 0 FFFFTFTFFF
FFFF1 81 1 767 4008 771 757 0 766 772 773 774 81 1 764 4173 367 761 772 0 760 76
6 775 82 255 1 768 1271726460 81 1 772 4007 771 761 0 764 776 767 777 81 1 760 4
172 367 636 776 0 756 764 778 82 1 775 1271595388 81 1 776 4006 771 636 0 760 77
9 772 780 81 1 756 4171 367 716 773 0 751 760 781 82 1 778 1271464316 81 1 773 4
009 771 716 0 756 767 782 783 81 1 751 4170 367 744 784 0 742 756 785 82 1 781 1
264910716 81 1 784 4016 771 744 0 751 750 0 786 82 1 785 -1968701044 80 1 771 0
 787 8001 0 0 0 0 3 5 0 0 0 FFFFTFTFFFFFFF2 81 1 750 4015 771 203 0 742 741 784
 788 83 255 3 786 .752941176470588 .752941176470588 .752941176470588 81 1 741 40
14 771 14 0 722 721 750 789 83 3 788 .752941176470588 .752941176470588 .75294117
6470588 81 1 721 4013 771 712 0 719 790 741 791 83 3 789 .752941176470588 .75294
1176470588 .752941176470588 81 1 790 4012 771 707 0 710 709 721 792 83 3 791 .75
2941176470588 .752941176470588 .752941176470588 81 1 710 4165 367 707 790 0 706
 715 793 81 1 709 4011 771 705 0 706 782 790 794 83 3 792 .752941176470588 .7529
41176470588 .752941176470588 81 1 782 4010 771 296 0 715 773 709 795 83 3 794 .7
52941176470588 .752941176470588 .752941176470588 81 1 715 4166 367 296 782 0 710
 719 796 83 3 795 .752941176470588 .752941176470588 .752941176470588 82 1 796 20
35876229 82 1 793 2048786823 79 255 15 787 SDL/TYSA_COLOUR83 3 783 .752941176470
588 .752941176470588 .752941176470588 81 1 779 4005 771 626 0 634 633 776 797 83
 3 780 .752941176470588 .752941176470588 .752941176470588 81 1 634 4149 367 626
 779 0 631 638 798 81 1 633 4004 771 630 0 631 799 779 800 83 3 797 .75294117647
0588 .752941176470588 .752941176470588 81 1 799 4003 771 371 0 638 801 633 802 8
3 3 800 .752941176470588 .752941176470588 .752941176470588 81 1 638 4150 367 371
 799 0 634 642 803 81 1 801 4002 771 365 0 369 368 799 804 83 3 802 .75294117647
0588 .752941176470588 .752941176470588 81 1 369 4147 367 365 801 0 364 631 805 8
1 1 368 4001 771 362 0 364 806 801 807 83 3 804 .752941176470588 .75294117647058
8 .752941176470588 81 1 806 4000 771 359 0 361 808 368 809 83 3 807 .75294117647
0588 .752941176470588 .752941176470588 81 1 361 4145 367 359 806 0 358 364 810 8
1 1 808 3999 771 354 0 358 811 806 812 83 3 809 .752941176470588 .75294117647058
8 .752941176470588 81 1 358 4144 367 354 808 0 353 361 813 81 1 811 3998 771 351
 0 353 814 808 815 83 3 812 .752941176470588 .752941176470588 .752941176470588 8
1 1 353 4143 367 351 811 0 349 358 816 81 1 814 3997 771 355 0 645 817 811 818 8
3 3 815 .752941176470588 .752941176470588 .752941176470588 81 1 645 4152 367 355
 814 0 642 647 819 81 1 817 3996 771 615 0 647 820 814 821 83 3 818 .75294117647
0588 .752941176470588 .752941176470588 81 1 647 4153 367 615 817 0 645 649 822 8
1 1 820 3995 771 622 0 649 823 817 824 83 3 821 .752941176470588 .75294117647058
8 .752941176470588 81 1 649 4154 367 622 820 0 647 651 825 81 1 823 3994 771 382
 0 642 826 820 827 83 3 824 .752941176470588 .752941176470588 .752941176470588 8
1 1 642 4151 367 382 823 0 638 645 828 81 1 826 3993 771 539 0 654 829 823 830 8
3 3 827 .752941176470588 .752941176470588 .752941176470588 81 1 654 4156 367 539
 826 0 651 656 831 81 1 829 3992 771 544 0 656 832 826 833 83 3 830 .75294117647
0588 .752941176470588 .752941176470588 81 1 656 4157 367 544 829 0 654 658 834 8
1 1 832 3991 771 522 0 658 835 829 836 83 3 833 .752941176470588 .75294117647058
8 .752941176470588 81 1 658 4158 367 522 832 0 656 660 837 81 1 835 3990 771 530
 0 651 838 832 839 83 3 836 .752941176470588 .752941176470588 .752941176470588 8
1 1 651 4155 367 530 835 0 649 654 840 81 1 838 3989 771 652 0 660 841 835 842 8
3 3 839 .752941176470588 .752941176470588 .752941176470588 81 1 660 4159 367 652
 838 0 658 664 843 81 1 841 3988 771 661 0 664 670 838 844 83 3 842 .75294117647
0588 .752941176470588 .752941176470588 81 1 664 4160 367 661 841 0 660 667 845 8
1 1 670 3987 771 665 0 668 846 841 847 83 3 844 .752941176470588 .75294117647058
8 .752941176470588 81 1 846 3986 771 305 0 671 848 670 849 83 3 847 .75294117647
0588 .752941176470588 .752941176470588 81 1 671 4163 367 305 846 0 668 706 850 8
1 1 848 3985 771 307 0 309 851 846 852 83 3 849 .752941176470588 .75294117647058
8 .752941176470588 81 1 309 4131 367 307 848 0 303 313 853 81 1 851 3984 771 310
 0 313 854 848 855 83 3 852 .752941176470588 .752941176470588 .752941176470588 8
1 1 313 4132 367 310 851 0 309 317 856 81 1 854 3983 771 314 0 317 857 851 858 8
3 3 855 .752941176470588 .752941176470588 .752941176470588 81 1 317 4133 367 314
 854 0 313 320 859 81 1 857 3982 771 212 0 320 860 854 861 83 3 858 .75294117647
0588 .752941176470588 .752941176470588 81 1 320 4134 367 212 857 0 317 324 862 8
1 1 860 3981 771 321 0 328 863 857 864 83 3 861 .752941176470588 .75294117647058
8 .752941176470588 81 1 328 4136 367 321 860 0 324 331 865 81 1 863 3980 771 218
 0 331 866 860 867 83 3 864 .752941176470588 .752941176470588 .752941176470588 8
1 1 331 4137 367 218 863 0 328 334 868 81 1 866 3979 771 332 0 334 869 863 870 8
3 3 867 .752941176470588 .752941176470588 .752941176470588 81 1 334 4138 367 332
 866 0 331 338 871 81 1 869 3978 771 335 0 338 872 866 873 83 3 870 .75294117647
0588 .752941176470588 .752941176470588 81 1 338 4139 367 335 869 0 334 342 874 8
1 1 872 3977 771 339 0 342 875 869 876 83 3 873 .752941176470588 .75294117647058
8 .752941176470588 81 1 342 4140 367 339 872 0 338 346 877 81 1 875 3976 771 343
 0 346 878 872 879 83 3 876 .752941176470588 .752941176470588 .752941176470588 8
1 1 346 4141 367 343 875 0 342 349 880 81 1 878 3975 771 325 0 349 881 875 882 8
3 3 879 .752941176470588 .752941176470588 .752941176470588 81 1 349 4142 367 325
 878 0 346 353 883 81 1 881 3974 771 322 0 324 884 878 885 83 3 882 .75294117647
0588 .752941176470588 .752941176470588 81 1 324 4135 367 322 881 0 320 328 886 8
1 1 884 3973 771 304 0 667 887 881 888 83 3 885 .752941176470588 .75294117647058
8 .752941176470588 81 1 667 4161 367 304 884 0 664 668 889 81 1 887 3972 771 12
 0 303 0 884 890 83 3 888 .752941176470588 .752941176470588 .752941176470588 81
 1 303 4130 367 12 887 0 0 309 891 83 3 890 .752941176470588 .752941176470588 .7
52941176470588 82 1 891 1864630661 82 1 889 1864106371 82 1 886 938803589 82 1 8
83 -1461321441 82 1 880 1342636402 82 1 877 -1461845729 82 1 874 -1462107873 82
 1 871 1342243186 82 1 868 1342112140 82 1 865 -1463156449 82 1 862 1341718924 8
2 1 859 112853356 82 1 856 116851052 82 1 853 120783212 82 1 850 679739783 82 1
 845 675807623 82 1 843 687604103 82 1 840 932708732 82 1 837 897778051 82 1 834
 897253763 82 1 831 896991607 82 1 828 930021756 82 1 825 909508995 82 1 822 908
984707 82 1 819 908722551 82 1 816 1200947575 82 1 813 1202913655 82 1 810 12048
79735 82 1 805 1260650876 82 1 803 1260257660 82 1 798 1253704060 83 3 777 .7529
41176470588 .752941176470588 .752941176470588 83 3 774 .752941176470588 .7529411
76470588 .752941176470588 79 14 770 SWEntUnchanged15 765 3343 0 552 761 0 17 552
 0 765 180 174 169 532 553 0 529 +17 180 0 765 892 552 178 171 567 0 893 -17 174
 0 765 552 892 172 183 569 0 550 +17 892 0 765 174 180 181 893 894 0 895 -17 183
 0 554 185 550 181 174 569 0 892 -17 185 0 554 40 183 168 895 896 0 897 -17 40 0
 554 550 185 36 547 548 0 549 +17 895 0 758 893 897 181 185 896 0 0 +16 896 3308
 0 ?895 894 564 898 0 0 1 17 897 0 758 895 899 168 526 564 0 547 +15 758 3350 0
 897 716 0 17 899 0 758 897 893 154 900 560 0 526 +17 526 0 515 525 547 154 897
 564 0 0 -16 564 3296 0 ?897 896 533 901 0 0 1 30 901 3373 0 564 558 898 0 +.001
23853034887549 -.02196547441603275 -.005 .707106781186552 -.707106781186543 0 30
 558 3538 0 555 518 901 0 +.01825868855838415 .0182586885583844 0 -.707106781186
552 .707106781186543 0 30 898 3372 0 896 901 561 0 +-.003711217119430365 -.02691
522188433865 -.005 -.707106781186544 -.707106781186551 0 30 561 3371 0 894 898 5
59 0 +-.003711217119430365 -.02691522188433865 -.005 -.707106781186558 .70710678
1186537 0 16 894 3304 0 ?893 560 896 561 0 0 1 17 893 0 758 899 895 178 892 894
 0 900 +16 560 3300 0 ?899 548 894 559 0 0 1 17 900 0 762 171 177 178 899 560 0
 0 -15 762 3339 0 167 636 0 17 171 0 762 167 900 169 180 567 0 552 +17 177 0 762
 900 167 154 525 527 0 899 -17 167 0 762 177 171 165 529 533 0 525 +30 518 3540
 0 514 210 558 0 +-.01036347203357862 -.01036347203357876 0 .707106781186552 -.7
07106781186543 0 31 210 3912 0 201 902 518 0 +-474237335016878e-19 -.03889693656
466715 .007 0 -1 0 0 0 -1 .0065 31 902 3913 0 26 0 210 0 +-474237335016878e-19 -
.03689693656466715 .007 0 -1 0 0 0 -1 .0065 16 26 3875 0 ?21 514 201 902 0 0 1 1
5 23 3902 0 21 744 0 82 1 752 -1966734964 82 1 743 2051277191 82 1 723 205003200
7 17 718 0 708 718 718 0 691 686 0 0 -17 691 0 213 691 691 0 718 686 0 0 +15 213
 3710 0 691 212 903 15 903 3700 0 694 212 726 17 694 0 903 694 694 0 904 692 0 0
 +17 904 0 713 904 904 0 694 692 0 0 -15 713 3779 0 904 707 905 15 905 3780 0 90
6 707 0 17 906 0 905 906 906 0 685 681 0 0 -17 685 0 662 685 685 0 906 681 0 0 +
15 662 3720 0 685 652 907 15 907 2619 0 418 652 0 17 418 0 907 418 418 0 908 416
 0 0 +17 908 0 531 908 908 0 418 416 0 0 -15 531 2592 0 908 530 909 15 909 2594
 0 910 530 0 17 910 0 909 910 910 0 415 413 0 0 -17 415 0 703 415 415 0 910 413
 0 0 +15 703 2624 0 415 661 0 15 717 3647 0 33 296 740 17 33 0 717 616 616 29 28
 34 0 287 -17 616 0 717 33 33 22 287 285 0 0 -17 287 0 326 188 35 29 616 285 0 3
2 +17 188 0 326 617 287 186 32 555 0 403 -17 617 0 326 58 188 65 403 401 0 0 -82
 1 711 2047541639 82 1 672 683671943 82 1 635 1260388732 16 517 3616 0 ?31 555 5
14 558 555 555 1 17 85 0 528 432 429 83 541 255 0 538 +17 432 0 528 73 85 80 538
 430 0 534 +17 451 0 311 451 451 0 510 449 0 0 +15 311 1612 0 451 307 739 17 462
 0 318 462 462 0 508 236 0 0 +15 318 1532 0 462 314 737 17 98 0 206 216 483 96 4
85 500 0 219 +17 485 0 498 479 234 100 98 500 0 0 -15 499 1558 0 911 322 504 17
 911 0 499 911 911 0 457 455 0 0 -17 457 0 315 457 457 0 911 455 0 0 +15 315 157
2 0 457 310 738 82 1 370 1206845815 141 299 286 299 299 289 17 24 0 23 21 21 193
 204 217 0 25 -17 25 0 199 19 27 193 21 26 0 205 -19 13 195 0 1 0 8 4 S74 4 CI16
 index_map_offset0 0 1 dCCZ20 11 2 0 0 766 784 0 0 0 0 0 0 0 0 0 0 0 0 0 0 0 0 0
 0 1 0 
